<svg height="512pt" viewBox="0 0 512 512" width="512pt" xmlns="http://www.w3.org/2000/svg"><path d="m511.921875 80.457031v247.132813c0 11.109375-9.039063 20.097656-20.148437 20.035156-11.019532-.058594-19.921876-9.011719-19.921876-20.035156v-247.132813c0-22.269531-18.285156-40.386719-40.761718-40.386719-22.820313 0-41.386719 18.117188-41.386719 40.386719 0 18.015625 13.179687 33.804688 29.78125 39.503907 8.007813 2.75 13.296875 10.394531 13.296875 18.863281v111.628906c0 11.109375-9.039062 20.097656-20.148438 20.035156-11.023437-.0625-19.925781-9.015625-19.925781-20.035156v-88.160156h-211.378906c-11.066406 0-20.039063-8.96875-20.039063-20.035157 0-11.066406 8.972657-20.039062 20.039063-20.039062h179.863281c-7.53125-12.574219-11.5625-26.910156-11.5625-41.761719 0-14.714843 4.039063-28.503906 11.050782-40.386719h-279.84375c-22.476563 0-40.761719 18.117188-40.761719 40.386719 0 22.636719 18.664062 41.761719 40.761719 41.761719 11.058593 0 20.023437 8.957031 20.035156 20.015625l.3125 289.601563c0 22.117187 17.976562 40.09375 40.070312 40.09375h189.34375c11.066406 0 20.035156 8.96875 20.035156 20.035156 0 11.0625-8.96875 20.035156-20.035156 20.035156h-189.34375c-44.191406 0-80.144531-35.953125-80.144531-80.144531l-.289063-272.117188c-13.972656-3.644531-26.8125-11.109375-37.316406-21.878906-15.15625-15.535156-23.503906-35.921875-23.503906-57.402344 0-44.363281 36.261719-80.457031 80.835938-80.457031h348.734374c.167969 0 .332032.0195312.503907.0234375.335937-.0039063.671875-.0234375 1.015625-.0234375 44.570312 0 80.832031 36.09375 80.832031 80.457031zm-17.589844 328.871094c23.421875 23.417969 23.421875 61.554687-.015625 84.988281-11.71875 11.71875-27.109375 17.578125-42.5 17.578125-15.394531 0-30.785156-5.859375-42.503906-17.578125l-109.566406-109.769531c-2.4375-2.445313-4.207032-5.476563-5.128906-8.804687l-22.398438-80.871094c-1.953125-7.042969.085938-14.585938 5.316406-19.691406 5.230469-5.101563 12.820313-6.953126 19.816406-4.828126l78.867188 23.953126c3.15625.960937 6.027344 2.683593 8.359375 5.019531zm-162.5-49.363281 73.644531 73.785156 28.339844-28.339844-74.058594-74.222656-39.199218-11.90625zm134.148438 77.683594-3.859375-3.871094-28.335938 28.335937 3.875 3.882813c7.796875 7.800781 20.507813 7.800781 28.320313-.011719s7.8125-20.523437 0-28.335937zm0 0"/></svg>