<?xml version="1.0" standalone="no"?>
<!DOCTYPE svg PUBLIC "-//W3C//DTD SVG 20010904//EN"
 "http://www.w3.org/TR/2001/REC-SVG-20010904/DTD/svg10.dtd">
<svg version="1.0" xmlns="http://www.w3.org/2000/svg"
 width="1042.000000pt" height="1042.000000pt" viewBox="0 0 1042.000000 1042.000000"
 preserveAspectRatio="xMidYMid meet">
<metadata>
Created by potrace 1.11, written by Peter Selinger 2001-2013
</metadata>
<g transform="translate(0.000000,1042.000000) scale(0.100000,-0.100000)"
fill="#000000" stroke="none">
<path d="M3349 10326 c-2 -2 -35 -7 -74 -11 -38 -4 -72 -8 -75 -10 -3 -2 -21
-6 -40 -9 -55 -8 -200 -52 -286 -86 -179 -71 -384 -207 -525 -351 -95 -96
-144 -159 -254 -329 -49 -74 -109 -166 -134 -205 -25 -38 -50 -78 -56 -88 -10
-16 -160 -249 -380 -587 -174 -267 -459 -708 -485 -750 -14 -22 -135 -210
-270 -418 -337 -520 -354 -546 -469 -725 -140 -218 -197 -332 -242 -490 -61
-215 -58 -108 -56 -2202 l2 -1920 34 -69 c114 -234 409 -313 622 -166 63 43
104 93 200 250 88 145 232 375 258 415 10 17 65 104 121 195 57 91 124 199
150 240 27 41 159 253 293 470 135 217 250 400 254 405 5 6 31 47 58 93 28 45
61 100 75 122 26 41 134 213 160 255 8 14 65 104 125 200 61 97 119 191 130
209 88 144 276 441 308 486 94 130 262 267 411 335 80 37 176 71 226 80 18 3
36 8 40 10 24 15 292 18 1570 20 1054 1 1453 5 1503 14 135 23 285 90 397 176
112 86 146 132 428 565 45 69 86 132 92 140 9 14 65 99 268 410 41 63 166 255
277 425 111 171 248 379 303 464 56 84 102 155 102 158 0 2 5 9 10 16 6 7 61
90 123 185 199 306 391 598 626 957 36 55 70 108 76 117 23 38 130 204 138
213 20 24 114 174 130 208 103 216 -8 477 -238 563 -48 18 -143 19 -2986 21
-1615 2 -2938 1 -2940 -1z"/>
<path d="M9967 8584 c-1 -2 -18 -6 -37 -9 -63 -11 -137 -52 -192 -106 -32 -32
-104 -131 -173 -239 -66 -102 -160 -247 -210 -322 -49 -76 -126 -193 -170
-260 -81 -125 -219 -337 -406 -623 -58 -88 -134 -205 -170 -259 -35 -55 -118
-182 -184 -283 -66 -100 -196 -300 -290 -443 -384 -587 -486 -738 -537 -790
-191 -197 -394 -308 -663 -362 -97 -20 -141 -20 -1495 -23 -1496 -2 -1451 -1
-1605 -51 -200 -66 -399 -204 -526 -364 -36 -45 -138 -200 -184 -279 -5 -9
-31 -50 -57 -91 -61 -97 -573 -911 -678 -1079 -77 -124 -294 -469 -635 -1011
-147 -234 -301 -479 -342 -545 -181 -291 -243 -391 -250 -400 -36 -45 -235
-380 -247 -416 -60 -176 24 -390 189 -482 109 -61 -132 -57 3100 -54 1623 1
2966 6 2985 10 19 4 68 14 109 22 292 58 588 220 806 441 114 116 136 146 355
490 104 165 194 306 200 314 24 35 109 168 134 210 39 65 50 83 59 94 10 13
193 300 317 496 50 80 139 220 198 313 59 92 145 227 191 300 47 72 108 168
136 212 64 99 203 317 230 360 11 18 45 71 75 119 30 47 66 104 80 126 14 22
53 84 87 137 119 188 194 372 230 563 17 89 18 212 18 2035 l0 1940 -24 55
c-26 58 -69 120 -111 157 -33 30 -136 81 -180 89 -41 7 -128 13 -133 8z"/>
</g>
</svg>
