<?xml version="1.0" standalone="no"?>
<!DOCTYPE svg PUBLIC "-//W3C//DTD SVG 1.1//EN" "http://www.w3.org/Graphics/SVG/1.1/DTD/svg11.dtd" >
<svg xmlns="http://www.w3.org/2000/svg" xmlns:xlink="http://www.w3.org/1999/xlink" version="1.1">
<metadata>
Created by FontForge 20190801 at Mon Feb  8 16:25:13 2016
 By Jimmy Wärting
If you used this font or saw where this font used please send me a photo, or link, or just few words where you saw. Thanks in advance!\015\012\015\012info@4thfebruary.com.ua
</metadata>
<defs>
<font id="Laqonic4FUnicase-Italic" horiz-adv-x="450" >
  <font-face 
    font-family="Laqonic 4F Unicase"
    font-weight="400"
    font-style="italic"
    font-stretch="normal"
    units-per-em="1000"
    panose-1="2 0 5 3 3 0 0 2 0 4"
    ascent="800"
    descent="-200"
    x-height="716"
    cap-height="716"
    bbox="-39 -167 803 890"
    underline-thickness="73"
    underline-position="-143"
    slope="-8"
    unicode-range="U+000D-F6C3"
  />
<missing-glyph horiz-adv-x="186" 
 />
    <glyph glyph-name=".notdef" horiz-adv-x="186" 
 />
    <glyph glyph-name="space" unicode=" " horiz-adv-x="186" 
 />
    <glyph glyph-name="exclam" unicode="!" horiz-adv-x="251" 
d="M191 176h-80l58 540h116zM179 0h-106l14 100h106z" />
    <glyph glyph-name="quotedbl" unicode="&#x22;" horiz-adv-x="343" 
d="M208 563h-73l4 188h117zM366 563h-72l4 188h116z" />
    <glyph glyph-name="numbersign" unicode="#" horiz-adv-x="482" 
d="M287 0h-46l65 238h-105l-64 -238h-46l65 238h-89l7 47h95l40 146h-88l7 48h94l65 237h45l-65 -237h105l65 237h45l-65 -237h97l-7 -48h-103l-40 -146h96l-7 -47h-102zM319 285l40 146h-105l-40 -146h105z" />
    <glyph glyph-name="dollar" unicode="$" horiz-adv-x="429" 
d="M219 -88h-45l11 78c-77 6 -151 47 -137 147l16 113h107l-16 -113c-6 -41 32 -56 65 -56c34 0 76 15 82 56l13 92c6 46 -1 59 -63 81c-99 36 -167 62 -151 177l13 92c14 100 99 141 175 148l11 77h45l-11 -77c74 -7 146 -48 132 -148l-16 -113h-107l16 113
c6 41 -29 56 -61 56c-31 0 -70 -14 -76 -56l-13 -92c-6 -45 3 -61 57 -80c107 -36 171 -66 155 -178l-13 -92c-14 -99 -100 -140 -178 -147z" />
    <glyph glyph-name="percent" unicode="%" horiz-adv-x="472" 
d="M143 0h-61l346 716h60zM240 558l14 98c2 17 -13 23 -27 23c-13 0 -31 -7 -33 -23l-14 -98c-3 -19 14 -23 27 -23c14 0 31 5 33 23zM308 656l-14 -98c-7 -53 -56 -71 -94 -71s-81 19 -74 71l14 98c7 51 56 69 94 69s81 -17 74 -69zM379 62l13 97c3 18 -12 24 -26 24
c-13 0 -32 -7 -34 -24l-13 -97c-3 -19 13 -25 26 -25c14 0 31 7 34 25zM446 159l-13 -97c-7 -52 -56 -71 -94 -71c-39 0 -81 19 -74 71l13 97c7 52 55 70 94 70c38 0 81 -18 74 -70z" />
    <glyph glyph-name="ampersand" unicode="&#x26;" horiz-adv-x="507" 
d="M487 0h-109l-26 44c-37 -37 -80 -55 -133 -55c-112 0 -174 68 -161 159l13 93c8 60 47 100 90 131c-26 35 -35 69 -29 109l13 95c13 93 79 152 188 152c111 0 158 -61 147 -141l-12 -88h-107l12 88c4 28 -15 48 -52 48c-41 0 -65 -22 -70 -59l-13 -92
c-3 -24 13 -48 25 -68l69 -122l14 100h170l-13 -94h-72l-20 -144l79 -138zM302 133l-89 155c-21 -12 -33 -30 -35 -47l-13 -93c-6 -45 26 -67 66 -67c27 0 51 15 71 52z" />
    <glyph glyph-name="quotesingle" unicode="'" horiz-adv-x="185" 
d="M208 563h-73l4 188h117z" />
    <glyph glyph-name="parenleft" unicode="(" horiz-adv-x="309" 
d="M277 -18l-13 -93c-101 0 -207 60 -183 230l67 478c24 171 146 230 247 230l-13 -93c-50 0 -112 -36 -126 -137l-67 -478c-14 -101 38 -137 88 -137z" />
    <glyph glyph-name="parenright" unicode=")" horiz-adv-x="310" 
d="M14 -111l13 93c51 0 114 36 128 137l68 478c14 101 -39 137 -90 137l13 93c101 0 206 -59 182 -230l-67 -478c-24 -170 -146 -230 -247 -230z" />
    <glyph glyph-name="asterisk" unicode="*" horiz-adv-x="388" 
d="M379 470l-63 -45l-50 83l-75 -83l-49 45l69 78l-89 32l34 68l87 -30l14 98h75l-14 -99l97 31l16 -68l-100 -32z" />
    <glyph glyph-name="plus" unicode="+" horiz-adv-x="526" 
d="M356 327l-25 -176h-93l25 176h-173l12 86h173l25 175h93l-25 -175h172l-12 -86h-172z" />
    <glyph glyph-name="comma" unicode="," horiz-adv-x="211" 
d="M31 -123l7 53c36 0 62 18 69 70h-59l15 108h115l-15 -108c-13 -91 -71 -123 -132 -123z" />
    <glyph glyph-name="hyphen" unicode="-" horiz-adv-x="256" 
d="M273 416l-13 -93h-174l13 93h174z" />
    <glyph glyph-name="period" unicode="." horiz-adv-x="211" 
d="M163 0h-115l15 108h115z" />
    <glyph glyph-name="slash" unicode="/" horiz-adv-x="210" 
d="M38 -91l-77 21l311 877l76 -20z" />
    <glyph glyph-name="zero" unicode="0" horiz-adv-x="431" 
d="M293 129l64 458c5 36 -25 48 -52 48c-28 0 -62 -12 -67 -48l-64 -458c-5 -35 25 -48 53 -48c27 0 61 13 66 48zM66 129l64 458c15 105 111 141 188 141s162 -35 147 -141l-64 -458c-15 -105 -110 -140 -187 -140s-163 35 -148 140z" />
    <glyph glyph-name="one" unicode="1" horiz-adv-x="431" 
d="M296 0h-108l76 542h-112l10 68c100 0 144 40 153 106h81z" />
    <glyph glyph-name="two" unicode="2" horiz-adv-x="431" 
d="M387 0h-343l20 144c22 156 89 190 207 249c53 26 67 48 77 124l8 62c6 41 -24 56 -51 56c-28 0 -62 -14 -68 -56l-11 -80h-108l11 80c15 110 112 149 189 149s160 -39 146 -149l-8 -62c-22 -165 -99 -186 -199 -242c-64 -35 -73 -47 -85 -131l-7 -50h235z" />
    <glyph glyph-name="three" unicode="3" horiz-adv-x="431" 
d="M293 129l19 138c6 43 -24 56 -51 56h-60l13 93h60c27 0 61 13 67 56l16 115c5 36 -25 48 -52 48c-28 0 -62 -12 -67 -48l-12 -88h-108l12 88c14 105 111 141 188 141s162 -35 147 -141l-16 -115c-7 -52 -41 -84 -83 -103c37 -18 61 -50 54 -102l-19 -138
c-15 -105 -110 -140 -187 -140s-162 35 -148 140l12 88h108l-12 -88c-5 -35 25 -48 53 -48c27 0 61 13 66 48z" />
    <glyph glyph-name="four" unicode="4" horiz-adv-x="431" 
d="M359 0h-108l19 137h-227l13 94c96 119 196 323 237 485h107l-2 -18c-42 -155 -151 -365 -234 -467h119l23 165l100 67h18l-33 -232h57l-13 -94h-57z" />
    <glyph glyph-name="five" unicode="5" horiz-adv-x="431" 
d="M293 129l26 190c5 35 -26 46 -50 46c-30 0 -64 -15 -69 -46h-99l56 397h317l-13 -93h-209l-25 -182c23 12 49 18 74 18c64 0 140 -37 126 -140l-26 -190c-15 -105 -110 -140 -187 -140s-162 35 -148 140l12 88h108l-12 -88c-5 -35 25 -48 53 -48c27 0 61 13 66 48z" />
    <glyph glyph-name="six" unicode="6" horiz-adv-x="431" 
d="M429 329l-28 -200c-15 -105 -110 -140 -187 -140s-163 35 -148 140l64 458c15 105 111 141 188 141s161 -36 147 -141l-12 -88h-108l12 88c5 36 -25 48 -52 48c-28 0 -63 -17 -67 -48l-19 -133c22 10 46 15 70 15c66 0 155 -36 140 -140zM293 129l28 200
c5 34 -26 47 -53 47s-59 -15 -65 -43l-29 -204c-5 -35 25 -48 53 -48c27 0 61 13 66 48z" />
    <glyph glyph-name="seven" unicode="7" horiz-adv-x="431" 
d="M231 0h-107l3 18c36 213 132 420 240 605h-235l13 93h343l-12 -82c-113 -187 -204 -400 -245 -634z" />
    <glyph glyph-name="eight" unicode="8" horiz-adv-x="431" 
d="M424 267l-19 -138c-15 -105 -112 -140 -191 -140c-80 0 -167 35 -152 140l19 138c7 53 42 85 86 103c-37 18 -60 50 -53 102l16 115c15 105 111 141 188 141s162 -35 147 -141l-16 -115c-7 -51 -41 -83 -81 -102c37 -18 63 -51 56 -103zM297 129l19 138
c6 43 -27 56 -55 56c-29 0 -66 -13 -72 -56l-19 -138c-5 -35 28 -48 57 -48c28 0 65 13 70 48zM341 472l16 115c5 36 -25 48 -52 48c-28 0 -62 -12 -67 -48l-16 -115c-6 -43 24 -56 52 -56c27 0 61 13 67 56z" />
    <glyph glyph-name="nine" unicode="9" horiz-adv-x="431" 
d="M293 129l22 156c-22 -10 -45 -14 -68 -14c-67 0 -157 35 -142 139l25 177c15 105 111 141 188 141s162 -35 147 -141l-64 -458c-15 -105 -110 -140 -187 -140s-162 35 -148 140l12 88h108l-12 -88c-5 -35 25 -48 53 -48c27 0 61 13 66 48zM331 405l26 182
c5 36 -25 48 -52 48c-28 0 -63 -17 -67 -48l-25 -177c-4 -30 26 -47 54 -47c25 0 57 11 64 42z" />
    <glyph glyph-name="colon" unicode=":" horiz-adv-x="211" 
d="M163 0h-115l15 108h115zM212 352h-115l16 108h115z" />
    <glyph glyph-name="semicolon" unicode=";" horiz-adv-x="211" 
d="M213 352h-115l15 108h115zM31 -123l7 53c36 0 62 18 69 70h-59l15 108h115l-15 -108c-13 -91 -71 -123 -132 -123z" />
    <glyph glyph-name="less" unicode="&#x3c;" horiz-adv-x="477" 
d="M471 209l-10 -72h-17l-364 190l9 62l417 190h17l-10 -72l-345 -149z" />
    <glyph glyph-name="equal" unicode="=" horiz-adv-x="438" 
d="M460 473l-12 -86h-350l12 86h350zM440 329l-12 -86h-350l12 86h350z" />
    <glyph glyph-name="greater" unicode="&#x3e;" horiz-adv-x="477" 
d="M496 389l-8 -62l-417 -190h-18l10 72l346 149l-304 149l10 72h18z" />
    <glyph glyph-name="question" unicode="?" horiz-adv-x="376" 
d="M258 173h-107l13 94c14 99 51 114 103 143c29 16 37 21 43 63l15 106c6 41 -25 56 -52 56c-28 0 -62 -14 -68 -56l-16 -113h-108l16 113c16 110 112 149 189 149c78 0 162 -39 146 -149l-15 -106c-15 -106 -57 -102 -105 -139c-29 -22 -37 -38 -41 -67zM233 0h-108
l14 100h108z" />
    <glyph glyph-name="at" unicode="@" horiz-adv-x="546" 
d="M505 54l-8 -56c-76 -9 -150 -9 -225 -9c-130 0 -219 44 -202 166l51 362c17 123 118 167 248 167s218 -44 201 -167l-47 -335c-9 -64 -66 -83 -103 -83c-23 0 -48 7 -60 27c-19 -20 -50 -27 -78 -27c-48 0 -103 22 -94 87l12 90c9 69 54 83 125 107l44 15l12 88
c3 22 -15 31 -34 31s-41 -9 -44 -31l-11 -77h-67l11 77c9 65 69 87 119 87c49 0 101 -22 92 -87l-43 -301c-3 -23 12 -29 22 -29c11 0 27 6 30 29l47 332c11 79 -42 110 -142 110s-161 -31 -172 -110l-51 -362c-10 -74 42 -110 142 -110c75 0 149 0 225 9zM340 195l20 145
l-43 -17c-40 -12 -47 -23 -50 -47l-12 -90c-3 -23 18 -30 36 -30c21 0 45 9 49 39z" />
    <glyph glyph-name="A" unicode="A" horiz-adv-x="460" 
d="M451 0h-103l-12 155h-169l-55 -155h-103l3 18l265 698h108l69 -698zM328 249l-23 294l-104 -294h127z" />
    <glyph glyph-name="B" unicode="B" horiz-adv-x="473" 
d="M277 0h-213l101 716h198c91 0 150 -56 138 -141l-13 -88c-6 -43 -33 -81 -76 -113c52 -28 72 -67 64 -124l-12 -88c-12 -87 -80 -162 -187 -162zM356 163l12 88c5 38 -13 72 -65 72h-86l-32 -231h86c53 0 80 33 85 71zM379 476l12 88c4 30 -6 60 -50 60h-81l-30 -208h81
c44 0 64 31 68 60z" />
    <glyph glyph-name="C" unicode="C" 
d="M320 137l16 113h108l-16 -113c-15 -109 -117 -148 -200 -148c-84 0 -176 39 -161 148l62 442c15 110 118 149 202 149c83 0 175 -39 159 -149l-16 -113h-108l16 113c6 41 -31 56 -64 56s-75 -14 -81 -56l-62 -442c-6 -41 32 -56 65 -56s74 15 80 56z" />
    <glyph glyph-name="D" unicode="D" horiz-adv-x="473" 
d="M341 163l55 390c5 39 -12 71 -65 71h-71l-75 -532h71c53 0 80 33 85 71zM262 0h-198l101 716h198c105 0 152 -75 140 -162l-55 -392c-12 -87 -81 -162 -186 -162z" />
    <glyph glyph-name="E" unicode="E" horiz-adv-x="415" 
d="M394 94l-13 -94h-317l101 716h317l-13 -93h-209l-30 -207h173l-13 -93h-173l-32 -229h209z" />
    <glyph glyph-name="F" unicode="F" horiz-adv-x="406" 
d="M217 323l-45 -323h-108l101 716h317l-13 -93h-209l-30 -207h173l-13 -93h-173z" />
    <glyph glyph-name="G" unicode="G" horiz-adv-x="465" 
d="M320 137l23 163h-72l13 94h180l-36 -257c-15 -109 -117 -148 -200 -148c-84 0 -176 39 -161 148l62 442c15 110 118 149 202 149c83 0 175 -39 159 -149l-16 -113h-108l16 113c6 41 -31 56 -64 56s-75 -14 -81 -56l-62 -442c-6 -41 32 -56 65 -56s74 15 80 56z" />
    <glyph glyph-name="H" unicode="H" horiz-adv-x="517" 
d="M554 716l-101 -716h-108l45 323h-173l-45 -323h-108l101 716h108l-43 -300h173l43 300h108z" />
    <glyph glyph-name="I" unicode="I" horiz-adv-x="235" 
d="M172 0h-108l101 716h108z" />
    <glyph glyph-name="J" unicode="J" horiz-adv-x="399" 
d="M253 129l82 587h108l-82 -587c-15 -105 -110 -140 -187 -140s-162 35 -147 140l17 121h108l-17 -121c-5 -35 24 -48 52 -48s61 13 66 48z" />
    <glyph glyph-name="K" unicode="K" horiz-adv-x="464" 
d="M455 0h-106l-97 302l-47 -64l-33 -238h-108l101 716h108l-40 -284l208 284h107l-3 -18l-221 -298l134 -382z" />
    <glyph glyph-name="L" unicode="L" horiz-adv-x="389" 
d="M381 0h-317l101 716h108l-88 -622h209z" />
    <glyph glyph-name="M" unicode="M" horiz-adv-x="631" 
d="M565 0h-106l69 489l-184 -286l-103 286l-69 -489h-108l101 716h99l109 -306l196 306h97z" />
    <glyph glyph-name="N" unicode="N" horiz-adv-x="516" 
d="M451 0h-98l-118 451l-63 -451h-108l101 716h99l117 -451l64 451h107z" />
    <glyph glyph-name="O" unicode="O" horiz-adv-x="459" 
d="M320 137l62 442c6 41 -31 56 -64 56s-75 -14 -81 -56l-62 -442c-6 -41 32 -56 65 -56s74 15 80 56zM67 137l62 442c16 110 118 149 202 149c83 0 175 -39 159 -149l-62 -442c-15 -109 -117 -148 -200 -148c-84 0 -176 39 -161 148z" />
    <glyph glyph-name="P" unicode="P" horiz-adv-x="464" 
d="M391 451l13 88c6 41 -11 84 -67 84h-77l-36 -256h77c56 0 85 44 90 84zM172 0h-108l101 716h185c114 0 178 -62 162 -177l-13 -88c-17 -114 -97 -176 -211 -176h-77z" />
    <glyph glyph-name="Q" unicode="Q" horiz-adv-x="459" 
d="M397 -88h-99l-32 80c-13 -2 -26 -3 -38 -3c-84 0 -176 39 -161 148l62 442c15 110 118 149 202 149c83 0 175 -39 159 -149l-62 -442c-7 -51 -34 -87 -68 -111l39 -96zM320 137l62 442c6 41 -31 56 -64 56s-75 -14 -81 -56l-62 -442c-6 -41 32 -56 65 -56s74 15 80 56z
" />
    <glyph glyph-name="R" unicode="R" horiz-adv-x="481" 
d="M443 0h-111l-49 287h-71l-40 -287h-108l101 716h193c105 0 164 -57 148 -168l-12 -88c-10 -69 -43 -118 -106 -151l58 -291zM387 461l12 88c5 35 -10 74 -54 74h-85l-34 -242h85c44 0 71 45 76 80z" />
    <glyph glyph-name="S" unicode="S" horiz-adv-x="429" 
d="M415 188l-7 -51c-15 -109 -116 -148 -200 -148s-175 39 -160 148l16 113h107l-16 -113c-6 -41 32 -56 65 -56c34 0 76 15 82 56l7 51c9 67 5 87 -57 117c-96 48 -165 78 -145 223l7 51c15 110 116 149 197 149c82 0 171 -39 155 -149l-16 -113h-107l16 113
c6 41 -29 56 -61 56c-31 0 -70 -14 -76 -56l-7 -51c-9 -65 -2 -91 52 -116c105 -49 167 -83 148 -224z" />
    <glyph glyph-name="T" unicode="T" horiz-adv-x="370" 
d="M239 0h-108l88 623h-122l13 93h352l-13 -93h-122z" />
    <glyph glyph-name="U" unicode="U" horiz-adv-x="473" 
d="M517 716l-81 -579c-15 -109 -117 -148 -200 -148c-84 0 -176 39 -161 148l81 579h108l-81 -579c-6 -41 32 -56 65 -56c34 0 75 15 81 56l81 579h107z" />
    <glyph glyph-name="V" unicode="V" horiz-adv-x="460" 
d="M549 698l-270 -698h-99l-73 698l3 18h99l45 -534l199 534h99z" />
    <glyph glyph-name="W" unicode="W" horiz-adv-x="667" 
d="M740 698l-225 -698h-99l-28 387l-137 -387h-99l-30 698l3 18h99l13 -489l134 400h102l22 -399l149 488h99z" />
    <glyph glyph-name="X" unicode="X" horiz-adv-x="420" 
d="M407 18l-3 -18h-98l-64 230l-126 -230h-100l3 18l188 340l-93 340l3 18h100l61 -230l129 230h98l-3 -18l-189 -340z" />
    <glyph glyph-name="Y" unicode="Y" horiz-adv-x="422" 
d="M265 0h-108l39 278l-89 420l3 18h98l61 -306l148 306h98l-3 -18l-208 -423z" />
    <glyph glyph-name="Z" unicode="Z" horiz-adv-x="384" 
d="M359 0h-335l13 94l294 529h-219l13 93h335l-13 -93l-293 -529h218z" />
    <glyph glyph-name="bracketleft" unicode="[" horiz-adv-x="326" 
d="M293 0l-13 -94h-229l121 860h229l-13 -94h-121l-95 -672h121z" />
    <glyph glyph-name="backslash" unicode="\" horiz-adv-x="210" 
d="M229 -70l-82 -21l-65 878l83 20z" />
    <glyph glyph-name="bracketright" unicode="]" horiz-adv-x="326" 
d="M370 766l-121 -860h-229l13 94h121l95 672h-121l13 94h229z" />
    <glyph glyph-name="asciicircum" unicode="^" horiz-adv-x="354" 
d="M387 548h-60l-49 171l-98 -171h-59l3 20l133 216h60l73 -216z" />
    <glyph glyph-name="underscore" unicode="_" horiz-adv-x="338" 
d="M330 -100l-9 -67h-351l9 67h351z" />
    <glyph glyph-name="grave" unicode="`" horiz-adv-x="224" 
d="M260 861l30 -100h-63l-53 83l2 17h84z" />
    <glyph glyph-name="a" unicode="a" 
d="M398 0h-180c-84 0 -174 40 -159 150l11 84c17 126 120 152 205 172l75 18l22 156c6 41 -31 56 -64 56s-75 -15 -81 -56l-16 -112h-108l16 112c16 110 118 148 202 148c83 0 174 -38 159 -148zM304 94l33 236l-75 -18c-33 -7 -76 -21 -84 -78l-12 -84
c-6 -43 33 -56 66 -56h72z" />
    <glyph glyph-name="b" unicode="b" horiz-adv-x="473" 
d="M277 0h-213l101 716h198c91 0 150 -56 138 -141l-13 -88c-6 -43 -33 -81 -76 -113c52 -28 72 -67 64 -124l-12 -88c-12 -87 -80 -162 -187 -162zM356 163l12 88c5 38 -13 72 -65 72h-86l-32 -231h86c53 0 80 33 85 71zM379 476l12 88c4 30 -6 60 -50 60h-81l-30 -208h81
c44 0 64 31 68 60z" />
    <glyph glyph-name="c" unicode="c" 
d="M320 137l16 113h108l-16 -113c-15 -109 -117 -148 -200 -148c-84 0 -176 39 -161 148l62 442c15 110 118 149 202 149c83 0 175 -39 159 -149l-16 -113h-108l16 113c6 41 -31 56 -64 56s-75 -14 -81 -56l-62 -442c-6 -41 32 -56 65 -56s74 15 80 56z" />
    <glyph glyph-name="d" unicode="d" horiz-adv-x="473" 
d="M262 0h-198l101 716h198c105 0 152 -75 140 -162l-55 -392c-12 -87 -81 -162 -186 -162zM341 163l55 390c5 39 -12 71 -65 71h-71l-75 -532h71c53 0 80 33 85 71z" />
    <glyph glyph-name="e" unicode="e" 
d="M444 250l-16 -113c-15 -109 -117 -148 -200 -148c-84 0 -176 39 -161 148l62 442c15 110 118 149 202 149c83 0 174 -39 159 -149l-36 -257h-253l-26 -185c-6 -41 32 -56 65 -56s74 15 80 56l16 113h108zM214 416h145l23 163c6 42 -31 56 -64 56s-75 -15 -81 -56z" />
    <glyph glyph-name="f" unicode="f" horiz-adv-x="406" 
d="M217 323l-45 -323h-108l101 716h317l-13 -93h-209l-30 -207h173l-13 -93h-173z" />
    <glyph glyph-name="g" unicode="g" horiz-adv-x="465" 
d="M320 137l23 163h-72l13 94h180l-36 -257c-15 -109 -117 -148 -200 -148c-84 0 -176 39 -161 148l62 442c15 110 118 149 202 149c83 0 175 -39 159 -149l-16 -113h-108l16 113c6 41 -31 56 -64 56s-75 -14 -81 -56l-62 -442c-6 -41 32 -56 65 -56s74 15 80 56z" />
    <glyph glyph-name="h" unicode="h" horiz-adv-x="517" 
d="M554 716l-101 -716h-108l45 323h-173l-45 -323h-108l101 716h108l-43 -300h173l43 300h108z" />
    <glyph glyph-name="i" unicode="i" horiz-adv-x="235" 
d="M172 0h-108l101 716h108z" />
    <glyph glyph-name="j" unicode="j" horiz-adv-x="399" 
d="M253 129l69 494h-173l13 93h281l-82 -587c-15 -105 -110 -140 -187 -140s-162 35 -147 140l17 121h108l-17 -121c-5 -35 24 -48 52 -48s61 13 66 48z" />
    <glyph glyph-name="k" unicode="k" horiz-adv-x="464" 
d="M455 0h-106l-97 302l-47 -64l-33 -238h-108l101 716h108l-40 -284l208 284h107l-3 -18l-221 -298l134 -382z" />
    <glyph glyph-name="l" unicode="l" horiz-adv-x="389" 
d="M381 0h-317l101 716h108l-88 -622h209z" />
    <glyph glyph-name="m" unicode="m" horiz-adv-x="710" 
d="M661 0h-108l78 553c5 39 -11 71 -64 71h-63l-88 -624h-107l88 624h-137l-88 -624h-108l101 716h433c106 0 153 -75 141 -162z" />
    <glyph glyph-name="n" unicode="n" horiz-adv-x="473" 
d="M425 0h-107l78 553c5 39 -12 71 -65 71h-71l-88 -624h-108l101 716h198c105 0 152 -75 140 -162z" />
    <glyph glyph-name="o" unicode="o" horiz-adv-x="459" 
d="M320 137l62 442c6 41 -31 56 -64 56s-75 -14 -81 -56l-62 -442c-6 -41 32 -56 65 -56s74 15 80 56zM67 137l62 442c16 110 118 149 202 149c83 0 175 -39 159 -149l-62 -442c-15 -109 -117 -148 -200 -148c-84 0 -176 39 -161 148z" />
    <glyph glyph-name="p" unicode="p" horiz-adv-x="464" 
d="M391 451l13 88c6 41 -11 84 -67 84h-77l-36 -256h77c56 0 85 44 90 84zM172 0h-108l101 716h185c114 0 178 -62 162 -177l-13 -88c-17 -114 -97 -176 -211 -176h-77z" />
    <glyph glyph-name="q" unicode="q" horiz-adv-x="459" 
d="M397 -88h-99l-32 80c-13 -2 -26 -3 -38 -3c-84 0 -176 39 -161 148l62 442c15 110 118 149 202 149c83 0 175 -39 159 -149l-62 -442c-7 -51 -34 -87 -68 -111l39 -96zM320 137l62 442c6 41 -31 56 -64 56s-75 -14 -81 -56l-62 -442c-6 -41 32 -56 65 -56s74 15 80 56z
" />
    <glyph glyph-name="r" unicode="r" horiz-adv-x="481" 
d="M443 0h-111l-49 287h-71l-40 -287h-108l101 716h193c105 0 164 -57 148 -168l-12 -88c-10 -69 -43 -118 -106 -151l58 -291zM387 461l12 88c5 35 -10 74 -54 74h-85l-34 -242h85c44 0 71 45 76 80z" />
    <glyph glyph-name="s" unicode="s" horiz-adv-x="429" 
d="M415 188l-7 -51c-15 -109 -116 -148 -200 -148s-175 39 -160 148l16 113h107l-16 -113c-6 -41 32 -56 65 -56c34 0 76 15 82 56l7 51c9 67 5 87 -57 117c-96 48 -165 78 -145 223l7 51c15 110 116 149 197 149c82 0 171 -39 155 -149l-16 -113h-107l16 113
c6 41 -29 56 -61 56c-31 0 -70 -14 -76 -56l-7 -51c-9 -65 -2 -91 52 -116c105 -49 167 -83 148 -224z" />
    <glyph glyph-name="t" unicode="t" horiz-adv-x="370" 
d="M239 0h-108l88 623h-122l13 93h352l-13 -93h-122z" />
    <glyph glyph-name="u" unicode="u" horiz-adv-x="473" 
d="M517 716l-81 -579c-15 -109 -117 -148 -200 -148c-84 0 -176 39 -161 148l81 579h108l-81 -579c-6 -41 32 -56 65 -56c34 0 75 15 81 56l81 579h107z" />
    <glyph glyph-name="v" unicode="v" horiz-adv-x="460" 
d="M549 698l-270 -698h-99l-73 698l3 18h99l45 -534l199 534h99z" />
    <glyph glyph-name="w" unicode="w" horiz-adv-x="640" 
d="M692 716l-82 -587c-15 -105 -108 -140 -177 -140c-43 0 -85 13 -108 48c-32 -35 -78 -48 -120 -48c-71 0 -154 35 -139 140l82 587h108l-82 -587c-5 -35 24 -48 48 -48s57 13 62 48l82 587h108l-82 -587c-5 -35 24 -48 48 -48c25 0 58 13 63 48l82 587h107z" />
    <glyph glyph-name="x" unicode="x" horiz-adv-x="420" 
d="M407 18l-3 -18h-98l-64 230l-126 -230h-100l3 18l188 340l-93 340l3 18h100l61 -230l129 230h98l-3 -18l-189 -340z" />
    <glyph glyph-name="y" unicode="y" horiz-adv-x="425" 
d="M515 698l-238 -582c-33 -83 -90 -123 -167 -123c-16 0 -33 4 -45 8l13 94c15 -5 28 -8 40 -8c28 0 44 13 55 38l26 63l-89 510l2 18h104l54 -377l145 377h102z" />
    <glyph glyph-name="z" unicode="z" horiz-adv-x="384" 
d="M359 0h-335l13 94l294 529h-219l13 93h335l-13 -93l-293 -529h218z" />
    <glyph glyph-name="braceleft" unicode="{" horiz-adv-x="284" 
d="M250 -7l-13 -92c-68 0 -145 35 -130 140l32 226c7 50 -24 65 -50 65h-26l11 75h26c26 0 61 15 68 65l28 203c15 105 102 141 170 141l-13 -93c-20 0 -44 -12 -49 -48l-26 -185c-9 -63 -46 -101 -90 -121c38 -20 66 -57 57 -119l-30 -209c-5 -36 15 -48 35 -48z" />
    <glyph glyph-name="bar" unicode="|" horiz-adv-x="210" 
d="M132 -94h-81l127 904h81z" />
    <glyph glyph-name="braceright" unicode="}" horiz-adv-x="280" 
d="M19 -99l13 92c19 0 44 12 49 48l29 209c9 62 45 99 90 119c-39 20 -65 58 -56 121l26 185c5 36 -16 48 -35 48l13 93c68 0 145 -35 130 -141l-29 -203c-7 -51 23 -65 50 -65h24l-10 -75h-24c-27 0 -61 -14 -68 -65l-32 -226c-15 -105 -102 -140 -170 -140z" />
    <glyph glyph-name="asciitilde" unicode="~" horiz-adv-x="481" 
d="M445 419l28 -78c-32 -35 -74 -56 -117 -56c-25 0 -44 8 -71 25l-26 16c-18 11 -28 19 -48 19c-16 0 -24 -4 -73 -39l-28 78c33 36 76 54 117 54c24 0 50 -6 71 -22l24 -18c21 -15 32 -20 46 -20c22 0 41 16 77 41z" />
    <glyph glyph-name="exclamdown" unicode="&#xa1;" horiz-adv-x="251" 
d="M242 540l-58 -540h-116l94 540h80zM280 716l-14 -100h-106l14 100h106z" />
    <glyph glyph-name="cent" unicode="&#xa2;" 
d="M239 -88h-46l11 78c-77 7 -151 48 -137 147l62 442c14 100 100 141 179 148l11 77h46l-11 -77c76 -7 150 -48 136 -148l-16 -113h-108l16 113c6 41 -31 56 -64 56s-75 -14 -81 -56l-62 -442c-6 -41 32 -56 65 -56s74 15 80 56l16 113h108l-16 -113
c-14 -99 -100 -140 -178 -147z" />
    <glyph glyph-name="sterling" unicode="&#xa3;" horiz-adv-x="429" 
d="M407 0h-378l12 90c40 0 90 22 101 100l1 4c8 57 8 98 4 133h-79l7 47h65c-10 56 -22 104 -9 201l1 4c15 110 105 149 182 149c74 0 159 -35 144 -141l-16 -114h-107l16 114c5 36 -27 48 -51 48c-26 0 -55 -14 -61 -56l-1 -4c-13 -98 8 -129 17 -201h140l-17 -47h-120
c1 -34 -1 -77 -9 -133l-1 -4c-6 -42 -25 -73 -51 -96h223z" />
    <glyph glyph-name="yen" unicode="&#xa5;" horiz-adv-x="422" 
d="M265 0h-108l25 177h-104l7 47h104l5 41h-104l7 47h92l-82 386l3 18h102l56 -312l144 312h103l-3 -18l-190 -386h92l-7 -47h-105l-5 -41h105l-7 -47h-105z" />
    <glyph glyph-name="brokenbar" unicode="&#xa6;" horiz-adv-x="210" 
d="M132 -94h-81l59 417h81zM204 416h-81l55 394h81z" />
    <glyph glyph-name="section" unicode="&#xa7;" horiz-adv-x="394" 
d="M377 167l-9 -69c-13 -98 -107 -131 -182 -131c-74 0 -157 33 -143 131l12 86h107l-12 -86c-4 -30 25 -39 49 -39c26 0 59 10 63 39l9 69c4 29 -3 33 -50 46c-95 30 -151 51 -138 142l7 48c4 29 16 53 34 72c-13 18 -19 41 -14 74l10 69c14 98 104 132 176 132
c74 0 155 -32 141 -132l-12 -83h-107l12 83c4 29 -23 39 -47 39c-22 0 -51 -10 -55 -39l-10 -69c-4 -28 2 -32 44 -45c102 -31 156 -51 143 -143l-7 -48c-4 -27 -17 -51 -36 -70c14 -17 20 -41 15 -76zM291 305l7 47c5 33 -2 44 -49 61l-46 15c-2 -5 -3 -11 -4 -17l-7 -47
c-5 -37 1 -43 42 -58c18 -7 35 -12 51 -18c2 5 5 10 6 17z" />
    <glyph glyph-name="dieresis" unicode="&#xa8;" horiz-adv-x="331" 
d="M254 844l-12 -83h-89l12 83h89zM404 844l-12 -83h-89l12 83h89z" />
    <glyph glyph-name="copyright" unicode="&#xa9;" horiz-adv-x="547" 
d="M573 543l-52 -370c-19 -136 -147 -184 -250 -184c-104 0 -218 48 -199 184l52 370c19 136 147 185 251 185c103 0 217 -49 198 -185zM486 173l52 370c16 113 -80 154 -167 154s-195 -41 -211 -154l-52 -370c-16 -112 81 -153 168 -153s194 41 210 153zM344 190l15 109h64
l-15 -109c-9 -66 -71 -89 -121 -89c-51 0 -105 23 -96 89l48 336c9 66 69 89 120 89c50 0 105 -23 96 -89l-15 -109h-64l15 109c4 25 -20 33 -40 33s-45 -8 -48 -33l-47 -336c-4 -25 19 -33 39 -33s45 8 49 33z" />
    <glyph glyph-name="ordfeminine" unicode="&#xaa;" horiz-adv-x="244" 
d="M284 538l-6 -44c-15 0 -32 5 -41 18c-15 -16 -40 -22 -63 -22c-38 0 -100 29 -79 64l2 3c2 48 41 58 99 74l37 10l3 19c3 18 -15 24 -29 24c-15 0 -32 -6 -35 -24l-2 -13h-51l2 13c8 51 54 68 92 68c40 0 82 -17 75 -68l-16 -110c-1 -10 7 -12 12 -12zM221 554l6 41
l-38 -9c-33 -8 -39 -14 -41 -29v-3c-1 -15 17 -21 34 -21c16 0 37 6 39 21z" />
    <glyph glyph-name="guillemotleft" unicode="&#xab;" horiz-adv-x="429" 
d="M406 62l-2 -18h-82l-73 250l132 237h82l-2 -17l-115 -220zM277 18l-2 -18h-100l-102 294l173 281h100l-2 -17l-157 -264z" />
    <glyph glyph-name="registered" unicode="&#xae;" horiz-adv-x="411" 
d="M447 599l-18 -130c-13 -93 -103 -128 -175 -128s-153 35 -140 128l18 130c13 94 104 129 176 129s153 -35 139 -129zM263 542h31c18 0 28 20 28 33c0 11 -6 23 -20 23h-31zM347 443v-5h-41l-21 70h-26l-10 -70h-39l27 193h70c33 0 53 -18 53 -50c0 -27 -9 -49 -37 -64z
M400 469l18 130c11 76 -54 104 -113 104s-133 -28 -144 -104l-18 -130c-10 -75 55 -104 114 -104s133 29 143 104z" />
    <glyph glyph-name="macron" unicode="&#xaf;" horiz-adv-x="331" 
d="M420 844l-9 -65h-273l9 65h273z" />
    <glyph glyph-name="degree" unicode="&#xb0;" horiz-adv-x="246" 
d="M250 628l3 19c4 24 -16 32 -35 32c-16 0 -38 -9 -42 -32l-3 -19c-4 -25 18 -32 34 -32c19 0 40 9 43 32zM307 647l-3 -19c-9 -58 -61 -79 -104 -79s-90 21 -81 79l3 19c9 58 60 78 103 78s91 -20 82 -78z" />
    <glyph glyph-name="plusminus" unicode="&#xb1;" horiz-adv-x="526" 
d="M361 366l-24 -176h-93l24 176h-173l13 86h173l24 176h93l-24 -176h172l-13 -86h-172zM494 86l-12 -86h-438l12 86h438z" />
    <glyph glyph-name="acute" unicode="&#xb4;" horiz-adv-x="224" 
d="M288 844l-78 -83h-62l58 100h84z" />
    <glyph glyph-name="cedilla" unicode="&#xb8;" horiz-adv-x="234" 
d="M129 -118h-102l3 18l79 100h81z" />
    <glyph glyph-name="ordmasculine" unicode="&#xba;" horiz-adv-x="264" 
d="M240 558l14 98c2 17 -13 23 -27 23c-13 0 -31 -7 -33 -23l-14 -98c-3 -19 14 -23 27 -23c14 0 31 5 33 23zM308 656l-14 -98c-7 -52 -56 -71 -94 -71s-81 19 -74 71l14 98c7 51 56 69 94 69s81 -18 74 -69z" />
    <glyph glyph-name="guillemotright" unicode="&#xbb;" horiz-adv-x="429" 
d="M263 294l-144 -250h-81l3 18l125 232l-53 220l2 17h81zM439 294l-185 -294h-99l2 18l168 276l-83 264l3 17h99z" />
    <glyph glyph-name="questiondown" unicode="&#xbf;" horiz-adv-x="376" 
d="M271 137l17 124h107l-17 -124c-15 -109 -110 -148 -188 -148c-77 0 -162 39 -147 148l15 106c15 105 58 102 106 139c29 22 37 39 41 67l13 94h107l-13 -94c-14 -99 -51 -112 -104 -143c-28 -16 -36 -20 -42 -63l-15 -106c-6 -41 25 -56 51 -56c28 0 63 14 69 56z
M337 616h-107l14 100h107z" />
    <glyph glyph-name="Agrave" unicode="&#xc0;" horiz-adv-x="460" 
d="M451 0h-103l-12 155h-169l-55 -155h-103l3 18l265 698h108l69 -698zM328 249l-23 294l-104 -294h127zM348 861l30 -100h-63l-53 83l2 17h84z" />
    <glyph glyph-name="Aacute" unicode="&#xc1;" horiz-adv-x="460" 
d="M451 0h-103l-12 155h-169l-55 -155h-103l3 18l265 698h108l69 -698zM328 249l-23 294l-104 -294h127zM439 844l-78 -83h-62l58 100h84z" />
    <glyph glyph-name="Acircumflex" unicode="&#xc2;" horiz-adv-x="460" 
d="M451 0h-103l-12 155h-169l-55 -155h-103l3 18l265 698h108l69 -698zM328 249l-23 294l-104 -294h127zM451 759h-67l-40 53l-55 -53h-69l2 18l104 84h47l80 -84z" />
    <glyph glyph-name="Atilde" unicode="&#xc3;" horiz-adv-x="460" 
d="M451 0h-103l-12 155h-169l-55 -155h-103l3 18l265 698h108l69 -698zM328 249l-23 294l-104 -294h127zM446 851l25 -50c-20 -24 -49 -42 -78 -45c-18 0 -33 2 -51 12l-19 10c-14 5 -22 11 -35 11c-11 -1 -18 -6 -49 -32l-25 50c20 27 49 42 80 44c16 2 34 -1 50 -11
l17 -11c17 -8 24 -11 33 -9c16 1 30 12 52 31z" />
    <glyph glyph-name="Adieresis" unicode="&#xc4;" horiz-adv-x="460" 
d="M451 0h-103l-12 155h-169l-55 -155h-103l3 18l265 698h108l69 -698zM328 249l-23 294l-104 -294h127zM318 844l-12 -83h-89l12 83h89zM468 844l-12 -83h-89l12 83h89z" />
    <glyph glyph-name="Aring" unicode="&#xc5;" horiz-adv-x="460" 
d="M451 0h-103l-12 155h-169l-55 -155h-103l3 18l265 698h108l69 -698zM328 249l-23 294l-104 -294h127zM412 813c0 -41 -38 -76 -79 -76c-35 0 -60 27 -60 60c0 42 37 76 79 76c34 0 60 -26 60 -60zM367 807c0 12 -9 22 -21 22c-14 0 -28 -12 -28 -27c0 -11 9 -21 21 -21
c14 0 28 12 28 26z" />
    <glyph glyph-name="AE" unicode="&#xc6;" horiz-adv-x="609" 
d="M576 0h-281l22 155h-150l-55 -155h-103l3 18l265 698h400l-13 -93h-173l-30 -207h138l-13 -93h-138l-32 -229h173zM330 249l53 374h-48l-134 -374h129z" />
    <glyph glyph-name="Ccedilla" unicode="&#xc7;" 
d="M227 -118h-101l2 18l71 90c-75 8 -146 49 -132 147l62 442c15 110 118 149 202 149c83 0 175 -39 159 -149l-16 -113h-108l16 113c6 41 -31 56 -64 56s-75 -14 -81 -56l-62 -442c-6 -41 32 -56 65 -56s74 15 80 56l16 113h108l-16 -113c-12 -85 -76 -127 -143 -141z" />
    <glyph glyph-name="Egrave" unicode="&#xc8;" horiz-adv-x="415" 
d="M394 94l-13 -94h-317l101 716h317l-13 -93h-209l-30 -207h173l-13 -93h-173l-32 -229h209zM348 861l30 -100h-63l-53 83l2 17h84z" />
    <glyph glyph-name="Eacute" unicode="&#xc9;" horiz-adv-x="415" 
d="M394 94l-13 -94h-317l101 716h317l-13 -93h-209l-30 -207h173l-13 -93h-173l-32 -229h209zM433 844l-78 -83h-62l58 100h84z" />
    <glyph glyph-name="Ecircumflex" unicode="&#xca;" horiz-adv-x="415" 
d="M394 94l-13 -94h-317l101 716h317l-13 -93h-209l-30 -207h173l-13 -93h-173l-32 -229h209zM448 759h-67l-40 53l-55 -53h-69l2 18l104 84h47l80 -84z" />
    <glyph glyph-name="Edieresis" unicode="&#xcb;" horiz-adv-x="415" 
d="M394 94l-13 -94h-317l101 716h317l-13 -93h-209l-30 -207h173l-13 -93h-173l-32 -229h209zM309 844l-12 -83h-89l12 83h89zM459 844l-12 -83h-89l12 83h89z" />
    <glyph glyph-name="Igrave" unicode="&#xcc;" horiz-adv-x="235" 
d="M172 0h-108l101 716h108zM229 861l30 -100h-63l-53 83l2 17h84z" />
    <glyph glyph-name="Iacute" unicode="&#xcd;" horiz-adv-x="235" 
d="M172 0h-108l101 716h108zM325 844l-78 -83h-62l58 100h84z" />
    <glyph glyph-name="Icircumflex" unicode="&#xce;" horiz-adv-x="235" 
d="M172 0h-108l101 716h108zM340 759h-67l-40 53l-55 -53h-69l2 18l104 84h47l80 -84z" />
    <glyph glyph-name="Idieresis" unicode="&#xcf;" horiz-adv-x="235" 
d="M172 0h-108l101 716h108zM207 844l-12 -83h-89l12 83h89zM357 844l-12 -83h-89l12 83h89z" />
    <glyph glyph-name="Eth" unicode="&#xd0;" horiz-adv-x="512" 
d="M299 0h-197l47 333h-79l11 75h79l43 308h197c106 0 153 -75 141 -162l-55 -392c-12 -87 -80 -162 -187 -162zM378 163l55 390c5 39 -12 71 -65 71h-71l-30 -216h78l-11 -75h-78l-34 -241h71c53 0 80 33 85 71z" />
    <glyph glyph-name="Ntilde" unicode="&#xd1;" horiz-adv-x="516" 
d="M451 0h-98l-118 451l-63 -451h-108l101 716h99l117 -451l64 451h107zM474 851l25 -50c-20 -24 -50 -44 -78 -44c-18 0 -32 2 -51 11l-19 9c-14 6 -22 12 -35 12c-11 0 -18 -6 -49 -32l-25 50c20 27 50 41 80 44c16 1 34 -1 50 -11l18 -11c16 -9 23 -10 32 -9
c16 2 30 12 52 31z" />
    <glyph glyph-name="Ograve" unicode="&#xd2;" horiz-adv-x="459" 
d="M320 137l62 442c6 41 -31 56 -64 56s-75 -14 -81 -56l-62 -442c-6 -41 32 -56 65 -56s74 15 80 56zM67 137l62 442c16 110 118 149 202 149c83 0 175 -39 159 -149l-62 -442c-15 -109 -117 -148 -200 -148c-84 0 -176 39 -161 148zM345 861l30 -100h-63l-53 83l2 17h84z
" />
    <glyph glyph-name="Oacute" unicode="&#xd3;" horiz-adv-x="459" 
d="M320 137l62 442c6 41 -31 56 -64 56s-75 -14 -81 -56l-62 -442c-6 -41 32 -56 65 -56s74 15 80 56zM67 137l62 442c16 110 118 149 202 149c83 0 175 -39 159 -149l-62 -442c-15 -109 -117 -148 -200 -148c-84 0 -176 39 -161 148zM434 844l-78 -83h-62l58 100h84z" />
    <glyph glyph-name="Ocircumflex" unicode="&#xd4;" horiz-adv-x="459" 
d="M320 137l62 442c6 41 -31 56 -64 56s-75 -14 -81 -56l-62 -442c-6 -41 32 -56 65 -56s74 15 80 56zM67 137l62 442c16 110 118 149 202 149c83 0 175 -39 159 -149l-62 -442c-15 -109 -117 -148 -200 -148c-84 0 -176 39 -161 148zM451 759h-67l-40 53l-55 -53h-69l2 18
l104 84h47l80 -84z" />
    <glyph glyph-name="Otilde" unicode="&#xd5;" horiz-adv-x="459" 
d="M320 137l62 442c6 41 -31 56 -64 56s-75 -14 -81 -56l-62 -442c-6 -41 32 -56 65 -56s74 15 80 56zM67 137l62 442c16 110 118 149 202 149c83 0 175 -39 159 -149l-62 -442c-15 -109 -117 -148 -200 -148c-84 0 -176 39 -161 148zM445 851l25 -50
c-20 -24 -50 -44 -78 -44c-18 0 -32 2 -51 11l-19 9c-14 6 -22 12 -35 12c-11 0 -18 -6 -49 -32l-25 50c20 27 50 41 80 44c16 1 35 -1 51 -11l17 -11c16 -10 23 -10 32 -9c16 2 30 12 52 31z" />
    <glyph glyph-name="Odieresis" unicode="&#xd6;" horiz-adv-x="459" 
d="M320 137l62 442c6 41 -31 56 -64 56s-75 -14 -81 -56l-62 -442c-6 -41 32 -56 65 -56s74 15 80 56zM67 137l62 442c16 110 118 149 202 149c83 0 175 -39 159 -149l-62 -442c-15 -109 -117 -148 -200 -148c-84 0 -176 39 -161 148zM318 844l-12 -83h-89l12 83h89z
M468 844l-12 -83h-89l12 83h89z" />
    <glyph glyph-name="multiply" unicode="&#xd7;" horiz-adv-x="458" 
d="M345 372l106 -124l-75 -66l-106 124l-140 -122l-53 61l139 122l-106 125l75 66l106 -125l140 122l53 -61z" />
    <glyph glyph-name="Oslash" unicode="&#xd8;" horiz-adv-x="459" 
d="M62 -51l-36 22l51 88c-10 20 -14 46 -10 78l62 442c15 110 118 149 202 149c43 0 89 -11 120 -36l45 76l37 -23l-53 -89c10 -20 15 -46 10 -77l-62 -442c-15 -109 -117 -148 -200 -148c-44 0 -90 10 -122 35zM191 251l191 323v5c2 41 -31 56 -64 56s-75 -14 -81 -56z
M320 137l46 326l-190 -321l-1 -5c-8 -41 32 -56 65 -56s74 15 80 56z" />
    <glyph glyph-name="Ugrave" unicode="&#xd9;" horiz-adv-x="473" 
d="M517 716l-81 -579c-15 -109 -117 -148 -200 -148c-84 0 -176 39 -161 148l81 579h108l-81 -579c-6 -41 32 -56 65 -56c34 0 75 15 81 56l81 579h107zM352 861l30 -100h-63l-53 83l2 17h84z" />
    <glyph glyph-name="Uacute" unicode="&#xda;" horiz-adv-x="473" 
d="M517 716l-81 -579c-15 -109 -117 -148 -200 -148c-84 0 -176 39 -161 148l81 579h108l-81 -579c-6 -41 32 -56 65 -56c34 0 75 15 81 56l81 579h107zM445 844l-78 -83h-62l58 100h84z" />
    <glyph glyph-name="Ucircumflex" unicode="&#xdb;" horiz-adv-x="473" 
d="M517 716l-81 -579c-15 -109 -117 -148 -200 -148c-84 0 -176 39 -161 148l81 579h108l-81 -579c-6 -41 32 -56 65 -56c34 0 75 15 81 56l81 579h107zM459 759h-67l-40 53l-55 -53h-69l2 18l104 84h47l80 -84z" />
    <glyph glyph-name="Udieresis" unicode="&#xdc;" horiz-adv-x="473" 
d="M517 716l-81 -579c-15 -109 -117 -148 -200 -148c-84 0 -176 39 -161 148l81 579h108l-81 -579c-6 -41 32 -56 65 -56c34 0 75 15 81 56l81 579h107zM324 844l-12 -83h-89l12 83h89zM474 844l-12 -83h-89l12 83h89z" />
    <glyph glyph-name="Yacute" unicode="&#xdd;" horiz-adv-x="422" 
d="M265 0h-108l39 278l-89 420l3 18h98l61 -306l148 306h98l-3 -18l-208 -423zM420 844l-78 -83h-62l58 100h84z" />
    <glyph glyph-name="Thorn" unicode="&#xde;" horiz-adv-x="464" 
d="M172 0h-108l101 716h108l-13 -93h77c114 0 178 -62 162 -176l-25 -176c-17 -117 -98 -177 -212 -177h-77zM366 271l25 176c5 39 -12 83 -68 83h-77l-48 -343h77c56 0 85 43 91 84z" />
    <glyph glyph-name="germandbls" unicode="&#xdf;" horiz-adv-x="491" 
d="M286 0h-48l13 92h29c60 0 89 38 95 80l13 88c6 42 -14 81 -73 81h-29l13 92h15c37 0 55 29 59 54l12 88c5 35 -17 61 -55 61c-45 0 -66 -34 -71 -72l-79 -564h-107l70 499h-59l11 76h59c12 87 85 153 193 153c103 0 158 -58 147 -138l-12 -88c-6 -43 -30 -81 -68 -110
c64 -29 90 -70 81 -135l-12 -88c-12 -90 -85 -169 -197 -169z" />
    <glyph glyph-name="agrave" unicode="&#xe0;" 
d="M398 0h-180c-84 0 -174 40 -159 150l11 84c17 126 120 152 205 172l75 18l22 156c6 41 -31 56 -64 56s-75 -15 -81 -56l-16 -112h-108l16 112c16 110 118 148 202 148c83 0 174 -38 159 -148zM304 94l33 236l-75 -18c-33 -7 -76 -21 -84 -78l-12 -84
c-6 -43 33 -56 66 -56h72zM356 861l30 -100h-63l-53 83l2 17h84z" />
    <glyph glyph-name="aacute" unicode="&#xe1;" 
d="M398 0h-180c-84 0 -174 40 -159 150l11 84c17 126 120 152 205 172l75 18l22 156c6 41 -31 56 -64 56s-75 -15 -81 -56l-16 -112h-108l16 112c16 110 118 148 202 148c83 0 174 -38 159 -148zM304 94l33 236l-75 -18c-33 -7 -76 -21 -84 -78l-12 -84
c-6 -43 33 -56 66 -56h72zM424 844l-78 -83h-62l58 100h84z" />
    <glyph glyph-name="acircumflex" unicode="&#xe2;" 
d="M398 0h-180c-84 0 -174 40 -159 150l11 84c17 126 120 152 205 172l75 18l22 156c6 41 -31 56 -64 56s-75 -15 -81 -56l-16 -112h-108l16 112c16 110 118 148 202 148c83 0 174 -38 159 -148zM304 94l33 236l-75 -18c-33 -7 -76 -21 -84 -78l-12 -84
c-6 -43 33 -56 66 -56h72zM437 759h-67l-40 53l-55 -53h-69l3 18l103 84h47l81 -84z" />
    <glyph glyph-name="atilde" unicode="&#xe3;" 
d="M398 0h-180c-84 0 -174 40 -159 150l11 84c17 126 120 152 205 172l75 18l22 156c6 41 -31 56 -64 56s-75 -15 -81 -56l-16 -112h-108l16 112c16 110 118 148 202 148c83 0 174 -38 159 -148zM304 94l33 236l-75 -18c-33 -7 -76 -21 -84 -78l-12 -84
c-6 -43 33 -56 66 -56h72zM431 851l25 -50c-19 -24 -49 -42 -77 -45c-18 0 -34 2 -52 12l-19 10c-14 5 -22 11 -35 11c-11 -1 -18 -6 -48 -32l-25 50c20 27 49 42 79 44c16 2 34 -1 50 -11l17 -11c18 -8 24 -11 34 -9c16 1 29 12 51 31z" />
    <glyph glyph-name="adieresis" unicode="&#xe4;" 
d="M398 0h-180c-84 0 -174 40 -159 150l11 84c17 126 120 152 205 172l75 18l22 156c6 41 -31 56 -64 56s-75 -15 -81 -56l-16 -112h-108l16 112c16 110 118 148 202 148c83 0 174 -38 159 -148zM304 94l33 236l-75 -18c-33 -7 -76 -21 -84 -78l-12 -84
c-6 -43 33 -56 66 -56h72zM304 844l-12 -83h-89l12 83h89zM454 844l-12 -83h-89l12 83h89z" />
    <glyph glyph-name="aring" unicode="&#xe5;" 
d="M398 0h-180c-84 0 -174 40 -159 150l11 84c17 126 120 152 205 172l75 18l22 156c6 41 -31 56 -64 56s-75 -15 -81 -56l-16 -112h-108l16 112c16 110 118 148 202 148c83 0 174 -38 159 -148zM304 94l33 236l-75 -18c-33 -7 -76 -21 -84 -78l-12 -84
c-6 -43 33 -56 66 -56h72zM408 813c0 -41 -38 -76 -79 -76c-35 0 -59 27 -59 60c0 42 37 76 78 76c35 0 60 -26 60 -60zM364 807c0 12 -10 22 -22 22c-14 0 -28 -12 -28 -27c0 -11 9 -21 21 -21c14 0 29 12 29 26z" />
    <glyph glyph-name="ae" unicode="&#xe6;" horiz-adv-x="617" 
d="M604 250l-18 -130c-14 -98 -111 -131 -178 -131c-43 0 -85 13 -107 46c-33 -33 -79 -46 -120 -46c-66 0 -154 33 -140 131l15 109c15 108 78 147 187 173l59 14l25 180c4 29 -22 39 -47 39c-22 0 -51 -10 -55 -39l-18 -130h-108l18 130c14 100 106 132 172 132
c40 0 81 -13 103 -46c32 33 78 46 121 46c68 0 153 -34 140 -132l-39 -274h-219l-28 -202c-4 -29 25 -39 50 -39c24 0 57 10 61 39l18 130h108zM164 229l-15 -109c-4 -29 25 -39 49 -39c25 0 58 10 62 39l28 202l-58 -14c-49 -12 -61 -46 -66 -79zM409 416h111l25 180
c4 29 -25 39 -50 39s-57 -10 -61 -39z" />
    <glyph glyph-name="ccedilla" unicode="&#xe7;" 
d="M227 -118h-101l2 18l71 90c-75 8 -146 49 -132 147l62 442c15 110 118 149 202 149c83 0 175 -39 159 -149l-16 -113h-108l16 113c6 41 -31 56 -64 56s-75 -14 -81 -56l-62 -442c-6 -41 32 -56 65 -56s74 15 80 56l16 113h108l-16 -113c-12 -85 -76 -127 -143 -141z" />
    <glyph glyph-name="egrave" unicode="&#xe8;" 
d="M444 250l-16 -113c-15 -109 -117 -148 -200 -148c-84 0 -176 39 -161 148l62 442c15 110 118 149 202 149c83 0 174 -39 159 -149l-36 -257h-253l-26 -185c-6 -41 32 -56 65 -56s74 15 80 56l16 113h108zM214 416h145l23 163c6 42 -31 56 -64 56s-75 -15 -81 -56z
M338 861l30 -100h-63l-53 83l2 17h84z" />
    <glyph glyph-name="eacute" unicode="&#xe9;" 
d="M444 250l-16 -113c-15 -109 -117 -148 -200 -148c-84 0 -176 39 -161 148l62 442c15 110 118 149 202 149c83 0 174 -39 159 -149l-36 -257h-253l-26 -185c-6 -41 32 -56 65 -56s74 15 80 56l16 113h108zM214 416h145l23 163c6 42 -31 56 -64 56s-75 -15 -81 -56z
M428 844l-78 -83h-62l58 100h84z" />
    <glyph glyph-name="ecircumflex" unicode="&#xea;" 
d="M444 250l-16 -113c-15 -109 -117 -148 -200 -148c-84 0 -176 39 -161 148l62 442c15 110 118 149 202 149c83 0 174 -39 159 -149l-36 -257h-253l-26 -185c-6 -41 32 -56 65 -56s74 15 80 56l16 113h108zM214 416h145l23 163c6 42 -31 56 -64 56s-75 -15 -81 -56z
M447 759h-67l-40 53l-55 -53h-69l2 18l104 84h47l80 -84z" />
    <glyph glyph-name="edieresis" unicode="&#xeb;" 
d="M444 250l-16 -113c-15 -109 -117 -148 -200 -148c-84 0 -176 39 -161 148l62 442c15 110 118 149 202 149c83 0 174 -39 159 -149l-36 -257h-253l-26 -185c-6 -41 32 -56 65 -56s74 15 80 56l16 113h108zM214 416h145l23 163c6 42 -31 56 -64 56s-75 -15 -81 -56z
M313 844l-12 -83h-89l12 83h89zM463 844l-12 -83h-89l12 83h89z" />
    <glyph glyph-name="igrave" unicode="&#xec;" horiz-adv-x="235" 
d="M172 0h-108l101 716h108zM259 861l30 -100h-63l-53 83l2 17h84z" />
    <glyph glyph-name="iacute" unicode="&#xed;" horiz-adv-x="235" 
d="M172 0h-108l101 716h108zM325 844l-78 -83h-62l58 100h84z" />
    <glyph glyph-name="icircumflex" unicode="&#xee;" horiz-adv-x="235" 
d="M172 0h-108l101 716h108zM340 759h-67l-40 53l-55 -53h-69l2 18l104 84h47l80 -84z" />
    <glyph glyph-name="idieresis" unicode="&#xef;" horiz-adv-x="235" 
d="M172 0h-108l101 716h108zM207 844l-12 -83h-89l12 83h89zM357 844l-12 -83h-89l12 83h89z" />
    <glyph glyph-name="eth" unicode="&#xf0;" horiz-adv-x="512" 
d="M299 0h-197l47 333h-79l11 75h79l43 308h197c106 0 153 -75 141 -162l-55 -392c-12 -87 -80 -162 -187 -162zM378 163l55 390c5 39 -12 71 -65 71h-71l-30 -216h78l-11 -75h-78l-34 -241h71c53 0 80 33 85 71z" />
    <glyph glyph-name="ntilde" unicode="&#xf1;" horiz-adv-x="473" 
d="M425 0h-107l78 553c5 39 -12 71 -65 71h-71l-88 -624h-108l101 716h198c105 0 152 -75 140 -162zM453 851l25 -50c-20 -24 -50 -44 -78 -44c-18 0 -32 2 -51 11l-19 9c-14 6 -22 12 -35 12c-11 0 -18 -6 -49 -32l-25 50c20 27 50 41 80 44c16 1 34 -1 50 -11l18 -11
c16 -9 23 -10 32 -9c16 2 30 12 52 31z" />
    <glyph glyph-name="ograve" unicode="&#xf2;" horiz-adv-x="459" 
d="M320 137l62 442c6 41 -31 56 -64 56s-75 -14 -81 -56l-62 -442c-6 -41 32 -56 65 -56s74 15 80 56zM67 137l62 442c16 110 118 149 202 149c83 0 175 -39 159 -149l-62 -442c-15 -109 -117 -148 -200 -148c-84 0 -176 39 -161 148zM370 861l30 -100h-63l-53 83l2 17h84z
" />
    <glyph glyph-name="oacute" unicode="&#xf3;" horiz-adv-x="459" 
d="M320 137l62 442c6 41 -31 56 -64 56s-75 -14 -81 -56l-62 -442c-6 -41 32 -56 65 -56s74 15 80 56zM67 137l62 442c16 110 118 149 202 149c83 0 175 -39 159 -149l-62 -442c-15 -109 -117 -148 -200 -148c-84 0 -176 39 -161 148zM412 844l-78 -83h-62l58 100h84z" />
    <glyph glyph-name="ocircumflex" unicode="&#xf4;" horiz-adv-x="459" 
d="M320 137l62 442c6 41 -31 56 -64 56s-75 -14 -81 -56l-62 -442c-6 -41 32 -56 65 -56s74 15 80 56zM67 137l62 442c16 110 118 149 202 149c83 0 175 -39 159 -149l-62 -442c-15 -109 -117 -148 -200 -148c-84 0 -176 39 -161 148zM451 759h-67l-40 53l-55 -53h-69l2 18
l104 84h47l80 -84z" />
    <glyph glyph-name="otilde" unicode="&#xf5;" horiz-adv-x="459" 
d="M320 137l62 442c6 41 -31 56 -64 56s-75 -14 -81 -56l-62 -442c-6 -41 32 -56 65 -56s74 15 80 56zM67 137l62 442c16 110 118 149 202 149c83 0 175 -39 159 -149l-62 -442c-15 -109 -117 -148 -200 -148c-84 0 -176 39 -161 148zM445 851l25 -50
c-20 -24 -50 -44 -78 -44c-18 0 -32 2 -51 11l-19 9c-14 6 -22 12 -35 12c-11 0 -18 -6 -49 -32l-25 50c20 27 50 41 80 44c16 1 35 -1 51 -11l17 -11c16 -10 23 -10 32 -9c16 2 30 12 52 31z" />
    <glyph glyph-name="odieresis" unicode="&#xf6;" horiz-adv-x="459" 
d="M320 137l62 442c6 41 -31 56 -64 56s-75 -14 -81 -56l-62 -442c-6 -41 32 -56 65 -56s74 15 80 56zM67 137l62 442c16 110 118 149 202 149c83 0 175 -39 159 -149l-62 -442c-15 -109 -117 -148 -200 -148c-84 0 -176 39 -161 148zM318 844l-12 -83h-89l12 83h89z
M468 844l-12 -83h-89l12 83h89z" />
    <glyph glyph-name="divide" unicode="&#xf7;" horiz-adv-x="526" 
d="M540 413l-12 -86h-438l12 86h438zM393 588l-12 -85h-93l12 85h93zM343 237l-12 -86h-93l12 86h93z" />
    <glyph glyph-name="oslash" unicode="&#xf8;" horiz-adv-x="459" 
d="M62 -51l-36 22l51 88c-10 20 -14 46 -10 78l62 442c15 110 118 149 202 149c43 0 89 -11 120 -36l45 76l37 -23l-53 -89c10 -20 15 -46 10 -77l-62 -442c-15 -109 -117 -148 -200 -148c-44 0 -90 10 -122 35zM191 251l191 323v5c2 41 -31 56 -64 56s-75 -14 -81 -56z
M320 137l46 326l-190 -321l-1 -5c-8 -41 32 -56 65 -56s74 15 80 56z" />
    <glyph glyph-name="ugrave" unicode="&#xf9;" horiz-adv-x="473" 
d="M341 861l30 -100h-63l-53 83l2 17h84zM517 716l-81 -579c-15 -109 -117 -148 -200 -148c-84 0 -176 39 -161 148l81 579h108l-81 -579c-6 -41 32 -56 65 -56c34 0 75 15 81 56l81 579h107z" />
    <glyph glyph-name="uacute" unicode="&#xfa;" horiz-adv-x="473" 
d="M435 844l-78 -83h-62l58 100h84zM517 716l-81 -579c-15 -109 -117 -148 -200 -148c-84 0 -176 39 -161 148l81 579h108l-81 -579c-6 -41 32 -56 65 -56c34 0 75 15 81 56l81 579h107z" />
    <glyph glyph-name="ucircumflex" unicode="&#xfb;" horiz-adv-x="473" 
d="M459 759h-67l-40 53l-55 -53h-69l2 18l104 84h47l80 -84zM517 716l-81 -579c-15 -109 -117 -148 -200 -148c-84 0 -176 39 -161 148l81 579h108l-81 -579c-6 -41 32 -56 65 -56c34 0 75 15 81 56l81 579h107z" />
    <glyph glyph-name="udieresis" unicode="&#xfc;" horiz-adv-x="473" 
d="M325 844l-12 -83h-89l12 83h89zM475 844l-12 -83h-89l12 83h89zM517 716l-81 -579c-15 -109 -117 -148 -200 -148c-84 0 -176 39 -161 148l81 579h108l-81 -579c-6 -41 32 -56 65 -56c34 0 75 15 81 56l81 579h107z" />
    <glyph glyph-name="yacute" unicode="&#xfd;" horiz-adv-x="425" 
d="M515 698l-238 -582c-33 -83 -90 -123 -167 -123c-16 0 -33 4 -45 8l13 94c15 -5 28 -8 40 -8c28 0 44 13 55 38l26 63l-89 510l2 18h104l54 -377l145 377h102zM406 844l-77 -83h-62l58 100h84z" />
    <glyph glyph-name="thorn" unicode="&#xfe;" horiz-adv-x="464" 
d="M172 0h-108l101 716h108l-13 -93h77c114 0 178 -62 162 -176l-25 -176c-17 -117 -98 -177 -212 -177h-77zM366 271l25 176c5 39 -12 83 -68 83h-77l-48 -343h77c56 0 85 43 91 84z" />
    <glyph glyph-name="ydieresis" unicode="&#xff;" horiz-adv-x="425" 
d="M515 698l-238 -582c-33 -83 -90 -123 -167 -123c-16 0 -33 4 -45 8l13 94c15 -5 28 -8 40 -8c28 0 44 13 55 38l26 63l-89 510l2 18h104l54 -377l145 377h102zM449 844l-11 -83h-89l11 83h89zM299 844l-11 -83h-89l11 83h89z" />
    <glyph glyph-name="Amacron" unicode="&#x100;" horiz-adv-x="460" 
d="M451 0h-103l-12 155h-169l-55 -155h-103l3 18l265 698h108l69 -698zM328 249l-23 294l-104 -294h127zM485 844l-10 -65h-273l10 65h273z" />
    <glyph glyph-name="amacron" unicode="&#x101;" 
d="M398 0h-180c-84 0 -174 40 -159 150l11 84c17 126 120 152 205 172l75 18l22 156c6 41 -31 56 -64 56s-75 -15 -81 -56l-16 -112h-108l16 112c16 110 118 148 202 148c83 0 174 -38 159 -148zM304 94l33 236l-75 -18c-33 -7 -76 -21 -84 -78l-12 -84
c-6 -43 33 -56 66 -56h72zM471 844l-9 -65h-273l9 65h273z" />
    <glyph glyph-name="Abreve" unicode="&#x102;" horiz-adv-x="460" 
d="M451 0h-103l-12 155h-169l-55 -155h-103l3 18l265 698h108l69 -698zM328 249l-23 294l-104 -294h127zM463 861l-1 -10c-7 -61 -57 -96 -126 -96s-107 35 -100 96l1 10h71l-1 -10c-2 -22 9 -34 38 -34c28 0 46 12 48 34l1 10h69z" />
    <glyph glyph-name="abreve" unicode="&#x103;" 
d="M398 0h-180c-84 0 -174 40 -159 150l11 84c17 126 120 152 205 172l75 18l22 156c6 41 -31 56 -64 56s-75 -15 -81 -56l-16 -112h-108l16 112c16 110 118 148 202 148c83 0 174 -38 159 -148zM304 94l33 236l-75 -18c-33 -7 -76 -21 -84 -78l-12 -84
c-6 -43 33 -56 66 -56h72zM449 861l-1 -10c-7 -61 -57 -96 -126 -96s-107 35 -100 96l1 10h71l-1 -10c-2 -22 9 -34 38 -34c28 0 46 12 48 34l1 10h69z" />
    <glyph glyph-name="Aogonek" unicode="&#x104;" horiz-adv-x="460" 
d="M464 -127h-45c-48 0 -76 20 -76 52c0 24 16 48 50 75h-45l-12 155h-169l-55 -155h-103l3 18l265 698h108l69 -698l-3 -18c-43 -32 -51 -65 -4 -65h26zM328 249l-23 294l-104 -294h127z" />
    <glyph glyph-name="aogonek" unicode="&#x105;" 
d="M412 -127h-45c-48 0 -77 20 -77 52c0 24 17 48 50 75h-122c-84 0 -174 40 -159 150l11 84c17 126 120 152 205 172l75 18l22 156c6 41 -31 56 -64 56s-75 -15 -81 -56l-16 -112h-108l16 112c16 110 118 148 202 148c83 0 174 -38 159 -148l-82 -580
c-43 -32 -51 -65 -4 -65h26zM304 94l33 236l-75 -18c-33 -7 -76 -21 -84 -78l-12 -84c-6 -43 33 -56 66 -56h72z" />
    <glyph glyph-name="Cacute" unicode="&#x106;" 
d="M320 137l16 113h108l-16 -113c-15 -109 -117 -148 -200 -148c-84 0 -176 39 -161 148l62 442c15 110 118 149 202 149c83 0 175 -39 159 -149l-16 -113h-108l16 113c6 41 -31 56 -64 56s-75 -14 -81 -56l-62 -442c-6 -41 32 -56 65 -56s74 15 80 56zM428 844l-78 -83h-62
l58 100h84z" />
    <glyph glyph-name="cacute" unicode="&#x107;" 
d="M320 137l16 113h108l-16 -113c-15 -109 -117 -148 -200 -148c-84 0 -176 39 -161 148l62 442c15 110 118 149 202 149c83 0 175 -39 159 -149l-16 -113h-108l16 113c6 41 -31 56 -64 56s-75 -14 -81 -56l-62 -442c-6 -41 32 -56 65 -56s74 15 80 56zM428 844l-78 -83h-62
l58 100h84z" />
    <glyph glyph-name="Ccircumflex" unicode="&#x108;" 
d="M320 137l16 113h108l-16 -113c-15 -109 -117 -148 -200 -148c-84 0 -176 39 -161 148l62 442c15 110 118 149 202 149c83 0 175 -39 159 -149l-16 -113h-108l16 113c6 41 -31 56 -64 56s-75 -14 -81 -56l-62 -442c-6 -41 32 -56 65 -56s74 15 80 56zM447 759h-67l-40 53
l-55 -53h-69l2 18l104 84h47l80 -84z" />
    <glyph glyph-name="ccircumflex" unicode="&#x109;" 
d="M320 137l16 113h108l-16 -113c-15 -109 -117 -148 -200 -148c-84 0 -176 39 -161 148l62 442c15 110 118 149 202 149c83 0 175 -39 159 -149l-16 -113h-108l16 113c6 41 -31 56 -64 56s-75 -14 -81 -56l-62 -442c-6 -41 32 -56 65 -56s74 15 80 56zM447 759h-67l-40 53
l-55 -53h-69l2 18l104 84h47l80 -84z" />
    <glyph glyph-name="Cdotaccent" unicode="&#x10a;" 
d="M320 137l16 113h108l-16 -113c-15 -109 -117 -148 -200 -148c-84 0 -176 39 -161 148l62 442c15 110 118 149 202 149c83 0 175 -39 159 -149l-16 -113h-108l16 113c6 41 -31 56 -64 56s-75 -14 -81 -56l-62 -442c-6 -41 32 -56 65 -56s74 15 80 56zM388 844l-12 -83h-90
l12 83h90z" />
    <glyph glyph-name="cdotaccent" unicode="&#x10b;" 
d="M320 137l16 113h108l-16 -113c-15 -109 -117 -148 -200 -148c-84 0 -176 39 -161 148l62 442c15 110 118 149 202 149c83 0 175 -39 159 -149l-16 -113h-108l16 113c6 41 -31 56 -64 56s-75 -14 -81 -56l-62 -442c-6 -41 32 -56 65 -56s74 15 80 56zM388 844l-12 -83h-90
l12 83h90z" />
    <glyph glyph-name="Ccaron" unicode="&#x10c;" 
d="M320 137l16 113h108l-16 -113c-15 -109 -117 -148 -200 -148c-84 0 -176 39 -161 148l62 442c15 110 118 149 202 149c83 0 175 -39 159 -149l-16 -113h-108l16 113c6 41 -31 56 -64 56s-75 -14 -81 -56l-62 -442c-6 -41 32 -56 65 -56s74 15 80 56zM468 844l-105 -85
h-45l-81 85l2 17h69l40 -51l55 51h67z" />
    <glyph glyph-name="ccaron" unicode="&#x10d;" 
d="M320 137l16 113h108l-16 -113c-15 -109 -117 -148 -200 -148c-84 0 -176 39 -161 148l62 442c15 110 118 149 202 149c83 0 175 -39 159 -149l-16 -113h-108l16 113c6 41 -31 56 -64 56s-75 -14 -81 -56l-62 -442c-6 -41 32 -56 65 -56s74 15 80 56zM467 844l-105 -85
h-45l-81 85l2 17h69l40 -51l55 51h67z" />
    <glyph glyph-name="Dcaron" unicode="&#x10e;" horiz-adv-x="473" 
d="M341 163l55 390c5 39 -12 71 -65 71h-71l-75 -532h71c53 0 80 33 85 71zM262 0h-198l101 716h198c105 0 152 -75 140 -162l-55 -392c-12 -87 -81 -162 -186 -162zM471 844l-105 -85h-45l-81 85l2 17h69l40 -51l55 51h67z" />
    <glyph glyph-name="dcaron" unicode="&#x10f;" horiz-adv-x="473" 
d="M341 163l55 390c5 39 -12 71 -65 71h-71l-75 -532h71c53 0 80 33 85 71zM262 0h-198l101 716h198c105 0 152 -75 140 -162l-55 -392c-12 -87 -81 -162 -186 -162zM472 844l-105 -85h-45l-81 85l2 17h69l40 -51l55 51h67z" />
    <glyph glyph-name="Dcroat" unicode="&#x110;" horiz-adv-x="512" 
d="M299 0h-197l47 333h-79l11 75h79l43 308h197c106 0 153 -75 141 -162l-55 -392c-12 -87 -80 -162 -187 -162zM378 163l55 390c5 39 -12 71 -65 71h-71l-30 -216h78l-11 -75h-78l-34 -241h71c53 0 80 33 85 71z" />
    <glyph glyph-name="dcroat" unicode="&#x111;" horiz-adv-x="512" 
d="M299 0h-197l47 333h-79l11 75h79l43 308h197c106 0 153 -75 141 -162l-55 -392c-12 -87 -80 -162 -187 -162zM378 163l55 390c5 39 -12 71 -65 71h-71l-30 -216h78l-11 -75h-78l-34 -241h71c53 0 80 33 85 71z" />
    <glyph glyph-name="Emacron" unicode="&#x112;" horiz-adv-x="415" 
d="M394 94l-13 -94h-317l101 716h317l-13 -93h-209l-30 -207h173l-13 -93h-173l-32 -229h209zM463 844l-10 -65h-273l10 65h273z" />
    <glyph glyph-name="emacron" unicode="&#x113;" 
d="M444 250l-16 -113c-15 -109 -117 -148 -200 -148c-84 0 -176 39 -161 148l62 442c15 110 118 149 202 149c83 0 174 -39 159 -149l-36 -257h-253l-26 -185c-6 -41 32 -56 65 -56s74 15 80 56l16 113h108zM214 416h145l23 163c6 42 -31 56 -64 56s-75 -15 -81 -56z
M480 844l-9 -65h-273l9 65h273z" />
    <glyph glyph-name="Ebreve" unicode="&#x114;" horiz-adv-x="415" 
d="M394 94l-13 -94h-317l101 716h317l-13 -93h-209l-30 -207h173l-13 -93h-173l-32 -229h209zM470 861l-1 -10c-7 -61 -57 -96 -126 -96s-107 35 -100 96l1 10h71l-1 -10c-2 -22 9 -34 38 -34c28 0 46 12 48 34l1 10h69z" />
    <glyph glyph-name="ebreve" unicode="&#x115;" 
d="M444 250l-16 -113c-15 -109 -117 -148 -200 -148c-84 0 -176 39 -161 148l62 442c15 110 118 149 202 149c83 0 174 -39 159 -149l-36 -257h-253l-26 -185c-6 -41 32 -56 65 -56s74 15 80 56l16 113h108zM214 416h145l23 163c6 42 -31 56 -64 56s-75 -15 -81 -56z
M459 861l-1 -10c-7 -61 -57 -96 -126 -96s-107 35 -100 96l1 10h71l-1 -10c-2 -22 9 -34 38 -34c28 0 46 12 48 34l1 10h69z" />
    <glyph glyph-name="Edotaccent" unicode="&#x116;" horiz-adv-x="415" 
d="M394 94l-13 -94h-317l101 716h317l-13 -93h-209l-30 -207h173l-13 -93h-173l-32 -229h209zM371 844l-12 -83h-90l12 83h90z" />
    <glyph glyph-name="edotaccent" unicode="&#x117;" 
d="M444 250l-16 -113c-15 -109 -117 -148 -200 -148c-84 0 -176 39 -161 148l62 442c15 110 118 149 202 149c83 0 174 -39 159 -149l-36 -257h-253l-26 -185c-6 -41 32 -56 65 -56s74 15 80 56l16 113h108zM214 416h145l23 163c6 42 -31 56 -64 56s-75 -15 -81 -56z
M388 844l-12 -83h-90l12 83h90z" />
    <glyph glyph-name="Eogonek" unicode="&#x118;" horiz-adv-x="415" 
d="M372 -65l-9 -62h-44c-49 0 -76 19 -76 52c0 24 16 48 50 75h-229l101 716h317l-13 -93h-209l-30 -207h173l-13 -93h-173l-32 -229h209l-13 -94h-31c-43 -32 -50 -65 -3 -65h25z" />
    <glyph glyph-name="eogonek" unicode="&#x119;" 
d="M357 -127h-45c-48 0 -76 20 -76 52c0 22 14 44 42 69c-17 -3 -34 -5 -50 -5c-84 0 -176 39 -161 148l62 442c15 110 118 149 202 149c83 0 174 -39 159 -149l-36 -257h-253l-26 -185c-6 -41 32 -56 65 -56s74 15 80 56l16 113h108l-16 -113c-8 -58 -40 -96 -81 -119
c-44 -41 -54 -83 -6 -83h25zM360 416l22 163c6 42 -31 56 -64 56s-75 -15 -81 -56l-23 -163h146z" />
    <glyph glyph-name="Ecaron" unicode="&#x11a;" horiz-adv-x="415" 
d="M394 94l-13 -94h-317l101 716h317l-13 -93h-209l-30 -207h173l-13 -93h-173l-32 -229h209zM472 844l-105 -85h-45l-81 85l2 17h69l40 -51l55 51h67z" />
    <glyph glyph-name="ecaron" unicode="&#x11b;" 
d="M444 250l-16 -113c-15 -109 -117 -148 -200 -148c-84 0 -176 39 -161 148l62 442c15 110 118 149 202 149c83 0 174 -39 159 -149l-36 -257h-253l-26 -185c-6 -41 32 -56 65 -56s74 15 80 56l16 113h108zM214 416h145l23 163c6 42 -31 56 -64 56s-75 -15 -81 -56z
M459 844l-105 -85h-45l-81 85l2 17h69l40 -51l55 51h67z" />
    <glyph glyph-name="Gcircumflex" unicode="&#x11c;" horiz-adv-x="465" 
d="M320 137l23 163h-72l13 94h180l-36 -257c-15 -109 -117 -148 -200 -148c-84 0 -176 39 -161 148l62 442c15 110 118 149 202 149c83 0 175 -39 159 -149l-16 -113h-108l16 113c6 41 -31 56 -64 56s-75 -14 -81 -56l-62 -442c-6 -41 32 -56 65 -56s74 15 80 56zM455 759
h-67l-40 53l-55 -53h-69l2 18l104 84h47l80 -84z" />
    <glyph glyph-name="gcircumflex" unicode="&#x11d;" horiz-adv-x="465" 
d="M320 137l23 163h-72l13 94h180l-36 -257c-15 -109 -117 -148 -200 -148c-84 0 -176 39 -161 148l62 442c15 110 118 149 202 149c83 0 175 -39 159 -149l-16 -113h-108l16 113c6 41 -31 56 -64 56s-75 -14 -81 -56l-62 -442c-6 -41 32 -56 65 -56s74 15 80 56zM455 759
h-67l-40 53l-55 -53h-69l2 18l104 84h47l80 -84z" />
    <glyph glyph-name="Gbreve" unicode="&#x11e;" horiz-adv-x="465" 
d="M320 137l23 163h-72l13 94h180l-36 -257c-15 -109 -117 -148 -200 -148c-84 0 -176 39 -161 148l62 442c15 110 118 149 202 149c83 0 175 -39 159 -149l-16 -113h-108l16 113c6 41 -31 56 -64 56s-75 -14 -81 -56l-62 -442c-6 -41 32 -56 65 -56s74 15 80 56zM467 861
l-1 -10c-7 -61 -57 -96 -126 -96s-107 35 -100 96l1 10h71l-1 -10c-2 -22 9 -34 38 -34c28 0 46 12 48 34l1 10h69z" />
    <glyph glyph-name="gbreve" unicode="&#x11f;" horiz-adv-x="465" 
d="M320 137l23 163h-72l13 94h180l-36 -257c-15 -109 -117 -148 -200 -148c-84 0 -176 39 -161 148l62 442c15 110 118 149 202 149c83 0 175 -39 159 -149l-16 -113h-108l16 113c6 41 -31 56 -64 56s-75 -14 -81 -56l-62 -442c-6 -41 32 -56 65 -56s74 15 80 56zM467 861
l-1 -10c-7 -61 -57 -96 -126 -96s-107 35 -100 96l1 10h71l-1 -10c-2 -22 9 -34 38 -34c28 0 46 12 48 34l1 10h69z" />
    <glyph glyph-name="Gdotaccent" unicode="&#x120;" horiz-adv-x="465" 
d="M320 137l23 163h-72l13 94h180l-36 -257c-15 -109 -117 -148 -200 -148c-84 0 -176 39 -161 148l62 442c15 110 118 149 202 149c83 0 175 -39 159 -149l-16 -113h-108l16 113c6 41 -31 56 -64 56s-75 -14 -81 -56l-62 -442c-6 -41 32 -56 65 -56s74 15 80 56zM396 844
l-12 -83h-90l12 83h90z" />
    <glyph glyph-name="gdotaccent" unicode="&#x121;" horiz-adv-x="465" 
d="M320 137l23 163h-72l13 94h180l-36 -257c-15 -109 -117 -148 -200 -148c-84 0 -176 39 -161 148l62 442c15 110 118 149 202 149c83 0 175 -39 159 -149l-16 -113h-108l16 113c6 41 -31 56 -64 56s-75 -14 -81 -56l-62 -442c-6 -41 32 -56 65 -56s74 15 80 56zM396 844
l-12 -83h-90l12 83h90z" />
    <glyph glyph-name="uni0122" unicode="&#x122;" horiz-adv-x="465" 
d="M320 137l23 163h-72l13 94h180l-36 -257c-15 -109 -117 -148 -200 -148c-84 0 -176 39 -161 148l62 442c15 110 118 149 202 149c83 0 175 -39 159 -149l-16 -113h-108l16 113c6 41 -31 56 -64 56s-75 -14 -81 -56l-62 -442c-6 -41 32 -56 65 -56s74 15 80 56zM285 -85
l-77 -82h-62l58 100h84z" />
    <glyph glyph-name="uni0123" unicode="&#x123;" horiz-adv-x="465" 
d="M320 137l23 163h-72l13 94h180l-36 -257c-15 -109 -117 -148 -200 -148c-84 0 -176 39 -161 148l62 442c15 110 118 149 202 149c83 0 175 -39 159 -149l-16 -113h-108l16 113c6 41 -31 56 -64 56s-75 -14 -81 -56l-62 -442c-6 -41 32 -56 65 -56s74 15 80 56zM285 -85
l-77 -82h-62l58 100h84z" />
    <glyph glyph-name="Hcircumflex" unicode="&#x124;" horiz-adv-x="517" 
d="M554 716l-101 -716h-108l45 323h-173l-45 -323h-108l101 716h108l-43 -300h173l43 300h108zM481 759h-67l-40 53l-55 -53h-69l2 18l104 84h47l80 -84z" />
    <glyph glyph-name="hcircumflex" unicode="&#x125;" horiz-adv-x="517" 
d="M554 716l-101 -716h-108l45 323h-173l-45 -323h-108l101 716h108l-43 -300h173l43 300h108zM481 759h-67l-40 53l-55 -53h-69l2 18l104 84h47l80 -84z" />
    <glyph glyph-name="Hbar" unicode="&#x126;" horiz-adv-x="563" 
d="M546 496l-70 -496h-107l45 323h-174l-45 -323h-108l70 496h-64l9 65h64l22 155h108l-22 -155h174l22 155h107l-22 -155h64l-9 -65h-64zM253 416h174l12 80h-174z" />
    <glyph glyph-name="hbar" unicode="&#x127;" horiz-adv-x="563" 
d="M546 496l-70 -496h-107l45 323h-174l-45 -323h-108l70 496h-64l9 65h64l22 155h108l-22 -155h174l22 155h107l-22 -155h64l-9 -65h-64zM253 416h174l12 80h-174z" />
    <glyph glyph-name="Itilde" unicode="&#x128;" horiz-adv-x="235" 
d="M172 0h-108l101 716h108zM334 851l25 -50c-20 -24 -50 -44 -78 -44c-18 0 -32 2 -51 11l-19 9c-14 6 -22 12 -35 12c-11 0 -18 -6 -49 -32l-25 50c20 27 50 41 80 44c16 1 34 -1 50 -11l18 -11c16 -9 23 -10 32 -9c16 2 30 12 52 31z" />
    <glyph glyph-name="itilde" unicode="&#x129;" horiz-adv-x="235" 
d="M172 0h-108l101 716h108zM334 851l25 -50c-20 -24 -50 -44 -78 -44c-18 0 -32 2 -51 11l-19 9c-14 6 -22 12 -35 12c-11 0 -18 -6 -49 -32l-25 50c20 27 50 41 80 44c16 1 34 -1 50 -11l18 -11c16 -9 23 -10 32 -9c16 2 30 12 52 31z" />
    <glyph glyph-name="Imacron" unicode="&#x12a;" horiz-adv-x="235" 
d="M172 0h-108l101 716h108zM374 844l-10 -65h-273l10 65h273z" />
    <glyph glyph-name="imacron" unicode="&#x12b;" horiz-adv-x="235" 
d="M172 0h-108l101 716h108zM374 844l-10 -65h-273l10 65h273z" />
    <glyph glyph-name="Ibreve" unicode="&#x12c;" horiz-adv-x="235" 
d="M172 0h-108l101 716h108zM352 861l-1 -10c-7 -61 -57 -96 -126 -96s-107 35 -100 96l1 10h71l-1 -10c-2 -22 9 -34 38 -34c28 0 46 12 48 34l1 10h69z" />
    <glyph glyph-name="ibreve" unicode="&#x12d;" horiz-adv-x="235" 
d="M172 0h-108l101 716h108zM352 861l-1 -10c-7 -61 -57 -96 -126 -96s-107 35 -100 96l1 10h71l-1 -10c-2 -22 9 -34 38 -34c28 0 46 12 48 34l1 10h69z" />
    <glyph glyph-name="Iogonek" unicode="&#x12e;" horiz-adv-x="235" 
d="M184 -127h-45c-47 0 -75 20 -75 52c0 24 17 48 49 75h-49l101 716h108l-101 -716c-43 -32 -51 -65 -3 -65h24z" />
    <glyph glyph-name="iogonek" unicode="&#x12f;" horiz-adv-x="235" 
d="M184 -127h-45c-47 0 -75 20 -75 52c0 24 17 48 49 75h-49l101 716h108l-101 -716c-43 -32 -51 -65 -3 -65h24z" />
    <glyph glyph-name="Idotaccent" unicode="&#x130;" horiz-adv-x="235" 
d="M172 0h-108l101 716h108zM282 844l-12 -83h-90l12 83h90z" />
    <glyph glyph-name="dotlessi" unicode="&#x131;" horiz-adv-x="235" 
d="M172 0h-108l101 716h108z" />
    <glyph glyph-name="IJ" unicode="&#x132;" horiz-adv-x="636" 
d="M172 0h-108l101 716h108zM488 129l82 587h108l-82 -587c-15 -105 -110 -140 -187 -140s-162 35 -147 140l17 121h108l-17 -121c-5 -35 24 -48 52 -48s61 13 66 48z" />
    <glyph glyph-name="ij" unicode="&#x133;" horiz-adv-x="636" 
d="M172 0h-108l101 716h108zM488 129l69 494h-172l13 93h280l-82 -587c-15 -105 -110 -140 -187 -140s-162 35 -147 140l17 121h108l-17 -121c-5 -35 24 -48 52 -48s61 13 66 48z" />
    <glyph glyph-name="Jcircumflex" unicode="&#x134;" horiz-adv-x="399" 
d="M253 129l82 587h108l-82 -587c-15 -105 -110 -140 -187 -140s-162 35 -147 140l17 121h108l-17 -121c-5 -35 24 -48 52 -48s61 13 66 48zM511 759h-67l-39 53l-56 -53h-69l3 18l104 84h47l80 -84z" />
    <glyph glyph-name="jcircumflex" unicode="&#x135;" horiz-adv-x="399" 
d="M253 129l69 494h-173l13 93h281l-82 -587c-15 -105 -110 -140 -187 -140s-162 35 -147 140l17 121h108l-17 -121c-5 -35 24 -48 52 -48s61 13 66 48zM426 759h-67l-39 53l-56 -53h-69l3 18l104 84h47l80 -84z" />
    <glyph glyph-name="uni0136" unicode="&#x136;" horiz-adv-x="464" 
d="M455 0h-106l-97 302l-47 -64l-33 -238h-108l101 716h108l-40 -284l208 284h107l-3 -18l-221 -298l134 -382zM292 -85l-77 -82h-62l58 100h84z" />
    <glyph glyph-name="uni0137" unicode="&#x137;" horiz-adv-x="464" 
d="M455 0h-106l-97 302l-47 -64l-33 -238h-108l101 716h108l-40 -284l208 284h107l-3 -18l-221 -298l134 -382zM292 -85l-77 -82h-62l58 100h84z" />
    <glyph glyph-name="kgreenlandic" unicode="&#x138;" horiz-adv-x="464" 
d="M455 0h-106l-97 302l-47 -64l-33 -238h-108l101 716h108l-40 -284l208 284h107l-3 -18l-221 -298l134 -382z" />
    <glyph glyph-name="Lacute" unicode="&#x139;" horiz-adv-x="389" 
d="M381 0h-317l101 716h108l-88 -622h209zM340 844l-78 -83h-62l58 100h84z" />
    <glyph glyph-name="lacute" unicode="&#x13a;" horiz-adv-x="389" 
d="M381 0h-317l101 716h108l-88 -622h209zM333 844l-78 -83h-62l58 100h84z" />
    <glyph glyph-name="uni013B" unicode="&#x13b;" horiz-adv-x="389" 
d="M381 0h-317l101 716h108l-88 -622h209zM247 -85l-77 -82h-62l58 100h84z" />
    <glyph glyph-name="uni013C" unicode="&#x13c;" horiz-adv-x="389" 
d="M381 0h-317l101 716h108l-88 -622h209zM247 -85l-77 -82h-62l58 100h84z" />
    <glyph glyph-name="Lcaron" unicode="&#x13d;" horiz-adv-x="389" 
d="M381 0h-317l101 716h108l-88 -622h209zM364 531l6 43c29 0 50 14 56 56h-48l12 86h92l-12 -86c-10 -73 -57 -99 -106 -99z" />
    <glyph glyph-name="lcaron" unicode="&#x13e;" horiz-adv-x="389" 
d="M381 0h-317l101 716h108l-88 -622h209zM364 531l6 43c29 0 50 14 56 56h-48l12 86h92l-12 -86c-10 -73 -57 -99 -106 -99z" />
    <glyph glyph-name="Ldot" unicode="&#x13f;" horiz-adv-x="389" 
d="M381 0h-317l101 716h108l-88 -622h209zM410 210h-115l15 108h115z" />
    <glyph glyph-name="ldot" unicode="&#x140;" horiz-adv-x="389" 
d="M381 0h-317l101 716h108l-88 -622h209zM410 210h-115l15 108h115z" />
    <glyph glyph-name="Lslash" unicode="&#x141;" horiz-adv-x="446" 
d="M437 0h-317l42 296l-72 -31l-21 59l103 45l49 347h107l-42 -297l122 54l21 -60l-153 -67l-35 -252h210z" />
    <glyph glyph-name="lslash" unicode="&#x142;" horiz-adv-x="446" 
d="M437 0h-317l42 296l-72 -31l-21 59l103 45l49 347h107l-42 -297l122 54l21 -60l-153 -67l-35 -252h210z" />
    <glyph glyph-name="Nacute" unicode="&#x143;" horiz-adv-x="516" 
d="M451 0h-98l-118 451l-63 -451h-108l101 716h99l117 -451l64 451h107zM461 844l-78 -83h-62l58 100h84z" />
    <glyph glyph-name="nacute" unicode="&#x144;" horiz-adv-x="473" 
d="M425 0h-107l78 553c5 39 -12 71 -65 71h-71l-88 -624h-108l101 716h198c105 0 152 -75 140 -162zM420 844l-78 -83h-62l58 100h84z" />
    <glyph glyph-name="uni0145" unicode="&#x145;" horiz-adv-x="516" 
d="M451 0h-98l-118 451l-63 -451h-108l101 716h99l117 -451l64 451h107zM310 -85l-77 -82h-62l58 100h84z" />
    <glyph glyph-name="uni0146" unicode="&#x146;" horiz-adv-x="473" 
d="M425 0h-107l78 553c5 39 -12 71 -65 71h-71l-88 -624h-108l101 716h198c105 0 152 -75 140 -162zM289 -85l-77 -82h-62l58 100h84z" />
    <glyph glyph-name="Ncaron" unicode="&#x147;" horiz-adv-x="516" 
d="M451 0h-98l-118 451l-63 -451h-108l101 716h99l117 -451l64 451h107zM492 844l-105 -85h-45l-81 85l2 17h69l40 -51l55 51h67z" />
    <glyph glyph-name="ncaron" unicode="&#x148;" horiz-adv-x="473" 
d="M425 0h-107l78 553c5 39 -12 71 -65 71h-71l-88 -624h-108l101 716h198c105 0 152 -75 140 -162zM471 844l-105 -85h-45l-81 85l2 17h69l40 -51l55 51h67z" />
    <glyph glyph-name="napostrophe" unicode="&#x149;" horiz-adv-x="473" 
d="M425 0h-107l78 553c5 39 -12 71 -65 71h-71l-88 -624h-108l101 716h198c105 0 152 -75 140 -162zM323 872l-78 -82h-62l58 100h84z" />
    <glyph glyph-name="Eng" unicode="&#x14a;" horiz-adv-x="516" 
d="M250 -149l13 94c38 0 84 13 90 55l-116 460l-65 -460h-108l101 716h99l116 -460l65 460h107l-101 -716c-15 -110 -118 -149 -201 -149z" />
    <glyph glyph-name="eng" unicode="&#x14b;" horiz-adv-x="473" 
d="M223 -149l13 94c34 0 76 13 82 55l78 553c5 39 -12 71 -65 71h-71l-88 -624h-108l101 716h198c105 0 152 -75 140 -162l-78 -554c-15 -110 -118 -149 -202 -149z" />
    <glyph glyph-name="Omacron" unicode="&#x14c;" horiz-adv-x="459" 
d="M320 137l62 442c6 41 -31 56 -64 56s-75 -14 -81 -56l-62 -442c-6 -41 32 -56 65 -56s74 15 80 56zM67 137l62 442c16 110 118 149 202 149c83 0 175 -39 159 -149l-62 -442c-15 -109 -117 -148 -200 -148c-84 0 -176 39 -161 148zM485 844l-9 -65h-273l9 65h273z" />
    <glyph glyph-name="omacron" unicode="&#x14d;" horiz-adv-x="459" 
d="M320 137l62 442c6 41 -31 56 -64 56s-75 -14 -81 -56l-62 -442c-6 -41 32 -56 65 -56s74 15 80 56zM67 137l62 442c16 110 118 149 202 149c83 0 175 -39 159 -149l-62 -442c-15 -109 -117 -148 -200 -148c-84 0 -176 39 -161 148zM485 844l-9 -65h-273l9 65h273z" />
    <glyph glyph-name="Obreve" unicode="&#x14e;" horiz-adv-x="459" 
d="M320 137l62 442c6 41 -31 56 -64 56s-75 -14 -81 -56l-62 -442c-6 -41 32 -56 65 -56s74 15 80 56zM67 137l62 442c16 110 118 149 202 149c83 0 175 -39 159 -149l-62 -442c-15 -109 -117 -148 -200 -148c-84 0 -176 39 -161 148zM463 861l-1 -10
c-7 -61 -57 -96 -126 -96s-107 35 -100 96l1 10h71l-1 -10c-2 -22 9 -34 38 -34c28 0 46 12 48 34l1 10h69z" />
    <glyph glyph-name="obreve" unicode="&#x14f;" horiz-adv-x="459" 
d="M320 137l62 442c6 41 -31 56 -64 56s-75 -14 -81 -56l-62 -442c-6 -41 32 -56 65 -56s74 15 80 56zM67 137l62 442c16 110 118 149 202 149c83 0 175 -39 159 -149l-62 -442c-15 -109 -117 -148 -200 -148c-84 0 -176 39 -161 148zM463 861l-1 -10
c-7 -61 -57 -96 -126 -96s-107 35 -100 96l1 10h71l-1 -10c-2 -22 9 -34 38 -34c28 0 46 12 48 34l1 10h69z" />
    <glyph glyph-name="Ohungarumlaut" unicode="&#x150;" horiz-adv-x="459" 
d="M320 137l62 442c6 41 -31 56 -64 56s-75 -14 -81 -56l-62 -442c-6 -41 32 -56 65 -56s74 15 80 56zM67 137l62 442c16 110 118 149 202 149c83 0 175 -39 159 -149l-62 -442c-15 -109 -117 -148 -200 -148c-84 0 -176 39 -161 148zM370 844l-77 -83h-64l58 100h85z
M488 844l-76 -83h-64l58 100h84z" />
    <glyph glyph-name="ohungarumlaut" unicode="&#x151;" horiz-adv-x="459" 
d="M320 137l62 442c6 41 -31 56 -64 56s-75 -14 -81 -56l-62 -442c-6 -41 32 -56 65 -56s74 15 80 56zM67 137l62 442c16 110 118 149 202 149c83 0 175 -39 159 -149l-62 -442c-15 -109 -117 -148 -200 -148c-84 0 -176 39 -161 148zM381 844l-77 -83h-64l58 100h85z
M499 844l-76 -83h-64l58 100h84z" />
    <glyph glyph-name="OE" unicode="&#x152;" horiz-adv-x="652" 
d="M618 0h-315c-25 -7 -51 -11 -75 -11c-84 0 -176 39 -161 148l62 442c15 110 118 149 202 149c25 0 52 -4 76 -12h312l-13 -93h-209l-29 -207h174l-14 -93h-174l-32 -229h209zM320 137l62 442c6 41 -31 56 -64 56s-75 -14 -81 -56l-62 -442c-6 -41 32 -56 65 -56
s74 15 80 56z" />
    <glyph glyph-name="oe" unicode="&#x153;" horiz-adv-x="703" 
d="M574 137l17 124h107l-17 -124c-15 -109 -118 -148 -195 -148c-50 0 -99 16 -125 56c-35 -40 -89 -56 -138 -56c-77 0 -171 39 -156 148l62 442c15 110 120 149 197 149c49 0 99 -16 123 -57c37 41 90 57 140 57c77 0 169 -39 154 -149l-36 -257h-253l-26 -185
c-6 -41 32 -56 65 -56c34 0 75 15 81 56zM320 137l62 442c6 41 -31 56 -64 56s-75 -14 -81 -56l-62 -442c-6 -41 32 -56 65 -56s74 15 80 56zM613 416l23 163c6 42 -31 56 -65 56c-33 0 -75 -14 -81 -56l-23 -163h146z" />
    <glyph glyph-name="Racute" unicode="&#x154;" horiz-adv-x="481" 
d="M443 0h-111l-49 287h-71l-40 -287h-108l101 716h193c105 0 164 -57 148 -168l-12 -88c-10 -69 -43 -118 -106 -151l58 -291zM387 461l12 88c5 35 -10 74 -54 74h-85l-34 -242h85c44 0 71 45 76 80zM423 844l-78 -83h-62l58 100h84z" />
    <glyph glyph-name="racute" unicode="&#x155;" horiz-adv-x="481" 
d="M449 844l-78 -83h-62l58 100h84zM443 0h-111l-49 287h-71l-40 -287h-108l101 716h193c105 0 164 -57 148 -168l-12 -88c-10 -69 -43 -118 -106 -151l58 -291zM387 461l12 88c5 35 -10 74 -54 74h-85l-34 -242h85c44 0 71 45 76 80z" />
    <glyph glyph-name="uni0156" unicode="&#x156;" horiz-adv-x="481" 
d="M443 0h-111l-49 287h-71l-40 -287h-108l101 716h193c105 0 164 -57 148 -168l-12 -88c-10 -69 -43 -118 -106 -151l58 -291zM387 461l12 88c5 35 -10 74 -54 74h-85l-34 -242h85c44 0 71 45 76 80zM292 -85l-77 -82h-62l58 100h84z" />
    <glyph glyph-name="uni0157" unicode="&#x157;" horiz-adv-x="481" 
d="M292 -85l-77 -82h-62l58 100h84zM443 0h-111l-49 287h-71l-40 -287h-108l101 716h193c105 0 164 -57 148 -168l-12 -88c-10 -69 -43 -118 -106 -151l58 -291zM387 461l12 88c5 35 -10 74 -54 74h-85l-34 -242h85c44 0 71 45 76 80z" />
    <glyph glyph-name="Rcaron" unicode="&#x158;" horiz-adv-x="481" 
d="M443 0h-111l-49 287h-71l-40 -287h-108l101 716h193c105 0 164 -57 148 -168l-12 -88c-10 -69 -43 -118 -106 -151l58 -291zM387 461l12 88c5 35 -10 74 -54 74h-85l-34 -242h85c44 0 71 45 76 80zM463 844l-105 -85h-45l-81 85l2 17h69l40 -51l55 51h67z" />
    <glyph glyph-name="rcaron" unicode="&#x159;" horiz-adv-x="481" 
d="M474 844l-105 -85h-45l-81 85l2 17h69l40 -51l55 51h67zM443 0h-111l-49 287h-71l-40 -287h-108l101 716h193c105 0 164 -57 148 -168l-12 -88c-10 -69 -43 -118 -106 -151l58 -291zM387 461l12 88c5 35 -10 74 -54 74h-85l-34 -242h85c44 0 71 45 76 80z" />
    <glyph glyph-name="Sacute" unicode="&#x15a;" horiz-adv-x="429" 
d="M415 188l-7 -51c-15 -109 -116 -148 -200 -148s-175 39 -160 148l16 113h107l-16 -113c-6 -41 32 -56 65 -56c34 0 76 15 82 56l7 51c9 67 5 87 -57 117c-96 48 -165 78 -145 223l7 51c15 110 116 149 197 149c82 0 171 -39 155 -149l-16 -113h-107l16 113
c6 41 -29 56 -61 56c-31 0 -70 -14 -76 -56l-7 -51c-9 -65 -2 -91 52 -116c105 -49 167 -83 148 -224zM398 844l-78 -83h-62l58 100h84z" />
    <glyph glyph-name="sacute" unicode="&#x15b;" horiz-adv-x="429" 
d="M415 188l-7 -51c-15 -109 -116 -148 -200 -148s-175 39 -160 148l16 113h107l-16 -113c-6 -41 32 -56 65 -56c34 0 76 15 82 56l7 51c9 67 5 87 -57 117c-96 48 -165 78 -145 223l7 51c15 110 116 149 197 149c82 0 171 -39 155 -149l-16 -113h-107l16 113
c6 41 -29 56 -61 56c-31 0 -70 -14 -76 -56l-7 -51c-9 -65 -2 -91 52 -116c105 -49 167 -83 148 -224zM398 844l-78 -83h-62l58 100h84z" />
    <glyph glyph-name="Scircumflex" unicode="&#x15c;" horiz-adv-x="429" 
d="M415 188l-7 -51c-15 -109 -116 -148 -200 -148s-175 39 -160 148l16 113h107l-16 -113c-6 -41 32 -56 65 -56c34 0 76 15 82 56l7 51c9 67 5 87 -57 117c-96 48 -165 78 -145 223l7 51c15 110 116 149 197 149c82 0 171 -39 155 -149l-16 -113h-107l16 113
c6 41 -29 56 -61 56c-31 0 -70 -14 -76 -56l-7 -51c-9 -65 -2 -91 52 -116c105 -49 167 -83 148 -224zM437 759h-67l-40 53l-55 -53h-69l2 18l104 84h47l80 -84z" />
    <glyph glyph-name="scircumflex" unicode="&#x15d;" horiz-adv-x="429" 
d="M415 188l-7 -51c-15 -109 -116 -148 -200 -148s-175 39 -160 148l16 113h107l-16 -113c-6 -41 32 -56 65 -56c34 0 76 15 82 56l7 51c9 67 5 87 -57 117c-96 48 -165 78 -145 223l7 51c15 110 116 149 197 149c82 0 171 -39 155 -149l-16 -113h-107l16 113
c6 41 -29 56 -61 56c-31 0 -70 -14 -76 -56l-7 -51c-9 -65 -2 -91 52 -116c105 -49 167 -83 148 -224zM437 759h-67l-40 53l-55 -53h-69l2 18l104 84h47l80 -84z" />
    <glyph glyph-name="Scedilla" unicode="&#x15e;" horiz-adv-x="429" 
d="M210 -118h-103l2 18l71 90c-75 8 -145 50 -131 147l16 113h107l-16 -113c-6 -41 32 -56 65 -56c34 0 76 15 82 56l7 51c9 67 3 85 -58 118c-97 45 -164 77 -144 222l7 51c15 110 116 149 197 149c82 0 171 -39 155 -149l-16 -113h-107l16 113c6 41 -29 56 -61 56
c-31 0 -70 -14 -76 -56l-7 -51c-9 -65 -2 -90 51 -117c106 -47 168 -82 149 -223l-7 -51c-12 -84 -75 -127 -142 -141z" />
    <glyph glyph-name="scedilla" unicode="&#x15f;" horiz-adv-x="429" 
d="M210 -118h-103l2 18l71 90c-75 8 -145 50 -131 147l16 113h107l-16 -113c-6 -41 32 -56 65 -56c34 0 76 15 82 56l7 51c9 67 3 85 -58 118c-97 45 -164 77 -144 222l7 51c15 110 116 149 197 149c82 0 171 -39 155 -149l-16 -113h-107l16 113c6 41 -29 56 -61 56
c-31 0 -70 -14 -76 -56l-7 -51c-9 -65 -2 -90 51 -117c106 -47 168 -82 149 -223l-7 -51c-12 -84 -75 -127 -142 -141z" />
    <glyph glyph-name="Scaron" unicode="&#x160;" horiz-adv-x="429" 
d="M415 188l-7 -51c-15 -109 -116 -148 -200 -148s-175 39 -160 148l16 113h107l-16 -113c-6 -41 32 -56 65 -56c34 0 76 15 82 56l7 51c9 67 5 87 -57 117c-96 48 -165 78 -145 223l7 51c15 110 116 149 197 149c82 0 171 -39 155 -149l-16 -113h-107l16 113
c6 41 -29 56 -61 56c-31 0 -70 -14 -76 -56l-7 -51c-9 -65 -2 -91 52 -116c105 -49 167 -83 148 -224zM449 844l-105 -85h-45l-81 85l2 17h69l40 -51l55 51h67z" />
    <glyph glyph-name="scaron" unicode="&#x161;" horiz-adv-x="429" 
d="M415 188l-7 -51c-15 -109 -116 -148 -200 -148s-175 39 -160 148l16 113h107l-16 -113c-6 -41 32 -56 65 -56c34 0 76 15 82 56l7 51c9 67 5 87 -57 117c-96 48 -165 78 -145 223l7 51c15 110 116 149 197 149c82 0 171 -39 155 -149l-16 -113h-107l16 113
c6 41 -29 56 -61 56c-31 0 -70 -14 -76 -56l-7 -51c-9 -65 -2 -91 52 -116c105 -49 167 -83 148 -224zM449 844l-105 -85h-45l-81 85l2 17h69l40 -51l55 51h67z" />
    <glyph glyph-name="uni0162" unicode="&#x162;" horiz-adv-x="370" 
d="M178 -118h-103l3 18l79 100h-26l87 623h-122l13 93h352l-13 -93h-122l-87 -623z" />
    <glyph glyph-name="uni0163" unicode="&#x163;" horiz-adv-x="370" 
d="M178 -118h-103l3 18l79 100h-26l87 623h-122l13 93h352l-13 -93h-122l-87 -623z" />
    <glyph glyph-name="Tcaron" unicode="&#x164;" horiz-adv-x="370" 
d="M239 0h-108l88 623h-122l13 93h352l-13 -93h-122zM419 844l-105 -85h-45l-81 85l2 17h69l40 -51l55 51h67z" />
    <glyph glyph-name="tcaron" unicode="&#x165;" horiz-adv-x="370" 
d="M239 0h-108l88 623h-122l13 93h352l-13 -93h-122zM419 844l-105 -85h-45l-81 85l2 17h69l40 -51l55 51h67z" />
    <glyph glyph-name="Tbar" unicode="&#x166;" horiz-adv-x="370" 
d="M239 0h-108l44 316h-84l9 65h84l34 242h-122l13 93h352l-13 -93h-122l-34 -242h83l-9 -65h-83z" />
    <glyph glyph-name="tbar" unicode="&#x167;" horiz-adv-x="370" 
d="M239 0h-108l44 316h-84l9 65h84l34 242h-122l13 93h352l-13 -93h-122l-34 -242h83l-9 -65h-83z" />
    <glyph glyph-name="Utilde" unicode="&#x168;" horiz-adv-x="473" 
d="M517 716l-81 -579c-15 -109 -117 -148 -200 -148c-84 0 -176 39 -161 148l81 579h108l-81 -579c-6 -41 32 -56 65 -56c34 0 75 15 81 56l81 579h107zM452 851l25 -50c-20 -24 -50 -44 -78 -44c-18 0 -32 2 -51 11l-19 9c-14 6 -22 12 -35 12c-11 0 -18 -6 -49 -32l-25 50
c20 27 50 41 80 44c16 1 35 -1 51 -11l17 -11c16 -10 23 -10 32 -9c16 2 30 12 52 31z" />
    <glyph glyph-name="utilde" unicode="&#x169;" horiz-adv-x="473" 
d="M453 851l25 -50c-20 -24 -50 -44 -78 -44c-18 0 -32 2 -51 11l-19 9c-14 6 -22 12 -35 12c-11 0 -18 -6 -49 -32l-25 50c20 27 50 41 80 44c16 1 35 -1 51 -11l17 -11c16 -10 23 -10 32 -9c16 2 30 12 52 31zM517 716l-81 -579c-15 -109 -117 -148 -200 -148
c-84 0 -176 39 -161 148l81 579h108l-81 -579c-6 -41 32 -56 65 -56c34 0 75 15 81 56l81 579h107z" />
    <glyph glyph-name="Umacron" unicode="&#x16a;" horiz-adv-x="473" 
d="M517 716l-81 -579c-15 -109 -117 -148 -200 -148c-84 0 -176 39 -161 148l81 579h108l-81 -579c-6 -41 32 -56 65 -56c34 0 75 15 81 56l81 579h107zM491 844l-9 -65h-273l9 65h273z" />
    <glyph glyph-name="umacron" unicode="&#x16b;" horiz-adv-x="473" 
d="M492 844l-9 -65h-273l9 65h273zM517 716l-81 -579c-15 -109 -117 -148 -200 -148c-84 0 -176 39 -161 148l81 579h108l-81 -579c-6 -41 32 -56 65 -56c34 0 75 15 81 56l81 579h107z" />
    <glyph glyph-name="Ubreve" unicode="&#x16c;" horiz-adv-x="473" 
d="M517 716l-81 -579c-15 -109 -117 -148 -200 -148c-84 0 -176 39 -161 148l81 579h108l-81 -579c-6 -41 32 -56 65 -56c34 0 75 15 81 56l81 579h107zM470 861l-1 -10c-7 -61 -57 -96 -126 -96s-107 35 -100 96l1 10h71l-1 -10c-2 -22 9 -34 38 -34c28 0 46 12 48 34l1 10
h69z" />
    <glyph glyph-name="ubreve" unicode="&#x16d;" horiz-adv-x="473" 
d="M471 861l-1 -10c-7 -61 -57 -96 -126 -96s-107 35 -100 96l1 10h71l-1 -10c-2 -22 9 -34 38 -34c28 0 46 12 48 34l1 10h69zM517 716l-81 -579c-15 -109 -117 -148 -200 -148c-84 0 -176 39 -161 148l81 579h108l-81 -579c-6 -41 32 -56 65 -56c34 0 75 15 81 56l81 579
h107z" />
    <glyph glyph-name="Uring" unicode="&#x16e;" horiz-adv-x="473" 
d="M517 716l-81 -579c-15 -109 -117 -148 -200 -148c-84 0 -176 39 -161 148l81 579h108l-81 -579c-6 -41 32 -56 65 -56c34 0 75 15 81 56l81 579h107zM281 805c6 38 40 68 78 68c35 0 60 -26 60 -60c0 -41 -38 -76 -79 -76c-38 0 -64 31 -59 68zM325 805
c-2 -13 8 -24 21 -24c14 0 28 12 28 26c0 12 -9 22 -21 22c-13 0 -26 -11 -28 -24z" />
    <glyph glyph-name="uring" unicode="&#x16f;" horiz-adv-x="473" 
d="M282 805c6 38 40 68 78 68c35 0 60 -26 60 -60c0 -41 -38 -76 -79 -76c-38 0 -64 31 -59 68zM326 805c-2 -13 8 -24 21 -24c14 0 28 12 28 26c0 12 -9 22 -21 22c-13 0 -26 -11 -28 -24zM517 716l-81 -579c-15 -109 -117 -148 -200 -148c-84 0 -176 39 -161 148l81 579
h108l-81 -579c-6 -41 32 -56 65 -56c34 0 75 15 81 56l81 579h107z" />
    <glyph glyph-name="Uhungarumlaut" unicode="&#x170;" horiz-adv-x="473" 
d="M517 716l-81 -579c-15 -109 -117 -148 -200 -148c-84 0 -176 39 -161 148l81 579h108l-81 -579c-6 -41 32 -56 65 -56c34 0 75 15 81 56l81 579h107zM376 844l-77 -83h-64l58 100h85zM494 844l-76 -83h-64l58 100h84z" />
    <glyph glyph-name="uhungarumlaut" unicode="&#x171;" horiz-adv-x="473" 
d="M367 844l-77 -83h-64l58 100h85zM485 844l-76 -83h-64l58 100h84zM517 716l-81 -579c-15 -109 -117 -148 -200 -148c-84 0 -176 39 -161 148l81 579h108l-81 -579c-6 -41 32 -56 65 -56c34 0 75 15 81 56l81 579h107z" />
    <glyph glyph-name="Uogonek" unicode="&#x172;" horiz-adv-x="473" 
d="M374 -65l-9 -62h-45c-48 0 -76 20 -76 52c0 22 14 44 42 69c-17 -3 -34 -5 -50 -5c-84 0 -176 39 -161 148l81 579h108l-81 -579c-6 -41 32 -56 65 -56c34 0 75 15 81 56l81 579h107l-81 -579c-8 -58 -40 -96 -81 -119c-45 -41 -54 -83 -5 -83h24z" />
    <glyph glyph-name="uogonek" unicode="&#x173;" horiz-adv-x="473" 
d="M374 -65l-9 -62h-45c-48 0 -76 20 -76 52c0 22 14 44 42 69c-17 -3 -34 -5 -50 -5c-84 0 -176 39 -161 148l81 579h108l-81 -579c-6 -41 32 -56 65 -56c34 0 75 15 81 56l81 579h107l-81 -579c-8 -58 -40 -96 -81 -119c-45 -41 -54 -83 -5 -83h24z" />
    <glyph glyph-name="Wcircumflex" unicode="&#x174;" horiz-adv-x="667" 
d="M740 698l-225 -698h-99l-28 387l-137 -387h-99l-30 698l3 18h99l13 -489l134 400h102l22 -399l149 488h99zM556 759h-67l-40 53l-55 -53h-69l2 18l104 84h47l80 -84z" />
    <glyph glyph-name="wcircumflex" unicode="&#x175;" horiz-adv-x="640" 
d="M692 716l-82 -587c-15 -105 -108 -140 -177 -140c-43 0 -85 13 -108 48c-32 -35 -78 -48 -120 -48c-71 0 -154 35 -139 140l82 587h108l-82 -587c-5 -35 24 -48 48 -48s57 13 62 48l82 587h108l-82 -587c-5 -35 24 -48 48 -48c25 0 58 13 63 48l82 587h107zM542 759h-67
l-39 53l-56 -53h-69l3 18l104 84h47l80 -84z" />
    <glyph glyph-name="Ycircumflex" unicode="&#x176;" horiz-adv-x="422" 
d="M265 0h-108l39 278l-89 420l3 18h98l61 -306l148 306h98l-3 -18l-208 -423zM433 759h-67l-40 53l-55 -53h-69l2 18l104 84h47l80 -84z" />
    <glyph glyph-name="ycircumflex" unicode="&#x177;" horiz-adv-x="425" 
d="M515 698l-238 -582c-33 -83 -90 -123 -167 -123c-16 0 -33 4 -45 8l13 94c15 -5 28 -8 40 -8c28 0 44 13 55 38l26 63l-89 510l2 18h104l54 -377l145 377h102zM435 759h-67l-40 53l-55 -53h-69l2 18l104 84h47l80 -84z" />
    <glyph glyph-name="Ydieresis" unicode="&#x178;" horiz-adv-x="422" 
d="M265 0h-108l39 278l-89 420l3 18h98l61 -306l148 306h98l-3 -18l-208 -423zM300 844l-12 -83h-89l12 83h89zM450 844l-12 -83h-89l12 83h89z" />
    <glyph glyph-name="Zacute" unicode="&#x179;" horiz-adv-x="384" 
d="M359 0h-335l13 94l294 529h-219l13 93h335l-13 -93l-293 -529h218zM375 844l-78 -83h-62l58 100h84z" />
    <glyph glyph-name="zacute" unicode="&#x17a;" horiz-adv-x="384" 
d="M359 0h-335l13 94l294 529h-219l13 93h335l-13 -93l-293 -529h218zM375 844l-78 -83h-62l58 100h84z" />
    <glyph glyph-name="Zdotaccent" unicode="&#x17b;" horiz-adv-x="384" 
d="M359 0h-335l13 94l294 529h-219l13 93h335l-13 -93l-293 -529h218zM356 844l-12 -83h-90l12 83h90z" />
    <glyph glyph-name="zdotaccent" unicode="&#x17c;" horiz-adv-x="384" 
d="M359 0h-335l13 94l294 529h-219l13 93h335l-13 -93l-293 -529h218zM356 844l-12 -83h-90l12 83h90z" />
    <glyph glyph-name="Zcaron" unicode="&#x17d;" horiz-adv-x="384" 
d="M359 0h-335l13 94l294 529h-219l13 93h335l-13 -93l-293 -529h218zM426 844l-105 -85h-45l-81 85l2 17h69l40 -51l55 51h67z" />
    <glyph glyph-name="zcaron" unicode="&#x17e;" horiz-adv-x="384" 
d="M359 0h-335l13 94l294 529h-219l13 93h335l-13 -93l-293 -529h218zM426 844l-105 -85h-45l-81 85l2 17h69l40 -51l55 51h67z" />
    <glyph glyph-name="florin" unicode="&#x192;" horiz-adv-x="403" 
d="M269 301l-44 -312c-15 -105 -111 -141 -188 -141h-26l13 94h26c28 0 62 12 67 47l44 312h-86l13 94h86l25 181c15 105 110 140 187 140h87l-13 -93h-87c-28 0 -61 -11 -66 -47l-25 -181h146l-13 -94h-146z" />
    <glyph glyph-name="AEacute" unicode="&#x1fc;" horiz-adv-x="609" 
d="M576 0h-281l22 155h-150l-55 -155h-103l3 18l265 698h400l-13 -93h-173l-30 -207h138l-13 -93h-138l-32 -229h173zM330 249l53 374h-48l-134 -374h129zM538 844l-78 -83h-62l58 100h84z" />
    <glyph glyph-name="aeacute" unicode="&#x1fd;" horiz-adv-x="617" 
d="M604 250l-18 -130c-14 -98 -111 -131 -178 -131c-43 0 -85 13 -107 46c-33 -33 -79 -46 -120 -46c-66 0 -154 33 -140 131l15 109c15 108 78 147 187 173l59 14l25 180c4 29 -22 39 -47 39c-22 0 -51 -10 -55 -39l-18 -130h-108l18 130c14 100 106 132 172 132
c40 0 81 -13 103 -46c32 33 78 46 121 46c68 0 153 -34 140 -132l-39 -274h-219l-28 -202c-4 -29 25 -39 50 -39c24 0 57 10 61 39l18 130h108zM164 229l-15 -109c-4 -29 25 -39 49 -39c25 0 58 10 62 39l28 202l-58 -14c-49 -12 -61 -46 -66 -79zM409 416h111l25 180
c4 29 -25 39 -50 39s-57 -10 -61 -39zM492 844l-78 -83h-62l58 100h84z" />
    <glyph glyph-name="uni0218" unicode="&#x218;" horiz-adv-x="429" 
d="M415 188l-7 -51c-15 -109 -116 -148 -200 -148s-175 39 -160 148l16 113h107l-16 -113c-6 -41 32 -56 65 -56c34 0 76 15 82 56l7 51c9 67 5 87 -57 117c-96 48 -165 78 -145 223l7 51c15 110 116 149 197 149c82 0 171 -39 155 -149l-16 -113h-107l16 113
c6 41 -29 56 -61 56c-31 0 -70 -14 -76 -56l-7 -51c-9 -65 -2 -91 52 -116c105 -49 167 -83 148 -224zM252 -85l-77 -82h-62l58 100h84z" />
    <glyph glyph-name="uni0219" unicode="&#x219;" horiz-adv-x="429" 
d="M415 188l-7 -51c-15 -109 -116 -148 -200 -148s-175 39 -160 148l16 113h107l-16 -113c-6 -41 32 -56 65 -56c34 0 76 15 82 56l7 51c9 67 5 87 -57 117c-96 48 -165 78 -145 223l7 51c15 110 116 149 197 149c82 0 171 -39 155 -149l-16 -113h-107l16 113
c6 41 -29 56 -61 56c-31 0 -70 -14 -76 -56l-7 -51c-9 -65 -2 -91 52 -116c105 -49 167 -83 148 -224zM252 -85l-77 -82h-62l58 100h84z" />
    <glyph glyph-name="uni021A" unicode="&#x21a;" horiz-adv-x="370" 
d="M239 0h-108l88 623h-122l13 93h352l-13 -93h-122zM216 -85l-78 -82h-62l58 100h84z" />
    <glyph glyph-name="uni021B" unicode="&#x21b;" horiz-adv-x="370" 
d="M239 0h-108l88 623h-122l13 93h352l-13 -93h-122zM225 -85l-78 -82h-62l58 100h84z" />
    <glyph glyph-name="circumflex" unicode="&#x2c6;" horiz-adv-x="319" 
d="M382 759h-67l-40 53l-55 -53h-69l3 18l103 84h47l81 -84z" />
    <glyph glyph-name="caron" unicode="&#x2c7;" horiz-adv-x="278" 
d="M373 844l-105 -85h-45l-81 85l2 17h69l40 -51l55 51h67z" />
    <glyph glyph-name="breve" unicode="&#x2d8;" horiz-adv-x="278" 
d="M373 861l-1 -10c-7 -61 -57 -96 -126 -96s-107 35 -100 96l1 10h71l-1 -10c-2 -22 9 -34 38 -34c28 0 46 12 48 34l1 10h69z" />
    <glyph glyph-name="dotaccent" unicode="&#x2d9;" horiz-adv-x="178" 
d="M253 844l-12 -83h-90l12 83h90z" />
    <glyph glyph-name="ring" unicode="&#x2da;" horiz-adv-x="217" 
d="M153 805c5 38 40 68 78 68c34 0 60 -26 60 -60c0 -41 -38 -76 -79 -76c-38 0 -64 31 -59 68zM197 805c-2 -13 8 -24 21 -24c14 0 28 12 28 26c0 12 -9 22 -21 22c-13 0 -26 -11 -28 -24z" />
    <glyph glyph-name="ogonek" unicode="&#x2db;" horiz-adv-x="217" 
d="M155 -127h-45c-48 0 -76 20 -76 52c0 24 16 48 50 75h58c-43 -32 -51 -65 -4 -65h26z" />
    <glyph glyph-name="tilde" unicode="&#x2dc;" horiz-adv-x="343" 
d="M387 851l25 -50c-19 -24 -49 -44 -77 -44c-18 0 -33 2 -52 11l-18 9c-14 6 -23 12 -36 12c-11 0 -17 -6 -48 -32l-25 50c20 27 49 41 79 44c16 1 35 -1 51 -11l17 -11c16 -10 24 -10 33 -9c16 2 30 12 51 31z" />
    <glyph glyph-name="hungarumlaut" unicode="&#x2dd;" horiz-adv-x="335" 
d="M292 844l-77 -83h-64l58 100h85zM410 844l-76 -83h-64l58 100h84z" />
    <glyph glyph-name="uni0400" unicode="&#x400;" horiz-adv-x="415" 
d="M394 94l-13 -94h-317l101 716h317l-13 -93h-209l-30 -207h173l-13 -93h-173l-32 -229h209zM363 861l30 -100h-63l-53 83l2 17h84z" />
    <glyph glyph-name="uni0401" unicode="&#x401;" horiz-adv-x="415" 
d="M394 94l-13 -94h-317l101 716h317l-13 -93h-209l-30 -207h173l-13 -93h-173l-32 -229h209zM309 844l-12 -83h-89l12 83h89zM459 844l-12 -83h-89l12 83h89z" />
    <glyph glyph-name="uni0402" unicode="&#x402;" horiz-adv-x="530" 
d="M315 0h-18l13 94h18c56 0 84 36 89 71l13 88c5 33 -13 70 -69 70h-77l-46 -323h-108l88 625h-121l13 91h386l-13 -91h-157l-29 -208h77c114 0 180 -56 164 -164l-13 -88c-16 -109 -96 -165 -210 -165z" />
    <glyph glyph-name="uni0403" unicode="&#x403;" horiz-adv-x="406" 
d="M260 623l-88 -623h-108l101 716h317l-13 -93h-209zM436 844l-78 -83h-62l58 100h84z" />
    <glyph glyph-name="uni0404" unicode="&#x404;" 
d="M320 137l16 113h108l-16 -113c-15 -109 -117 -148 -200 -148c-84 0 -176 39 -161 148l62 442c15 110 118 149 202 149c83 0 175 -39 159 -149l-16 -113h-108l16 113c6 41 -31 56 -64 56s-75 -14 -81 -56l-23 -163h120l-14 -93h-119l-26 -186c-6 -41 32 -56 65 -56
s74 15 80 56z" />
    <glyph glyph-name="uni0405" unicode="&#x405;" horiz-adv-x="429" 
d="M415 188l-7 -51c-15 -109 -116 -148 -200 -148s-175 39 -160 148l16 113h107l-16 -113c-6 -41 32 -56 65 -56c34 0 76 15 82 56l7 51c9 67 5 87 -57 117c-96 48 -165 78 -145 223l7 51c15 110 116 149 197 149c82 0 171 -39 155 -149l-16 -113h-107l16 113
c6 41 -29 56 -61 56c-31 0 -70 -14 -76 -56l-7 -51c-9 -65 -2 -91 52 -116c105 -49 167 -83 148 -224z" />
    <glyph glyph-name="uni0406" unicode="&#x406;" horiz-adv-x="235" 
d="M172 0h-108l101 716h108z" />
    <glyph glyph-name="uni0407" unicode="&#x407;" horiz-adv-x="235" 
d="M172 0h-108l101 716h108zM207 844l-12 -83h-89l12 83h89zM357 844l-12 -83h-89l12 83h89z" />
    <glyph glyph-name="uni0408" unicode="&#x408;" horiz-adv-x="399" 
d="M241 129l82 587h108l-82 -587c-15 -105 -110 -140 -187 -140s-162 35 -147 140l17 121h108l-17 -121c-5 -35 24 -48 52 -48s61 13 66 48z" />
    <glyph glyph-name="uni0409" unicode="&#x409;" horiz-adv-x="741" 
d="M526 0h-185l88 623h-123l-45 -317c-33 -232 -97 -306 -250 -306l13 94c82 3 104 31 132 230l55 392h338l-39 -274h78c113 0 177 -61 161 -177l-12 -88c-16 -116 -98 -177 -211 -177zM630 177l12 88c6 41 -12 84 -67 84h-78l-36 -255h78c55 0 85 42 91 83z" />
    <glyph glyph-name="uni040A" unicode="&#x40a;" horiz-adv-x="747" 
d="M530 0h-185l45 323h-173l-45 -323h-108l101 716h108l-43 -300h173l43 300h108l-39 -274h77c115 0 178 -61 162 -177l-12 -88c-16 -116 -97 -177 -212 -177zM634 177l12 88c6 41 -11 84 -67 84h-77l-36 -255h77c56 0 85 42 91 83z" />
    <glyph glyph-name="uni040B" unicode="&#x40b;" horiz-adv-x="542" 
d="M538 253l-36 -253h-108l36 253c5 33 -13 70 -69 70h-77l-46 -323h-108l88 625h-121l13 91h386l-13 -91h-157l-29 -208h77c114 0 179 -56 164 -164z" />
    <glyph glyph-name="uni040C" unicode="&#x40c;" horiz-adv-x="473" 
d="M464 0h-108l-113 323h-26l-45 -323h-108l101 716h108l-43 -300h31l188 300h107l-3 -18l-201 -334l115 -346zM466 844l-78 -83h-62l58 100h84z" />
    <glyph glyph-name="uni040D" unicode="&#x40d;" horiz-adv-x="516" 
d="M451 0h-107l63 451l-244 -451h-99l101 716h108l-64 -451l245 451h98zM373 861l30 -100h-63l-53 83l2 17h84z" />
    <glyph glyph-name="uni040E" unicode="&#x40e;" horiz-adv-x="425" 
d="M515 698l-238 -582c-33 -83 -90 -123 -167 -123c-16 0 -33 4 -45 8l13 94c15 -5 28 -8 40 -8c28 0 44 13 55 38l26 63l-89 510l2 18h104l54 -377l145 377h102zM452 861l-1 -10c-7 -61 -56 -96 -125 -96s-108 35 -101 96l1 10h71l-1 -10c-2 -22 10 -34 39 -34
c28 0 45 12 47 34l1 10h69z" />
    <glyph glyph-name="uni040F" unicode="&#x40f;" horiz-adv-x="517" 
d="M291 -150h-107l21 150h-141l101 716h108l-88 -622h173l88 622h108l-101 -716h-141z" />
    <glyph glyph-name="uni0410" unicode="&#x410;" horiz-adv-x="460" 
d="M451 0h-103l-12 155h-169l-55 -155h-103l3 18l265 698h108l69 -698zM328 249l-23 294l-104 -294h127z" />
    <glyph glyph-name="uni0411" unicode="&#x411;" horiz-adv-x="469" 
d="M185 94h77c56 0 84 36 89 71l13 88c4 33 -14 70 -70 70h-77zM472 253l-13 -88c-15 -109 -96 -165 -210 -165h-185l101 716h325l-13 -93h-217l-29 -206h77c114 0 179 -56 164 -164z" />
    <glyph glyph-name="uni0412" unicode="&#x412;" horiz-adv-x="473" 
d="M277 0h-213l101 716h198c91 0 150 -56 138 -141l-13 -88c-6 -43 -33 -81 -76 -113c52 -28 72 -67 64 -124l-12 -88c-12 -87 -80 -162 -187 -162zM356 163l12 88c5 38 -13 72 -65 72h-86l-32 -231h86c53 0 80 33 85 71zM379 476l12 88c4 30 -6 60 -50 60h-81l-30 -208h81
c44 0 64 31 68 60z" />
    <glyph glyph-name="uni0413" unicode="&#x413;" horiz-adv-x="406" 
d="M260 623l-88 -623h-108l101 716h317l-13 -93h-209z" />
    <glyph glyph-name="uni0414" unicode="&#x414;" horiz-adv-x="529" 
d="M487 -150h-108l21 150h-279l-21 -150h-108l34 244h40c50 92 83 196 114 416l29 206h343l-88 -622h57zM351 94l75 529h-123l-16 -113c-34 -242 -66 -333 -100 -416h164z" />
    <glyph glyph-name="uni0415" unicode="&#x415;" horiz-adv-x="415" 
d="M394 94l-13 -94h-317l101 716h317l-13 -93h-209l-30 -207h173l-13 -93h-173l-32 -229h209z" />
    <glyph glyph-name="uni0416" unicode="&#x416;" horiz-adv-x="728" 
d="M711 0h-108l-113 323h-27l-45 -323h-108l45 323h-26l-204 -323h-107l3 18l212 346l-109 334l3 18h108l102 -300h31l43 300h108l-43 -300h32l187 300h108l-3 -18l-201 -334l115 -346z" />
    <glyph glyph-name="uni0417" unicode="&#x417;" horiz-adv-x="429" 
d="M305 137l19 130c6 43 -33 56 -66 56h-48l14 93h48c33 0 74 13 80 56l15 107c6 41 -32 56 -65 56c-34 0 -75 -14 -81 -56l-16 -113h-107l16 113c16 110 118 149 201 149c84 0 176 -39 160 -149l-15 -107c-7 -52 -42 -84 -88 -103c40 -18 67 -50 60 -102l-19 -130
c-16 -109 -117 -148 -201 -148c-83 0 -175 39 -160 148l16 113h107l-16 -113c-6 -42 31 -56 65 -56c33 0 75 14 81 56z" />
    <glyph glyph-name="uni0418" unicode="&#x418;" horiz-adv-x="516" 
d="M451 0h-107l63 451l-244 -451h-99l101 716h108l-64 -451l245 451h98z" />
    <glyph glyph-name="uni0419" unicode="&#x419;" horiz-adv-x="516" 
d="M451 0h-107l63 451l-244 -451h-99l101 716h108l-64 -451l245 451h98zM492 861l-1 -10c-7 -61 -57 -96 -126 -96s-107 35 -100 96l1 10h71l-1 -10c-2 -22 9 -34 38 -34c28 0 46 12 48 34l1 10h69z" />
    <glyph glyph-name="uni041A" unicode="&#x41a;" horiz-adv-x="473" 
d="M464 0h-108l-113 323h-26l-45 -323h-108l101 716h108l-43 -300h31l188 300h107l-3 -18l-201 -334l115 -346z" />
    <glyph glyph-name="uni041B" unicode="&#x41b;" horiz-adv-x="513" 
d="M448 0h-107l88 623h-123l-45 -317c-33 -232 -97 -306 -250 -306l13 94c82 3 104 31 132 230l55 392h338z" />
    <glyph glyph-name="uni041C" unicode="&#x41c;" horiz-adv-x="631" 
d="M565 0h-106l69 489l-184 -286l-103 286l-69 -489h-108l101 716h99l109 -306l196 306h97z" />
    <glyph glyph-name="uni041D" unicode="&#x41d;" horiz-adv-x="517" 
d="M554 716l-101 -716h-108l45 323h-173l-45 -323h-108l101 716h108l-43 -300h173l43 300h108z" />
    <glyph glyph-name="uni041E" unicode="&#x41e;" horiz-adv-x="459" 
d="M320 137l62 442c6 41 -31 56 -64 56s-75 -14 -81 -56l-62 -442c-6 -41 32 -56 65 -56s74 15 80 56zM67 137l62 442c16 110 118 149 202 149c83 0 175 -39 159 -149l-62 -442c-15 -109 -117 -148 -200 -148c-84 0 -176 39 -161 148z" />
    <glyph glyph-name="uni041F" unicode="&#x41f;" horiz-adv-x="517" 
d="M554 716l-101 -716h-108l88 623h-173l-88 -623h-108l101 716h389z" />
    <glyph glyph-name="uni0420" unicode="&#x420;" horiz-adv-x="464" 
d="M391 451l13 88c6 41 -11 84 -67 84h-77l-36 -256h77c56 0 85 44 90 84zM172 0h-108l101 716h185c114 0 178 -62 162 -177l-13 -88c-17 -114 -97 -176 -211 -176h-77z" />
    <glyph glyph-name="uni0421" unicode="&#x421;" 
d="M320 137l16 113h108l-16 -113c-15 -109 -117 -148 -200 -148c-84 0 -176 39 -161 148l62 442c15 110 118 149 202 149c83 0 175 -39 159 -149l-16 -113h-108l16 113c6 41 -31 56 -64 56s-75 -14 -81 -56l-62 -442c-6 -41 32 -56 65 -56s74 15 80 56z" />
    <glyph glyph-name="uni0422" unicode="&#x422;" horiz-adv-x="370" 
d="M239 0h-108l88 623h-122l13 93h352l-13 -93h-122z" />
    <glyph glyph-name="uni0423" unicode="&#x423;" horiz-adv-x="425" 
d="M515 698l-238 -582c-33 -83 -90 -123 -167 -123c-16 0 -33 4 -45 8l13 94c15 -5 28 -8 40 -8c28 0 44 13 55 38l26 63l-89 510l2 18h104l54 -377l145 377h102z" />
    <glyph glyph-name="uni0424" unicode="&#x424;" horiz-adv-x="663" 
d="M398 94l-13 -94h-107l13 94h-41c-125 0 -195 65 -177 194l25 176c18 128 106 194 231 194h41l8 58h107l-8 -58h42c124 0 195 -66 177 -194l-25 -176c-18 -129 -107 -194 -231 -194h-42zM263 187h41l53 378h-41c-76 0 -104 -53 -111 -101l-25 -176c-7 -49 7 -101 83 -101z
M411 187h42c77 0 104 52 111 101l25 176c7 49 -6 101 -83 101h-42z" />
    <glyph glyph-name="uni0425" unicode="&#x425;" horiz-adv-x="420" 
d="M407 18l-3 -18h-98l-64 230l-126 -230h-100l3 18l188 340l-93 340l3 18h100l61 -230l129 230h98l-3 -18l-189 -340z" />
    <glyph glyph-name="uni0426" unicode="&#x426;" horiz-adv-x="537" 
d="M495 -150h-108l21 150h-344l101 716h108l-88 -622h173l88 622h108l-88 -622h63z" />
    <glyph glyph-name="uni0427" unicode="&#x427;" horiz-adv-x="477" 
d="M411 0h-106l34 243c-24 -8 -50 -12 -79 -12c-114 0 -178 60 -162 176l43 309h106l-43 -309c-6 -40 13 -84 68 -84c28 0 56 4 80 12l54 381h106z" />
    <glyph glyph-name="uni0428" unicode="&#x428;" horiz-adv-x="693" 
d="M629 0h-565l101 716h108l-88 -622h121l88 622h107l-88 -622h121l88 622h108z" />
    <glyph glyph-name="uni0429" unicode="&#x429;" horiz-adv-x="713" 
d="M671 -150h-108l21 150h-520l101 716h108l-88 -622h121l88 622h107l-88 -622h121l88 622h108l-88 -622h63z" />
    <glyph glyph-name="uni042A" unicode="&#x42a;" horiz-adv-x="521" 
d="M531 265l-12 -88c-16 -116 -99 -177 -212 -177h-185l88 624h-121l13 92h229l-39 -274h77c113 0 179 -61 162 -177zM244 94h77c56 0 84 42 90 83l13 88c5 33 -12 84 -68 84h-77z" />
    <glyph glyph-name="uni042B" unicode="&#x42b;" horiz-adv-x="660" 
d="M185 94h77c56 0 85 42 91 83l12 88c5 33 -11 84 -67 84h-77zM473 265l-12 -88c-16 -116 -98 -177 -212 -177h-185l101 716h108l-39 -274h77c114 0 179 -61 162 -177zM596 0h-108l101 716h108z" />
    <glyph glyph-name="uni042C" unicode="&#x42c;" horiz-adv-x="464" 
d="M185 94h77c56 0 85 42 91 83l12 88c5 33 -11 84 -67 84h-77zM473 265l-12 -88c-16 -116 -98 -177 -212 -177h-185l101 716h108l-39 -274h77c114 0 179 -61 162 -177z" />
    <glyph glyph-name="uni042D" unicode="&#x42d;" horiz-adv-x="451" 
d="M484 579l-62 -442c-15 -109 -117 -148 -201 -148c-83 0 -175 39 -160 148l16 113h106l-16 -113c-6 -41 32 -56 66 -56c33 0 75 15 81 56l26 186h-120l14 93h119l23 163c6 42 -32 56 -65 56c-34 0 -76 -15 -82 -56l-16 -113h-106l16 113c16 110 118 149 201 149
c84 0 175 -39 160 -149z" />
    <glyph glyph-name="uni042E" unicode="&#x42e;" horiz-adv-x="683" 
d="M172 0h-108l101 716h108l-43 -300h102l23 163c15 110 118 149 201 149c84 0 176 -39 160 -149l-62 -442c-15 -109 -118 -148 -202 -148c-83 0 -174 39 -159 148l26 186h-102zM546 137l62 442c6 41 -32 56 -65 56c-34 0 -75 -14 -81 -56l-62 -442c-6 -41 31 -56 65 -56
c33 0 75 15 81 56z" />
    <glyph glyph-name="uni042F" unicode="&#x42f;" horiz-adv-x="469" 
d="M506 716l-101 -716h-108l40 287h-70l-130 -287h-112l3 18l139 291c-52 33 -72 82 -62 151l12 88c16 111 92 168 195 168h194zM265 381h86l34 242h-86c-44 0 -70 -39 -75 -74l-12 -88c-5 -35 9 -80 53 -80z" />
    <glyph glyph-name="uni0430" unicode="&#x430;" 
d="M398 0h-180c-84 0 -174 40 -159 150l11 84c17 126 120 152 205 172l75 18l22 156c6 41 -31 56 -64 56s-75 -15 -81 -56l-16 -112h-108l16 112c16 110 118 148 202 148c83 0 174 -38 159 -148zM304 94l33 236l-75 -18c-33 -7 -76 -21 -84 -78l-12 -84
c-6 -43 33 -56 66 -56h72z" />
    <glyph glyph-name="uni0431" unicode="&#x431;" horiz-adv-x="469" 
d="M185 94h77c56 0 84 36 89 71l13 88c4 33 -14 70 -70 70h-77zM472 253l-13 -88c-15 -109 -96 -165 -210 -165h-185l101 716h325l-13 -93h-217l-29 -206h77c114 0 179 -56 164 -164z" />
    <glyph glyph-name="uni0432" unicode="&#x432;" horiz-adv-x="473" 
d="M277 0h-213l101 716h198c91 0 150 -56 138 -141l-13 -88c-6 -43 -33 -81 -76 -113c52 -28 72 -67 64 -124l-12 -88c-12 -87 -80 -162 -187 -162zM356 163l12 88c5 38 -13 72 -65 72h-86l-32 -231h86c53 0 80 33 85 71zM379 476l12 88c4 30 -6 60 -50 60h-81l-30 -208h81
c44 0 64 31 68 60z" />
    <glyph glyph-name="uni0433" unicode="&#x433;" horiz-adv-x="406" 
d="M260 623l-88 -623h-108l101 716h317l-13 -93h-209z" />
    <glyph glyph-name="uni0434" unicode="&#x434;" horiz-adv-x="529" 
d="M487 -150h-108l21 150h-279l-21 -150h-108l34 244h40c50 92 83 196 114 416l29 206h343l-88 -622h57zM351 94l75 529h-123l-16 -113c-34 -242 -66 -333 -100 -416h164z" />
    <glyph glyph-name="uni0435" unicode="&#x435;" 
d="M444 250l-16 -113c-15 -109 -117 -148 -200 -148c-84 0 -176 39 -161 148l62 442c15 110 118 149 202 149c83 0 174 -39 159 -149l-36 -257h-253l-26 -185c-6 -41 32 -56 65 -56s74 15 80 56l16 113h108zM214 416h145l23 163c6 42 -31 56 -64 56s-75 -15 -81 -56z" />
    <glyph glyph-name="uni0436" unicode="&#x436;" horiz-adv-x="728" 
d="M711 0h-108l-113 323h-27l-45 -323h-108l45 323h-26l-204 -323h-107l3 18l212 346l-109 334l3 18h108l102 -300h31l43 300h108l-43 -300h32l187 300h108l-3 -18l-201 -334l115 -346z" />
    <glyph glyph-name="uni0437" unicode="&#x437;" horiz-adv-x="429" 
d="M305 137l19 130c6 43 -33 56 -66 56h-48l14 93h48c33 0 74 13 80 56l15 107c6 41 -32 56 -65 56c-34 0 -75 -14 -81 -56l-16 -113h-107l16 113c16 110 118 149 201 149c84 0 176 -39 160 -149l-15 -107c-7 -52 -42 -84 -88 -103c40 -18 67 -50 60 -102l-19 -130
c-16 -109 -117 -148 -201 -148c-83 0 -175 39 -160 148l16 113h107l-16 -113c-6 -42 31 -56 65 -56c33 0 75 14 81 56z" />
    <glyph glyph-name="uni0438" unicode="&#x438;" horiz-adv-x="516" 
d="M451 0h-107l63 451l-244 -451h-99l101 716h108l-64 -451l245 451h98z" />
    <glyph glyph-name="uni0439" unicode="&#x439;" horiz-adv-x="516" 
d="M451 0h-107l63 451l-244 -451h-99l101 716h108l-64 -451l245 451h98zM492 861l-1 -10c-7 -61 -57 -96 -126 -96s-107 35 -100 96l1 10h71l-1 -10c-2 -22 9 -34 38 -34c28 0 46 12 48 34l1 10h69z" />
    <glyph glyph-name="uni043A" unicode="&#x43a;" horiz-adv-x="473" 
d="M464 0h-108l-113 323h-26l-45 -323h-108l101 716h108l-43 -300h31l188 300h107l-3 -18l-201 -334l115 -346z" />
    <glyph glyph-name="uni043B" unicode="&#x43b;" horiz-adv-x="513" 
d="M448 0h-107l88 623h-123l-45 -317c-33 -232 -97 -306 -250 -306l13 94c82 3 104 31 132 230l55 392h338z" />
    <glyph glyph-name="uni043C" unicode="&#x43c;" horiz-adv-x="631" 
d="M565 0h-106l69 489l-184 -286l-103 286l-69 -489h-108l101 716h99l109 -306l196 306h97z" />
    <glyph glyph-name="uni043D" unicode="&#x43d;" horiz-adv-x="517" 
d="M554 716l-101 -716h-108l45 323h-173l-45 -323h-108l101 716h108l-43 -300h173l43 300h108z" />
    <glyph glyph-name="uni043E" unicode="&#x43e;" horiz-adv-x="459" 
d="M320 137l62 442c6 41 -31 56 -64 56s-75 -14 -81 -56l-62 -442c-6 -41 32 -56 65 -56s74 15 80 56zM67 137l62 442c16 110 118 149 202 149c83 0 175 -39 159 -149l-62 -442c-15 -109 -117 -148 -200 -148c-84 0 -176 39 -161 148z" />
    <glyph glyph-name="uni043F" unicode="&#x43f;" horiz-adv-x="517" 
d="M554 716l-101 -716h-108l88 623h-173l-88 -623h-108l101 716h389z" />
    <glyph glyph-name="uni0440" unicode="&#x440;" horiz-adv-x="464" 
d="M391 451l13 88c6 41 -11 84 -67 84h-77l-36 -256h77c56 0 85 44 90 84zM172 0h-108l101 716h185c114 0 178 -62 162 -177l-13 -88c-17 -114 -97 -176 -211 -176h-77z" />
    <glyph glyph-name="uni0441" unicode="&#x441;" 
d="M320 137l16 113h108l-16 -113c-15 -109 -117 -148 -200 -148c-84 0 -176 39 -161 148l62 442c15 110 118 149 202 149c83 0 175 -39 159 -149l-16 -113h-108l16 113c6 41 -31 56 -64 56s-75 -14 -81 -56l-62 -442c-6 -41 32 -56 65 -56s74 15 80 56z" />
    <glyph glyph-name="uni0442" unicode="&#x442;" horiz-adv-x="370" 
d="M239 0h-108l88 623h-122l13 93h352l-13 -93h-122z" />
    <glyph glyph-name="uni0443" unicode="&#x443;" horiz-adv-x="425" 
d="M515 698l-238 -582c-33 -83 -90 -123 -167 -123c-16 0 -33 4 -45 8l13 94c15 -5 28 -8 40 -8c28 0 44 13 55 38l26 63l-89 510l2 18h104l54 -377l145 377h102z" />
    <glyph glyph-name="uni0444" unicode="&#x444;" horiz-adv-x="663" 
d="M398 94l-13 -94h-107l13 94h-41c-125 0 -195 65 -177 194l25 176c18 128 106 194 231 194h41l8 58h107l-8 -58h42c124 0 195 -66 177 -194l-25 -176c-18 -129 -107 -194 -231 -194h-42zM263 187h41l53 378h-41c-76 0 -104 -53 -111 -101l-25 -176c-7 -49 7 -101 83 -101z
M411 187h42c77 0 104 52 111 101l25 176c7 49 -6 101 -83 101h-42z" />
    <glyph glyph-name="uni0445" unicode="&#x445;" horiz-adv-x="420" 
d="M407 18l-3 -18h-98l-64 230l-126 -230h-100l3 18l188 340l-93 340l3 18h100l61 -230l129 230h98l-3 -18l-189 -340z" />
    <glyph glyph-name="uni0446" unicode="&#x446;" horiz-adv-x="537" 
d="M495 -150h-108l21 150h-344l101 716h108l-88 -622h173l88 622h108l-88 -622h63z" />
    <glyph glyph-name="uni0447" unicode="&#x447;" horiz-adv-x="477" 
d="M411 0h-106l34 243c-24 -8 -50 -12 -79 -12c-114 0 -178 60 -162 176l43 309h106l-43 -309c-6 -40 13 -84 68 -84c28 0 56 4 80 12l54 381h106z" />
    <glyph glyph-name="uni0448" unicode="&#x448;" horiz-adv-x="693" 
d="M629 0h-565l101 716h108l-88 -622h121l88 622h107l-88 -622h121l88 622h108z" />
    <glyph glyph-name="uni0449" unicode="&#x449;" horiz-adv-x="713" 
d="M671 -150h-108l21 150h-520l101 716h108l-88 -622h121l88 622h107l-88 -622h121l88 622h108l-88 -622h63z" />
    <glyph glyph-name="uni044A" unicode="&#x44a;" horiz-adv-x="521" 
d="M531 265l-12 -88c-16 -116 -99 -177 -212 -177h-185l88 624h-121l13 92h229l-39 -274h77c113 0 179 -61 162 -177zM244 94h77c56 0 84 42 90 83l13 88c5 33 -12 84 -68 84h-77z" />
    <glyph glyph-name="uni044B" unicode="&#x44b;" horiz-adv-x="660" 
d="M185 94h77c56 0 85 42 91 83l12 88c5 33 -11 84 -67 84h-77zM473 265l-12 -88c-16 -116 -98 -177 -212 -177h-185l101 716h108l-39 -274h77c114 0 179 -61 162 -177zM596 0h-108l101 716h108z" />
    <glyph glyph-name="uni044C" unicode="&#x44c;" horiz-adv-x="464" 
d="M185 94h77c56 0 85 42 91 83l12 88c5 33 -11 84 -67 84h-77zM473 265l-12 -88c-16 -116 -98 -177 -212 -177h-185l101 716h108l-39 -274h77c114 0 179 -61 162 -177z" />
    <glyph glyph-name="uni044D" unicode="&#x44d;" horiz-adv-x="451" 
d="M484 579l-62 -442c-15 -109 -117 -148 -201 -148c-83 0 -175 39 -160 148l16 113h106l-16 -113c-6 -41 32 -56 66 -56c33 0 75 15 81 56l26 186h-120l14 93h119l23 163c6 42 -32 56 -65 56c-34 0 -76 -15 -82 -56l-16 -113h-106l16 113c16 110 118 149 201 149
c84 0 175 -39 160 -149z" />
    <glyph glyph-name="uni044E" unicode="&#x44e;" horiz-adv-x="683" 
d="M172 0h-108l101 716h108l-43 -300h102l23 163c15 110 118 149 201 149c84 0 176 -39 160 -149l-62 -442c-15 -109 -118 -148 -202 -148c-83 0 -174 39 -159 148l26 186h-102zM546 137l62 442c6 41 -32 56 -65 56c-34 0 -75 -14 -81 -56l-62 -442c-6 -41 31 -56 65 -56
c33 0 75 15 81 56z" />
    <glyph glyph-name="uni044F" unicode="&#x44f;" horiz-adv-x="469" 
d="M506 716l-101 -716h-108l40 287h-70l-130 -287h-112l3 18l139 291c-52 33 -72 82 -62 151l12 88c16 111 92 168 195 168h194zM265 381h86l34 242h-86c-44 0 -70 -39 -75 -74l-12 -88c-5 -35 9 -80 53 -80z" />
    <glyph glyph-name="uni0450" unicode="&#x450;" 
d="M444 250l-16 -113c-15 -109 -117 -148 -200 -148c-84 0 -176 39 -161 148l62 442c15 110 118 149 202 149c83 0 174 -39 159 -149l-36 -257h-253l-26 -185c-6 -41 32 -56 65 -56s74 15 80 56l16 113h108zM214 416h145l23 163c6 42 -31 56 -64 56s-75 -15 -81 -56z
M346 861l30 -100h-63l-53 83l2 17h84z" />
    <glyph glyph-name="uni0451" unicode="&#x451;" 
d="M444 250l-16 -113c-15 -109 -117 -148 -200 -148c-84 0 -176 39 -161 148l62 442c15 110 118 149 202 149c83 0 174 -39 159 -149l-36 -257h-253l-26 -185c-6 -41 32 -56 65 -56s74 15 80 56l16 113h108zM214 416h145l23 163c6 42 -31 56 -64 56s-75 -15 -81 -56z
M313 844l-12 -83h-89l12 83h89zM463 844l-12 -83h-89l12 83h89z" />
    <glyph glyph-name="uni0452" unicode="&#x452;" horiz-adv-x="530" 
d="M315 0h-18l13 94h18c56 0 84 36 89 71l13 88c5 33 -13 70 -69 70h-77l-46 -323h-108l88 625h-121l13 91h386l-13 -91h-157l-29 -208h77c114 0 180 -56 164 -164l-13 -88c-16 -109 -96 -165 -210 -165z" />
    <glyph glyph-name="uni0453" unicode="&#x453;" horiz-adv-x="406" 
d="M260 623l-88 -623h-108l101 716h317l-13 -93h-209zM436 844l-78 -83h-62l58 100h84z" />
    <glyph glyph-name="uni0454" unicode="&#x454;" 
d="M320 137l16 113h108l-16 -113c-15 -109 -117 -148 -200 -148c-84 0 -176 39 -161 148l62 442c15 110 118 149 202 149c83 0 175 -39 159 -149l-16 -113h-108l16 113c6 41 -31 56 -64 56s-75 -14 -81 -56l-23 -163h120l-14 -93h-119l-26 -186c-6 -41 32 -56 65 -56
s74 15 80 56z" />
    <glyph glyph-name="uni0455" unicode="&#x455;" horiz-adv-x="429" 
d="M415 188l-7 -51c-15 -109 -116 -148 -200 -148s-175 39 -160 148l16 113h107l-16 -113c-6 -41 32 -56 65 -56c34 0 76 15 82 56l7 51c9 67 5 87 -57 117c-96 48 -165 78 -145 223l7 51c15 110 116 149 197 149c82 0 171 -39 155 -149l-16 -113h-107l16 113
c6 41 -29 56 -61 56c-31 0 -70 -14 -76 -56l-7 -51c-9 -65 -2 -91 52 -116c105 -49 167 -83 148 -224z" />
    <glyph glyph-name="uni0456" unicode="&#x456;" horiz-adv-x="235" 
d="M172 0h-108l101 716h108z" />
    <glyph glyph-name="uni0457" unicode="&#x457;" horiz-adv-x="235" 
d="M172 0h-108l101 716h108zM207 844l-12 -83h-89l12 83h89zM357 844l-12 -83h-89l12 83h89z" />
    <glyph glyph-name="uni0458" unicode="&#x458;" horiz-adv-x="399" 
d="M253 129l69 494h-173l13 93h281l-82 -587c-15 -105 -110 -140 -187 -140s-162 35 -147 140l17 121h108l-17 -121c-5 -35 24 -48 52 -48s61 13 66 48z" />
    <glyph glyph-name="uni0459" unicode="&#x459;" horiz-adv-x="741" 
d="M526 0h-185l88 623h-123l-45 -317c-33 -232 -97 -306 -250 -306l13 94c82 3 104 31 132 230l55 392h338l-39 -274h78c113 0 177 -61 161 -177l-12 -88c-16 -116 -98 -177 -211 -177zM630 177l12 88c6 41 -12 84 -67 84h-78l-36 -255h78c55 0 85 42 91 83z" />
    <glyph glyph-name="uni045A" unicode="&#x45a;" horiz-adv-x="747" 
d="M530 0h-185l45 323h-173l-45 -323h-108l101 716h108l-43 -300h173l43 300h108l-39 -274h77c115 0 178 -61 162 -177l-12 -88c-16 -116 -97 -177 -212 -177zM634 177l12 88c6 41 -11 84 -67 84h-77l-36 -255h77c56 0 85 42 91 83z" />
    <glyph glyph-name="uni045B" unicode="&#x45b;" horiz-adv-x="542" 
d="M538 253l-36 -253h-108l36 253c5 33 -13 70 -69 70h-77l-46 -323h-108l88 625h-121l13 91h386l-13 -91h-157l-29 -208h77c114 0 179 -56 164 -164z" />
    <glyph glyph-name="uni045C" unicode="&#x45c;" horiz-adv-x="473" 
d="M464 0h-108l-113 323h-26l-45 -323h-108l101 716h108l-43 -300h31l188 300h107l-3 -18l-201 -334l115 -346zM466 844l-78 -83h-62l58 100h84z" />
    <glyph glyph-name="uni045D" unicode="&#x45d;" horiz-adv-x="516" 
d="M451 0h-107l63 451l-244 -451h-99l101 716h108l-64 -451l245 451h98zM373 861l30 -100h-63l-53 83l2 17h84z" />
    <glyph glyph-name="uni045E" unicode="&#x45e;" horiz-adv-x="425" 
d="M515 698l-238 -582c-33 -83 -90 -123 -167 -123c-16 0 -33 4 -45 8l13 94c15 -5 28 -8 40 -8c28 0 44 13 55 38l26 63l-89 510l2 18h104l54 -377l145 377h102zM451 861l-1 -10c-7 -61 -56 -96 -125 -96s-108 35 -101 96l1 10h71l-1 -10c-2 -22 10 -34 39 -34
c28 0 45 12 47 34l1 10h69z" />
    <glyph glyph-name="uni045F" unicode="&#x45f;" horiz-adv-x="502" 
d="M283 -150h-107l21 150h-141l101 716h108l-88 -622h173l88 622h108l-101 -716h-141z" />
    <glyph glyph-name="uni0460" unicode="&#x460;" horiz-adv-x="640" 
d="M673 579l-63 -450c-15 -105 -108 -140 -177 -140c-43 0 -85 13 -108 48c-32 -35 -78 -48 -120 -48c-71 0 -154 35 -139 140l63 450c15 110 118 149 202 149l-13 -93c-33 0 -75 -15 -81 -56l-63 -450c-5 -35 24 -48 48 -48s57 13 62 48l44 313h108l-44 -313
c-5 -35 24 -48 48 -48c25 0 58 13 63 48l63 450c6 42 -31 56 -66 56l13 93c84 0 175 -39 160 -149z" />
    <glyph glyph-name="uni0461" unicode="&#x461;" horiz-adv-x="640" 
d="M673 579l-63 -450c-15 -105 -108 -140 -177 -140c-43 0 -85 13 -108 48c-32 -35 -78 -48 -120 -48c-71 0 -154 35 -139 140l63 450c15 110 118 149 202 149l-13 -93c-33 0 -75 -15 -81 -56l-63 -450c-5 -35 24 -48 48 -48s57 13 62 48l44 313h108l-44 -313
c-5 -35 24 -48 48 -48c25 0 58 13 63 48l63 450c6 42 -31 56 -66 56l13 93c84 0 175 -39 160 -149z" />
    <glyph glyph-name="uni0462" unicode="&#x462;" horiz-adv-x="502" 
d="M286 0h-185l88 623h-78l13 93h78l13 94h108l-13 -94h122l-13 -93h-122l-26 -181h77c113 0 178 -61 162 -177l-12 -88c-16 -116 -99 -177 -212 -177zM390 177l12 88c6 41 -12 84 -67 84h-77l-36 -255h77c55 0 85 42 91 83z" />
    <glyph glyph-name="uni0463" unicode="&#x463;" horiz-adv-x="502" 
d="M286 0h-185l88 623h-78l13 93h78l13 94h108l-13 -94h122l-13 -93h-122l-26 -181h77c113 0 178 -61 162 -177l-12 -88c-16 -116 -99 -177 -212 -177zM390 177l12 88c6 41 -12 84 -67 84h-77l-36 -255h77c55 0 85 42 91 83z" />
    <glyph glyph-name="uni0464" unicode="&#x464;" horiz-adv-x="683" 
d="M546 137l16 113h108l-16 -113c-15 -109 -118 -148 -202 -148c-83 0 -174 39 -159 148l26 186h-102l-45 -323h-108l101 716h108l-43 -300h102l23 163c15 110 118 149 201 149c84 0 176 -39 160 -149l-16 -113h-108l16 113c6 41 -32 56 -65 56c-34 0 -75 -14 -81 -56
l-23 -163h120l-13 -93h-120l-26 -186c-6 -41 31 -56 65 -56c33 0 75 15 81 56z" />
    <glyph glyph-name="uni0465" unicode="&#x465;" horiz-adv-x="683" 
d="M546 137l16 113h108l-16 -113c-15 -109 -118 -148 -202 -148c-83 0 -174 39 -159 148l26 186h-102l-45 -323h-108l101 716h108l-43 -300h102l23 163c15 110 118 149 201 149c84 0 176 -39 160 -149l-16 -113h-108l16 113c6 41 -32 56 -65 56c-34 0 -75 -14 -81 -56
l-23 -163h120l-13 -93h-120l-26 -186c-6 -41 31 -56 65 -56c33 0 75 15 81 56z" />
    <glyph glyph-name="uni0466" unicode="&#x466;" horiz-adv-x="460" 
d="M451 0h-99l-19 208h-25l-29 -208h-99l29 208h-25l-76 -208h-99l3 18l269 698h99l74 -698zM325 301l-21 232l-86 -232h107z" />
    <glyph glyph-name="uni0467" unicode="&#x467;" horiz-adv-x="460" 
d="M451 0h-99l-19 208h-25l-29 -208h-99l29 208h-25l-76 -208h-99l3 18l269 698h99l74 -698zM325 301l-21 232l-86 -232h107z" />
    <glyph glyph-name="uni0470" unicode="&#x470;" horiz-adv-x="614" 
d="M380 129l-19 -129h-108l19 129h-5c-114 0 -179 60 -163 177l40 281c5 36 -14 48 -31 48l13 93c66 0 140 -36 125 -141l-40 -281c-5 -41 6 -84 69 -84h5l69 494h108l-69 -494h6c62 0 86 43 92 84l39 281c15 106 99 141 165 141l-13 -93c-18 0 -41 -12 -46 -48l-40 -281
c-16 -117 -96 -177 -210 -177h-6z" />
    <glyph glyph-name="uni0471" unicode="&#x471;" horiz-adv-x="625" 
d="M384 129l-18 -129h-108l18 129h-5c-124 0 -196 66 -178 194l55 392h108l-55 -392c-7 -49 6 -101 83 -101h5l69 494h108l-69 -494h6c77 0 104 52 111 101l36 256c6 42 -22 56 -47 56l13 93c74 0 156 -39 141 -149l-36 -256c-18 -128 -107 -194 -231 -194h-6z" />
    <glyph glyph-name="uni0472" unicode="&#x472;" horiz-adv-x="459" 
d="M67 137l62 442c16 110 118 149 202 149c83 0 175 -39 159 -149l-62 -442c-15 -109 -117 -148 -200 -148c-84 0 -176 39 -161 148zM320 137l24 169h-6c-20 0 -37 4 -60 14l-21 11c-15 8 -26 13 -41 12c-4 -1 -8 -1 -12 -3l-29 -203c-6 -41 32 -56 65 -56s74 15 80 56z
M355 385l27 194c6 41 -31 56 -64 56s-75 -14 -81 -56l-23 -162c3 0 6 1 9 1c19 2 41 -2 60 -13l20 -12c17 -10 27 -12 37 -12c5 0 10 1 15 4z" />
    <glyph glyph-name="uni0473" unicode="&#x473;" horiz-adv-x="459" 
d="M67 137l62 442c16 110 118 149 202 149c83 0 175 -39 159 -149l-62 -442c-15 -109 -117 -148 -200 -148c-84 0 -176 39 -161 148zM320 137l24 169h-6c-20 0 -37 4 -60 14l-21 11c-15 8 -26 13 -41 12c-4 -1 -8 -1 -12 -3l-29 -203c-6 -41 32 -56 65 -56s74 15 80 56z
M355 385l27 194c6 41 -31 56 -64 56s-75 -14 -81 -56l-23 -162c3 0 6 1 9 1c19 2 41 -2 60 -13l20 -12c17 -10 27 -12 37 -12c5 0 10 1 15 4z" />
    <glyph glyph-name="uni048A" unicode="&#x48a;" horiz-adv-x="540" 
d="M451 -106h-81l38 106h-64l65 460l-246 -460h-99l101 716h108l-65 -460l246 460h98l-88 -622h80l-2 -18zM492 861l-1 -10c-7 -64 -57 -96 -127 -96c-68 0 -106 35 -99 96l1 10h71l-1 -10c-2 -22 9 -34 37 -34c29 0 46 12 48 34l1 10h70z" />
    <glyph glyph-name="uni048B" unicode="&#x48b;" horiz-adv-x="540" 
d="M451 -106h-81l38 106h-64l65 460l-246 -460h-99l101 716h108l-65 -460l246 460h98l-88 -622h80l-2 -18zM492 861l-1 -10c-7 -64 -57 -96 -127 -96c-68 0 -106 35 -99 96l1 10h71l-1 -10c-2 -22 9 -34 37 -34c29 0 46 12 48 34l1 10h70z" />
    <glyph glyph-name="uni048C" unicode="&#x48c;" horiz-adv-x="502" 
d="M286 0h-185l82 584h-78l11 76h78l8 56h108l-8 -56h122l-11 -76h-122l-22 -159h77c113 0 178 -58 163 -169l-12 -88c-15 -110 -98 -168 -211 -168zM389 168l12 88c5 37 -13 75 -68 75h-77l-34 -237h77c55 0 85 38 90 74z" />
    <glyph glyph-name="uni048D" unicode="&#x48d;" horiz-adv-x="502" 
d="M286 0h-185l82 584h-78l11 76h78l8 56h108l-8 -56h122l-11 -76h-122l-22 -159h77c113 0 178 -58 163 -169l-12 -88c-15 -110 -98 -168 -211 -168zM389 168l12 88c5 37 -13 75 -68 75h-77l-34 -237h77c55 0 85 38 90 74z" />
    <glyph glyph-name="uni048E" unicode="&#x48e;" horiz-adv-x="464" 
d="M452 240l-52 60c-32 -17 -70 -25 -112 -25h-77l-39 -275h-108l101 716h185c114 0 179 -62 162 -177l-13 -88c-7 -52 -28 -93 -59 -122l49 -56zM337 374l-58 67l36 32l59 -68c9 14 15 30 17 46l13 88c6 41 -11 84 -67 84h-77l-36 -256h77c13 0 25 2 36 7z" />
    <glyph glyph-name="uni048F" unicode="&#x48f;" horiz-adv-x="464" 
d="M452 240l-52 60c-32 -17 -70 -25 -112 -25h-77l-39 -275h-108l101 716h185c114 0 179 -62 162 -177l-13 -88c-7 -52 -28 -93 -59 -122l49 -56zM337 374l-58 67l36 32l59 -68c9 14 15 30 17 46l13 88c6 41 -11 84 -67 84h-77l-36 -256h77c13 0 25 2 36 7z" />
    <glyph glyph-name="uni0490" unicode="&#x490;" horiz-adv-x="406" 
d="M172 0h-108l101 716h215l16 120h102l-29 -213h-209z" />
    <glyph glyph-name="uni0491" unicode="&#x491;" horiz-adv-x="406" 
d="M172 0h-108l101 716h215l16 120h102l-29 -213h-209z" />
    <glyph glyph-name="uni0492" unicode="&#x492;" horiz-adv-x="416" 
d="M231 341l-48 -341h-108l48 341h-52l11 75h52l42 300h317l-13 -93h-209l-29 -207h112l-11 -75h-112z" />
    <glyph glyph-name="uni0493" unicode="&#x493;" horiz-adv-x="416" 
d="M231 341l-48 -341h-108l48 341h-52l11 75h52l42 300h317l-13 -93h-209l-29 -207h112l-11 -75h-112z" />
    <glyph glyph-name="uni0494" unicode="&#x494;" horiz-adv-x="484" 
d="M216 -106h-11l13 94h11c68 0 104 46 115 124l12 88c11 77 -12 123 -80 123h-59l-45 -323h-108l101 716h325l-13 -93h-217l-29 -206h59c124 0 196 -58 174 -217l-12 -88c-22 -160 -112 -218 -236 -218z" />
    <glyph glyph-name="uni0495" unicode="&#x495;" horiz-adv-x="484" 
d="M216 -106h-11l13 94h11c68 0 104 46 115 124l12 88c11 77 -12 123 -80 123h-59l-45 -323h-108l101 716h325l-13 -93h-217l-29 -206h59c124 0 196 -58 174 -217l-12 -88c-22 -160 -112 -218 -236 -218z" />
    <glyph glyph-name="uni0496" unicode="&#x496;" horiz-adv-x="774" 
d="M739 -106h-108l15 106h-43l-113 323h-27l-45 -323h-108l45 323h-26l-204 -323h-107l3 18l212 346l-109 334l3 18h108l102 -300h31l43 300h108l-43 -300h32l187 300h108l-3 -18l-201 -334l89 -270h79z" />
    <glyph glyph-name="uni0497" unicode="&#x497;" horiz-adv-x="774" 
d="M739 -106h-108l15 106h-43l-113 323h-27l-45 -323h-108l45 323h-26l-204 -323h-107l3 18l212 346l-109 334l3 18h108l102 -300h31l43 300h108l-43 -300h32l187 300h108l-3 -18l-201 -334l89 -270h79z" />
    <glyph glyph-name="uni0498" unicode="&#x498;" horiz-adv-x="429" 
d="M218 -118h-101l3 18l70 90c-76 6 -152 47 -138 147l16 113h107l-16 -113c-6 -42 31 -56 65 -56c33 0 75 14 81 56l18 130c6 43 -32 56 -65 56h-48l13 93h48c33 0 75 13 81 56l15 107c6 41 -32 56 -65 56c-34 0 -75 -14 -81 -56l-16 -113h-107l16 113
c16 110 118 149 201 149c84 0 175 -39 160 -149l-15 -107c-7 -52 -43 -84 -88 -103c40 -18 66 -50 59 -102l-18 -130c-11 -81 -71 -123 -135 -139z" />
    <glyph glyph-name="uni0499" unicode="&#x499;" horiz-adv-x="429" 
d="M218 -118h-101l3 18l70 90c-76 6 -152 47 -138 147l16 113h107l-16 -113c-6 -42 31 -56 65 -56c33 0 75 14 81 56l18 130c6 43 -32 56 -65 56h-48l13 93h48c33 0 75 13 81 56l15 107c6 41 -32 56 -65 56c-34 0 -75 -14 -81 -56l-16 -113h-107l16 113
c16 110 118 149 201 149c84 0 175 -39 160 -149l-15 -107c-7 -52 -43 -84 -88 -103c40 -18 66 -50 59 -102l-18 -130c-11 -81 -71 -123 -135 -139z" />
    <glyph glyph-name="uni049A" unicode="&#x49a;" horiz-adv-x="528" 
d="M492 -106h-108l15 106h-43l-113 323h-26l-45 -323h-108l101 716h108l-43 -300h31l188 300h107l-3 -18l-201 -334l89 -270h79z" />
    <glyph glyph-name="uni049B" unicode="&#x49b;" horiz-adv-x="528" 
d="M492 -106h-108l15 106h-43l-113 323h-26l-45 -323h-108l101 716h108l-43 -300h31l188 300h107l-3 -18l-201 -334l89 -270h79z" />
    <glyph glyph-name="uni049C" unicode="&#x49c;" horiz-adv-x="526" 
d="M517 0h-108l-111 319l-17 -117h-46l17 121h-35l-45 -323h-108l101 716h108l-43 -300h35l18 124h46l-18 -124h3l187 300h108l-3 -18l-201 -334l115 -346z" />
    <glyph glyph-name="uni049D" unicode="&#x49d;" horiz-adv-x="526" 
d="M517 0h-108l-111 319l-17 -117h-46l17 121h-35l-45 -323h-108l101 716h108l-43 -300h35l18 124h46l-18 -124h3l187 300h108l-3 -18l-201 -334l115 -346z" />
    <glyph glyph-name="uni049E" unicode="&#x49e;" horiz-adv-x="509" 
d="M502 0h-108l-114 323h-26l-45 -323h-108l84 595h-78l10 75h78l7 46h108l-7 -46h78l-10 -75h-78l-26 -179h31l188 300h108l-3 -18l-202 -334l116 -346z" />
    <glyph glyph-name="uni049F" unicode="&#x49f;" horiz-adv-x="509" 
d="M502 0h-108l-114 323h-26l-45 -323h-108l84 595h-78l10 75h78l7 46h108l-7 -46h78l-10 -75h-78l-26 -179h31l188 300h108l-3 -18l-202 -334l116 -346z" />
    <glyph glyph-name="uni04A0" unicode="&#x4a0;" horiz-adv-x="509" 
d="M502 0h-108l-114 323h-26l-45 -323h-108l88 624h-78l13 92h186l-43 -300h31l188 300h108l-3 -18l-202 -334l116 -346z" />
    <glyph glyph-name="uni04A1" unicode="&#x4a1;" horiz-adv-x="509" 
d="M502 0h-108l-114 323h-26l-45 -323h-108l88 624h-78l13 92h186l-43 -300h31l188 300h108l-3 -18l-202 -334l116 -346z" />
    <glyph glyph-name="uni04A2" unicode="&#x4a2;" horiz-adv-x="537" 
d="M501 -106h-108l15 106h-63l45 323h-173l-45 -323h-108l101 716h108l-43 -300h173l43 300h108l-88 -622h63z" />
    <glyph glyph-name="uni04A3" unicode="&#x4a3;" horiz-adv-x="537" 
d="M501 -106h-108l15 106h-63l45 323h-173l-45 -323h-108l101 716h108l-43 -300h173l43 300h108l-88 -622h63z" />
    <glyph glyph-name="uni04A4" unicode="&#x4a4;" horiz-adv-x="719" 
d="M453 0h-108l45 323h-173l-45 -323h-108l101 716h108l-43 -300h173l43 300h351l-13 -92h-243z" />
    <glyph glyph-name="uni04A5" unicode="&#x4a5;" horiz-adv-x="719" 
d="M453 0h-108l45 323h-173l-45 -323h-108l101 716h108l-43 -300h173l43 300h351l-13 -92h-243z" />
    <glyph glyph-name="uni04A6" unicode="&#x4a6;" horiz-adv-x="694" 
d="M445 -106h-12l13 94h12c55 0 86 46 97 124l12 88c11 77 -13 123 -80 123h-43l-45 -323h-106l88 623h-121l-88 -623h-108l101 716h335l-42 -299h43c123 0 195 -58 173 -217l-12 -88c-22 -160 -104 -218 -217 -218z" />
    <glyph glyph-name="uni04A7" unicode="&#x4a7;" horiz-adv-x="694" 
d="M445 -106h-12l13 94h12c55 0 86 46 97 124l12 88c11 77 -13 123 -80 123h-43l-45 -323h-106l88 623h-121l-88 -623h-108l101 716h335l-42 -299h43c123 0 195 -58 173 -217l-12 -88c-22 -160 -104 -218 -217 -218z" />
    <glyph glyph-name="uni04A8" unicode="&#x4a8;" horiz-adv-x="476" 
d="M344 -145h-37c-53 0 -116 23 -102 122l2 14c-85 8 -153 49 -139 146l62 442c15 110 118 149 202 149c83 0 175 -39 159 -149l-16 -113h-108l16 113c6 41 -31 56 -64 56s-75 -14 -81 -56l-62 -442c-5 -34 15 -48 44 -54l26 186c14 103 78 123 124 123
c51 0 110 -28 99 -105l-18 -123c-15 -107 -78 -159 -164 -171l-2 -16c-5 -41 16 -46 33 -46h37zM369 164l18 123c3 22 -10 29 -26 29c-10 0 -29 -5 -35 -47l-26 -183c42 11 64 39 69 78z" />
    <glyph glyph-name="uni04A9" unicode="&#x4a9;" horiz-adv-x="476" 
d="M344 -145h-37c-53 0 -116 23 -102 122l2 14c-85 8 -153 49 -139 146l62 442c15 110 118 149 202 149c83 0 175 -39 159 -149l-16 -113h-108l16 113c6 41 -31 56 -64 56s-75 -14 -81 -56l-62 -442c-5 -34 15 -48 44 -54l26 186c14 103 78 123 124 123
c51 0 110 -28 99 -105l-18 -123c-15 -107 -78 -159 -164 -171l-2 -16c-5 -41 16 -46 33 -46h37zM369 164l18 123c3 22 -10 29 -26 29c-10 0 -29 -5 -35 -47l-26 -183c42 11 64 39 69 78z" />
    <glyph glyph-name="uni04AA" unicode="&#x4aa;" 
d="M310 -118h-103l-27 111c-67 12 -125 55 -112 144l62 442c15 110 118 149 202 149c83 0 175 -39 159 -149l-16 -113h-108l16 113c6 41 -32 56 -65 56s-74 -14 -80 -56l-62 -442c-6 -41 32 -56 65 -56s74 15 80 56l16 113h108l-16 -113c-13 -93 -90 -135 -164 -145l47 -92z
" />
    <glyph glyph-name="uni04AB" unicode="&#x4ab;" 
d="M310 -118h-103l-27 111c-67 12 -125 55 -112 144l62 442c15 110 118 149 202 149c83 0 175 -39 159 -149l-16 -113h-108l16 113c6 41 -32 56 -65 56s-74 -14 -80 -56l-62 -442c-6 -41 32 -56 65 -56s74 15 80 56l16 113h108l-16 -113c-13 -93 -90 -135 -164 -145l47 -92z
" />
    <glyph glyph-name="uni04AC" unicode="&#x4ac;" horiz-adv-x="370" 
d="M287 -106h-107l14 106h-63l88 623h-122l13 93h352l-13 -93h-122l-74 -529h62z" />
    <glyph glyph-name="uni04AD" unicode="&#x4ad;" horiz-adv-x="370" 
d="M287 -106h-107l14 106h-63l88 623h-122l13 93h352l-13 -93h-122l-74 -529h62z" />
    <glyph glyph-name="uni04AE" unicode="&#x4ae;" horiz-adv-x="422" 
d="M265 0h-108l39 278l-89 420l3 18h98l61 -306l148 306h98l-3 -18l-208 -423z" />
    <glyph glyph-name="uni04AF" unicode="&#x4af;" horiz-adv-x="422" 
d="M265 0h-108l39 278l-89 420l3 18h98l61 -306l148 306h98l-3 -18l-208 -423z" />
    <glyph glyph-name="uni04B0" unicode="&#x4b0;" horiz-adv-x="422" 
d="M265 0h-108l28 200h-121l11 75h121v3l-89 420l3 18h98l58 -326l151 326h98l-3 -18l-208 -423h121l-11 -75h-121z" />
    <glyph glyph-name="uni04B1" unicode="&#x4b1;" horiz-adv-x="422" 
d="M265 0h-108l28 200h-121l11 75h121v3l-89 420l3 18h98l58 -326l151 326h98l-3 -18l-208 -423h121l-11 -75h-121z" />
    <glyph glyph-name="uni04B2" unicode="&#x4b2;" horiz-adv-x="466" 
d="M431 -106h-108l15 106h-33l-64 230l-127 -230h-99l3 18l188 340l-93 340l3 18h99l62 -231l129 231h98l-3 -18l-189 -340l72 -264h75z" />
    <glyph glyph-name="uni04B3" unicode="&#x4b3;" horiz-adv-x="466" 
d="M431 -106h-108l15 106h-33l-64 230l-127 -230h-99l3 18l188 340l-93 340l3 18h99l62 -231l129 231h98l-3 -18l-189 -340l72 -264h75z" />
    <glyph glyph-name="uni04B4" unicode="&#x4b4;" horiz-adv-x="574" 
d="M531 -150h-106l21 150h-345l90 640h-78l11 76h282l-11 -76h-96l-77 -546h174l88 622h108l-88 -622h61z" />
    <glyph glyph-name="uni04B5" unicode="&#x4b5;" horiz-adv-x="574" 
d="M531 -150h-106l21 150h-345l90 640h-78l11 76h282l-11 -76h-96l-77 -546h174l88 622h108l-88 -622h61z" />
    <glyph glyph-name="uni04B6" unicode="&#x4b6;" horiz-adv-x="495" 
d="M459 -106h-107l15 106h-62l34 243c-24 -8 -50 -12 -79 -12c-114 0 -178 60 -162 176l43 309h106l-43 -309c-6 -40 13 -84 68 -84c28 0 56 4 80 12l54 381h106l-88 -622h63z" />
    <glyph glyph-name="uni04B7" unicode="&#x4b7;" horiz-adv-x="495" 
d="M459 -106h-107l15 106h-62l34 243c-24 -8 -50 -12 -79 -12c-114 0 -178 60 -162 176l43 309h106l-43 -309c-6 -40 13 -84 68 -84c28 0 56 4 80 12l54 381h106l-88 -622h63z" />
    <glyph glyph-name="uni04B8" unicode="&#x4b8;" horiz-adv-x="477" 
d="M411 0h-106l34 243c-16 -5 -34 -9 -53 -11l-14 -100h-46l14 99c-102 7 -157 67 -142 176l43 309h106l-43 -309c-5 -35 9 -72 49 -82l20 145h46l-20 -146c18 1 36 5 53 11l54 381h106z" />
    <glyph glyph-name="uni04B9" unicode="&#x4b9;" horiz-adv-x="477" 
d="M411 0h-106l34 243c-16 -5 -34 -9 -53 -11l-14 -100h-46l14 99c-102 7 -157 67 -142 176l43 309h106l-43 -309c-5 -35 9 -72 49 -82l20 145h46l-20 -146c18 1 36 5 53 11l54 381h106z" />
    <glyph glyph-name="uni04BA" unicode="&#x4ba;" horiz-adv-x="477" 
d="M437 0h-108l37 265c6 41 -11 84 -67 84c-28 0 -55 -4 -79 -12l-47 -337h-108l101 716h108l-41 -286c25 8 50 12 79 12c113 0 178 -61 162 -177z" />
    <glyph glyph-name="uni04BB" unicode="&#x4bb;" horiz-adv-x="477" 
d="M437 0h-108l37 265c6 41 -11 84 -67 84c-28 0 -55 -4 -79 -12l-47 -337h-108l101 716h108l-41 -286c25 8 50 12 79 12c113 0 178 -61 162 -177z" />
    <glyph glyph-name="uni04BC" unicode="&#x4bc;" horiz-adv-x="609" 
d="M605 250l-16 -113c-15 -109 -118 -148 -202 -148c-83 0 -174 39 -159 148l26 185h-22c-75 0 -159 39 -143 149l5 35h107l-5 -35c-6 -42 24 -55 49 -55h22l23 163c15 110 118 149 201 149c84 0 175 -39 160 -149l-36 -257h-254l-26 -185c-6 -41 31 -56 65 -56
c33 0 75 15 81 56l16 113h108zM374 416h146l23 163c6 42 -32 56 -65 56c-34 0 -75 -15 -81 -56z" />
    <glyph glyph-name="uni04BD" unicode="&#x4bd;" horiz-adv-x="609" 
d="M605 250l-16 -113c-15 -109 -118 -148 -202 -148c-83 0 -174 39 -159 148l26 185h-22c-75 0 -159 39 -143 149l5 35h107l-5 -35c-6 -42 24 -55 49 -55h22l23 163c15 110 118 149 201 149c84 0 175 -39 160 -149l-36 -257h-254l-26 -185c-6 -41 31 -56 65 -56
c33 0 75 15 81 56l16 113h108zM374 416h146l23 163c6 42 -32 56 -65 56c-34 0 -75 -15 -81 -56z" />
    <glyph glyph-name="uni04BE" unicode="&#x4be;" horiz-adv-x="609" 
d="M469 -118h-102l-27 111c-67 12 -125 55 -112 144l26 185h-22c-75 0 -159 39 -143 149l5 35h107l-5 -35c-6 -42 24 -55 49 -55h22l23 163c15 110 118 149 201 149c84 0 175 -39 160 -149l-36 -257h-254l-26 -185c-6 -41 31 -56 65 -56c33 0 75 15 81 56l16 113h108
l-16 -113c-13 -93 -90 -135 -165 -145l47 -92zM520 416l23 163c6 42 -32 56 -65 56c-34 0 -75 -14 -81 -56l-23 -163h146z" />
    <glyph glyph-name="uni04BF" unicode="&#x4bf;" horiz-adv-x="609" 
d="M469 -118h-102l-27 111c-67 12 -125 55 -112 144l26 185h-22c-75 0 -159 39 -143 149l5 35h107l-5 -35c-6 -42 24 -55 49 -55h22l23 163c15 110 118 149 201 149c84 0 175 -39 160 -149l-36 -257h-254l-26 -185c-6 -41 31 -56 65 -56c33 0 75 15 81 56l16 113h108
l-16 -113c-13 -93 -90 -135 -165 -145l47 -92zM520 416l23 163c6 42 -32 56 -65 56c-34 0 -75 -14 -81 -56l-23 -163h146z" />
    <glyph glyph-name="uni04C0" unicode="&#x4c0;" horiz-adv-x="370" 
d="M315 0h-260l13 94h76l75 529h-76l13 93h260l-13 -93h-76l-75 -529h76z" />
    <glyph glyph-name="uni04C1" unicode="&#x4c1;" horiz-adv-x="728" 
d="M711 0h-108l-113 323h-27l-45 -323h-108l45 323h-26l-204 -323h-107l3 18l212 346l-109 334l3 18h108l102 -300h31l43 300h108l-43 -300h32l187 300h108l-3 -18l-201 -334l115 -346zM597 861l-1 -10c-7 -61 -57 -96 -126 -96s-107 35 -100 96l1 10h71l-1 -10
c-2 -22 9 -34 38 -34c28 0 46 12 48 34l1 10h69z" />
    <glyph glyph-name="uni04C2" unicode="&#x4c2;" horiz-adv-x="728" 
d="M711 0h-108l-113 323h-27l-45 -323h-108l45 323h-26l-204 -323h-107l3 18l212 346l-109 334l3 18h108l102 -300h31l43 300h108l-43 -300h32l187 300h108l-3 -18l-201 -334l115 -346zM597 861l-1 -10c-7 -61 -57 -96 -126 -96s-107 35 -100 96l1 10h71l-1 -10
c-2 -22 9 -34 38 -34c28 0 46 12 48 34l1 10h69z" />
    <glyph glyph-name="uni04C3" unicode="&#x4c3;" horiz-adv-x="504" 
d="M234 -106h-29l13 94h29c68 0 103 46 114 124l12 88c11 77 -11 123 -79 123h-77l-45 -323h-108l101 716h108l-42 -299h31l187 299h107l-3 -18l-175 -290c79 -21 120 -83 103 -208l-12 -88c-22 -160 -111 -218 -235 -218z" />
    <glyph glyph-name="uni04C4" unicode="&#x4c4;" horiz-adv-x="504" 
d="M234 -106h-29l13 94h29c68 0 103 46 114 124l12 88c11 77 -11 123 -79 123h-77l-45 -323h-108l101 716h108l-42 -299h31l187 299h107l-3 -18l-175 -290c79 -21 120 -83 103 -208l-12 -88c-22 -160 -111 -218 -235 -218z" />
    <glyph glyph-name="uni04C5" unicode="&#x4c5;" horiz-adv-x="540" 
d="M448 -106h-81l38 106h-64l88 623h-123l-45 -317c-33 -232 -97 -306 -250 -306l13 94c82 3 104 31 132 230l55 392h338l-88 -622h80l-2 -18z" />
    <glyph glyph-name="uni04C6" unicode="&#x4c6;" horiz-adv-x="540" 
d="M448 -106h-81l38 106h-64l88 623h-123l-45 -317c-33 -232 -97 -306 -250 -306l13 94c82 3 104 31 132 230l55 392h338l-88 -622h80l-2 -18z" />
    <glyph glyph-name="uni04C7" unicode="&#x4c7;" horiz-adv-x="517" 
d="M234 -106h-11l13 94h11c68 0 103 46 114 124l29 211h-173l-45 -323h-108l101 716h108l-43 -300h173l43 300h108l-85 -604c-23 -160 -111 -218 -235 -218z" />
    <glyph glyph-name="uni04C8" unicode="&#x4c8;" horiz-adv-x="517" 
d="M234 -106h-11l13 94h11c68 0 103 46 114 124l29 211h-173l-45 -323h-108l101 716h108l-43 -300h173l43 300h108l-85 -604c-23 -160 -111 -218 -235 -218z" />
    <glyph glyph-name="uni04C9" unicode="&#x4c9;" horiz-adv-x="542" 
d="M454 -106h-82l38 106h-65l45 323h-173l-45 -323h-108l101 716h108l-43 -300h173l43 300h108l-88 -622h80l-2 -18z" />
    <glyph glyph-name="uni04CA" unicode="&#x4ca;" horiz-adv-x="542" 
d="M454 -106h-82l38 106h-65l45 323h-173l-45 -323h-108l101 716h108l-43 -300h173l43 300h108l-88 -622h80l-2 -18z" />
    <glyph glyph-name="uni04CB" unicode="&#x4cb;" horiz-adv-x="477" 
d="M335 -106h-108l28 200h63l21 149c-24 -8 -50 -12 -79 -12c-114 0 -178 60 -162 176l43 309h106l-43 -309c-6 -40 13 -84 68 -84c28 0 56 4 80 12l54 381h106l-101 -716h-61z" />
    <glyph glyph-name="uni04CC" unicode="&#x4cc;" horiz-adv-x="477" 
d="M335 -106h-108l28 200h63l21 149c-24 -8 -50 -12 -79 -12c-114 0 -178 60 -162 176l43 309h106l-43 -309c-6 -40 13 -84 68 -84c28 0 56 4 80 12l54 381h106l-101 -716h-61z" />
    <glyph glyph-name="uni04CD" unicode="&#x4cd;" horiz-adv-x="654" 
d="M566 -106h-82l38 106h-63l66 469l-184 -286l-103 286l-66 -469h-108l101 716h99l109 -306l196 306h97l-88 -622h81l-2 -18z" />
    <glyph glyph-name="uni04CE" unicode="&#x4ce;" horiz-adv-x="654" 
d="M566 -106h-82l38 106h-63l66 469l-184 -286l-103 286l-66 -469h-108l101 716h99l109 -306l196 306h97l-88 -622h81l-2 -18z" />
    <glyph glyph-name="uni04D0" unicode="&#x4d0;" horiz-adv-x="460" 
d="M451 0h-103l-12 155h-169l-55 -155h-103l3 18l265 698h108l69 -698zM328 249l-23 294l-104 -294h127zM463 861l-1 -10c-7 -61 -57 -96 -126 -96s-107 35 -100 96l1 10h71l-1 -10c-2 -22 9 -34 38 -34c28 0 46 12 48 34l1 10h69z" />
    <glyph glyph-name="uni04D1" unicode="&#x4d1;" 
d="M398 0h-180c-84 0 -174 40 -159 150l11 84c17 126 120 152 205 172l75 18l22 156c6 41 -31 56 -64 56s-75 -15 -81 -56l-16 -112h-108l16 112c16 110 118 148 202 148c83 0 174 -38 159 -148zM304 94l33 236l-75 -18c-33 -7 -76 -21 -84 -78l-12 -84
c-6 -43 33 -56 66 -56h72zM459 861l-1 -10c-7 -61 -57 -96 -126 -96s-107 35 -100 96l1 10h71l-1 -10c-2 -22 9 -34 38 -34c28 0 46 12 48 34l1 10h69z" />
    <glyph glyph-name="uni04D2" unicode="&#x4d2;" horiz-adv-x="460" 
d="M451 0h-103l-12 155h-169l-55 -155h-103l3 18l265 698h108l69 -698zM328 249l-23 294l-104 -294h127zM318 844l-12 -83h-89l12 83h89zM468 844l-12 -83h-89l12 83h89z" />
    <glyph glyph-name="uni04D3" unicode="&#x4d3;" 
d="M398 0h-180c-84 0 -174 40 -159 150l11 84c17 126 120 152 205 172l75 18l22 156c6 41 -31 56 -64 56s-75 -15 -81 -56l-16 -112h-108l16 112c16 110 118 148 202 148c83 0 174 -38 159 -148zM304 94l33 236l-75 -18c-33 -7 -76 -21 -84 -78l-12 -84
c-6 -43 33 -56 66 -56h72zM313 844l-12 -83h-89l12 83h89zM463 844l-12 -83h-89l12 83h89z" />
    <glyph glyph-name="uni04D4" unicode="&#x4d4;" horiz-adv-x="609" 
d="M576 0h-281l22 155h-150l-55 -155h-103l3 18l265 698h400l-13 -93h-173l-30 -207h138l-13 -93h-138l-32 -229h173zM330 249l53 374h-48l-134 -374h129z" />
    <glyph glyph-name="uni04D5" unicode="&#x4d5;" horiz-adv-x="617" 
d="M604 250l-18 -130c-14 -98 -111 -131 -178 -131c-43 0 -85 13 -107 46c-33 -33 -79 -46 -120 -46c-66 0 -154 33 -140 131l15 109c15 108 78 147 187 173l59 14l25 180c4 29 -22 39 -47 39c-22 0 -51 -10 -55 -39l-18 -130h-108l18 130c14 100 106 132 172 132
c40 0 81 -13 103 -46c32 33 78 46 121 46c68 0 153 -34 140 -132l-39 -274h-219l-28 -202c-4 -29 25 -39 50 -39c24 0 57 10 61 39l18 130h108zM164 229l-15 -109c-4 -29 25 -39 49 -39c25 0 58 10 62 39l28 202l-58 -14c-49 -12 -61 -46 -66 -79zM409 416h111l25 180
c4 29 -25 39 -50 39s-57 -10 -61 -39z" />
    <glyph glyph-name="uni04D6" unicode="&#x4d6;" horiz-adv-x="415" 
d="M394 94l-13 -94h-317l101 716h317l-13 -93h-209l-30 -207h173l-13 -93h-173l-32 -229h209zM457 861l-1 -10c-7 -61 -57 -96 -126 -96s-107 35 -100 96l1 10h71l-1 -10c-2 -22 9 -34 38 -34c28 0 46 12 48 34l1 10h69z" />
    <glyph glyph-name="uni04D7" unicode="&#x4d7;" 
d="M444 250l-16 -113c-15 -109 -117 -148 -200 -148c-84 0 -176 39 -161 148l62 442c15 110 118 149 202 149c83 0 174 -39 159 -149l-36 -257h-253l-26 -185c-6 -41 32 -56 65 -56s74 15 80 56l16 113h108zM214 416h145l23 163c6 42 -31 56 -64 56s-75 -15 -81 -56z
M459 861l-1 -10c-7 -61 -57 -96 -126 -96s-107 35 -100 96l1 10h71l-1 -10c-2 -22 9 -34 38 -34c28 0 46 12 48 34l1 10h69z" />
    <glyph glyph-name="uni04D8" unicode="&#x4d8;" 
d="M490 579l-62 -442c-15 -109 -117 -148 -200 -148c-84 0 -176 39 -161 148l36 257h253l26 185c6 42 -31 56 -64 56s-75 -15 -81 -56l-16 -113h-108l16 113c16 110 118 149 202 149c83 0 175 -39 159 -149zM198 300l-23 -163c-6 -42 32 -56 65 -56s74 15 80 56l23 163h-145
z" />
    <glyph glyph-name="uni04D9" unicode="&#x4d9;" 
d="M490 579l-62 -442c-15 -109 -117 -148 -200 -148c-84 0 -176 39 -161 148l36 257h253l26 185c6 42 -31 56 -64 56s-75 -15 -81 -56l-16 -113h-108l16 113c16 110 118 149 202 149c83 0 175 -39 159 -149zM198 300l-23 -163c-6 -42 32 -56 65 -56s74 15 80 56l23 163h-145
z" />
    <glyph glyph-name="uni04DA" unicode="&#x4da;" 
d="M490 579l-62 -442c-15 -109 -117 -148 -200 -148c-84 0 -176 39 -161 148l36 257h253l26 185c6 42 -31 56 -64 56s-75 -15 -81 -56l-16 -113h-108l16 113c16 110 118 149 202 149c83 0 175 -39 159 -149zM198 300l-23 -163c-6 -42 32 -56 65 -56s74 15 80 56l23 163h-145
zM463 844l-12 -83h-89l12 83h89zM313 844l-12 -83h-89l12 83h89z" />
    <glyph glyph-name="uni04DB" unicode="&#x4db;" 
d="M490 579l-62 -442c-15 -109 -117 -148 -200 -148c-84 0 -176 39 -161 148l36 257h253l26 185c6 42 -31 56 -64 56s-75 -15 -81 -56l-16 -113h-108l16 113c16 110 118 149 202 149c83 0 175 -39 159 -149zM198 300l-23 -163c-6 -42 32 -56 65 -56s74 15 80 56l23 163h-145
zM463 844l-12 -83h-89l12 83h89zM313 844l-12 -83h-89l12 83h89z" />
    <glyph glyph-name="uni04DC" unicode="&#x4dc;" horiz-adv-x="728" 
d="M711 0h-108l-113 323h-27l-45 -323h-108l45 323h-26l-204 -323h-107l3 18l212 346l-109 334l3 18h108l102 -300h31l43 300h108l-43 -300h32l187 300h108l-3 -18l-201 -334l115 -346zM602 844l-12 -83h-89l12 83h89zM452 844l-12 -83h-89l12 83h89z" />
    <glyph glyph-name="uni04DD" unicode="&#x4dd;" horiz-adv-x="728" 
d="M711 0h-108l-113 323h-27l-45 -323h-108l45 323h-26l-204 -323h-107l3 18l212 346l-109 334l3 18h108l102 -300h31l43 300h108l-43 -300h32l187 300h108l-3 -18l-201 -334l115 -346zM602 844l-12 -83h-89l12 83h89zM452 844l-12 -83h-89l12 83h89z" />
    <glyph glyph-name="uni04DE" unicode="&#x4de;" horiz-adv-x="429" 
d="M305 137l19 130c6 43 -33 56 -66 56h-48l14 93h48c33 0 74 13 80 56l15 107c6 41 -32 56 -65 56c-34 0 -75 -14 -81 -56l-16 -113h-107l16 113c16 110 118 149 201 149c84 0 176 -39 160 -149l-15 -107c-7 -52 -42 -84 -88 -103c40 -18 67 -50 60 -102l-19 -130
c-16 -109 -117 -148 -201 -148c-83 0 -175 39 -160 148l16 113h107l-16 -113c-6 -42 31 -56 65 -56c33 0 75 14 81 56zM454 844l-12 -83h-89l12 83h89zM304 844l-12 -83h-89l12 83h89z" />
    <glyph glyph-name="uni04DF" unicode="&#x4df;" horiz-adv-x="429" 
d="M305 137l19 130c6 43 -33 56 -66 56h-48l14 93h48c33 0 74 13 80 56l15 107c6 41 -32 56 -65 56c-34 0 -75 -14 -81 -56l-16 -113h-107l16 113c16 110 118 149 201 149c84 0 176 -39 160 -149l-15 -107c-7 -52 -42 -84 -88 -103c40 -18 67 -50 60 -102l-19 -130
c-16 -109 -117 -148 -201 -148c-83 0 -175 39 -160 148l16 113h107l-16 -113c-6 -42 31 -56 65 -56c33 0 75 14 81 56zM454 844l-12 -83h-89l12 83h89zM304 844l-12 -83h-89l12 83h89z" />
    <glyph glyph-name="uni04E0" unicode="&#x4e0;" horiz-adv-x="429" 
d="M428 200l-13 -88c-23 -160 -102 -218 -216 -218c-83 0 -175 39 -160 149l17 123h107l-17 -123c-6 -42 32 -55 66 -55c55 0 86 46 97 124l13 88c11 77 -8 123 -63 123h-86l2 18l159 282h-213l13 93h361l-2 -18l-163 -288c76 -19 117 -81 98 -210z" />
    <glyph glyph-name="uni04E1" unicode="&#x4e1;" horiz-adv-x="429" 
d="M428 200l-13 -88c-23 -160 -102 -218 -216 -218c-83 0 -175 39 -160 149l17 123h107l-17 -123c-6 -42 32 -55 66 -55c55 0 86 46 97 124l13 88c11 77 -8 123 -63 123h-86l2 18l159 282h-213l13 93h361l-2 -18l-163 -288c76 -19 117 -81 98 -210z" />
    <glyph glyph-name="uni04E2" unicode="&#x4e2;" horiz-adv-x="516" 
d="M451 0h-107l63 451l-244 -451h-99l101 716h108l-64 -451l245 451h98zM513 844l-10 -65h-273l10 65h273z" />
    <glyph glyph-name="uni04E3" unicode="&#x4e3;" horiz-adv-x="516" 
d="M451 0h-107l63 451l-244 -451h-99l101 716h108l-64 -451l245 451h98zM513 844l-10 -65h-273l10 65h273z" />
    <glyph glyph-name="uni04E4" unicode="&#x4e4;" horiz-adv-x="516" 
d="M451 0h-107l63 451l-244 -451h-99l101 716h108l-64 -451l245 451h98zM346 844l-12 -83h-89l12 83h89zM496 844l-12 -83h-89l12 83h89z" />
    <glyph glyph-name="uni04E5" unicode="&#x4e5;" horiz-adv-x="516" 
d="M451 0h-107l63 451l-244 -451h-99l101 716h108l-64 -451l245 451h98zM346 844l-12 -83h-89l12 83h89zM496 844l-12 -83h-89l12 83h89z" />
    <glyph glyph-name="uni04E6" unicode="&#x4e6;" horiz-adv-x="459" 
d="M320 137l62 442c6 41 -31 56 -64 56s-75 -14 -81 -56l-62 -442c-6 -41 32 -56 65 -56s74 15 80 56zM67 137l62 442c16 110 118 149 202 149c83 0 175 -39 159 -149l-62 -442c-15 -109 -117 -148 -200 -148c-84 0 -176 39 -161 148zM318 844l-12 -83h-89l12 83h89z
M468 844l-12 -83h-89l12 83h89z" />
    <glyph glyph-name="uni04E7" unicode="&#x4e7;" horiz-adv-x="459" 
d="M320 137l62 442c6 41 -31 56 -64 56s-75 -14 -81 -56l-62 -442c-6 -41 32 -56 65 -56s74 15 80 56zM67 137l62 442c16 110 118 149 202 149c83 0 175 -39 159 -149l-62 -442c-15 -109 -117 -148 -200 -148c-84 0 -176 39 -161 148zM318 844l-12 -83h-89l12 83h89z
M468 844l-12 -83h-89l12 83h89z" />
    <glyph glyph-name="uni04E8" unicode="&#x4e8;" horiz-adv-x="459" 
d="M67 137l62 442c16 110 118 149 202 149c83 0 175 -39 159 -149l-62 -442c-15 -109 -117 -148 -200 -148c-84 0 -176 39 -161 148zM320 137l26 186h-145l-26 -186c-6 -41 32 -56 65 -56s74 15 80 56zM359 416l23 163c6 41 -31 56 -64 56s-75 -14 -81 -56l-23 -163h145z
" />
    <glyph glyph-name="uni04E9" unicode="&#x4e9;" horiz-adv-x="459" 
d="M67 137l62 442c16 110 118 149 202 149c83 0 175 -39 159 -149l-62 -442c-15 -109 -117 -148 -200 -148c-84 0 -176 39 -161 148zM320 137l26 186h-145l-26 -186c-6 -41 32 -56 65 -56s74 15 80 56zM359 416l23 163c6 41 -31 56 -64 56s-75 -14 -81 -56l-23 -163h145z
" />
    <glyph glyph-name="uni04EA" unicode="&#x4ea;" horiz-adv-x="459" 
d="M67 137l62 442c16 110 118 149 202 149c83 0 175 -39 159 -149l-62 -442c-15 -109 -117 -148 -200 -148c-84 0 -176 39 -161 148zM320 137l26 186h-145l-26 -186c-6 -41 32 -56 65 -56s74 15 80 56zM359 416l23 163c6 41 -31 56 -64 56s-75 -14 -81 -56l-23 -163h145z
M468 844l-12 -83h-89l12 83h89zM318 844l-12 -83h-89l12 83h89z" />
    <glyph glyph-name="uni04EB" unicode="&#x4eb;" horiz-adv-x="459" 
d="M67 137l62 442c16 110 118 149 202 149c83 0 175 -39 159 -149l-62 -442c-15 -109 -117 -148 -200 -148c-84 0 -176 39 -161 148zM320 137l26 186h-145l-26 -186c-6 -41 32 -56 65 -56s74 15 80 56zM359 416l23 163c6 41 -31 56 -64 56s-75 -14 -81 -56l-23 -163h145z
M468 844l-12 -83h-89l12 83h89zM318 844l-12 -83h-89l12 83h89z" />
    <glyph glyph-name="uni04EC" unicode="&#x4ec;" horiz-adv-x="451" 
d="M484 579l-62 -442c-15 -109 -117 -148 -201 -148c-83 0 -175 39 -160 148l16 113h106l-16 -113c-6 -41 32 -56 66 -56c33 0 75 15 81 56l26 186h-120l14 93h119l23 163c6 42 -32 56 -65 56c-34 0 -76 -15 -82 -56l-16 -113h-106l16 113c16 110 118 149 201 149
c84 0 176 -39 160 -149zM463 844l-12 -83h-89l12 83h89zM313 844l-12 -83h-89l12 83h89z" />
    <glyph glyph-name="uni04ED" unicode="&#x4ed;" horiz-adv-x="451" 
d="M484 579l-62 -442c-15 -109 -117 -148 -201 -148c-83 0 -175 39 -160 148l16 113h106l-16 -113c-6 -41 32 -56 66 -56c33 0 75 15 81 56l26 186h-120l14 93h119l23 163c6 42 -32 56 -65 56c-34 0 -76 -15 -82 -56l-16 -113h-106l16 113c16 110 118 149 201 149
c84 0 176 -39 160 -149zM463 844l-12 -83h-89l12 83h89zM313 844l-12 -83h-89l12 83h89z" />
    <glyph glyph-name="uni04EE" unicode="&#x4ee;" horiz-adv-x="425" 
d="M515 698l-238 -582c-33 -83 -90 -123 -167 -123c-16 0 -33 4 -45 8l13 94c15 -5 28 -8 40 -8c28 0 44 13 55 38l26 63l-89 510l2 18h104l54 -377l145 377h102zM466 844l-9 -65h-273l9 65h273z" />
    <glyph glyph-name="uni04EF" unicode="&#x4ef;" horiz-adv-x="425" 
d="M515 698l-238 -582c-33 -83 -90 -123 -167 -123c-16 0 -33 4 -45 8l13 94c15 -5 28 -8 40 -8c28 0 44 13 55 38l26 63l-89 510l2 18h104l54 -377l145 377h102zM466 844l-9 -65h-273l9 65h273z" />
    <glyph glyph-name="uni04F0" unicode="&#x4f0;" horiz-adv-x="425" 
d="M515 698l-238 -582c-33 -83 -90 -123 -167 -123c-16 0 -33 4 -45 8l13 94c15 -5 28 -8 40 -8c28 0 44 13 55 38l26 63l-89 510l2 18h104l54 -377l145 377h102zM449 844l-11 -83h-89l11 83h89zM299 844l-11 -83h-89l11 83h89z" />
    <glyph glyph-name="uni04F1" unicode="&#x4f1;" horiz-adv-x="425" 
d="M515 698l-238 -582c-33 -83 -90 -123 -167 -123c-16 0 -33 4 -45 8l13 94c15 -5 28 -8 40 -8c28 0 44 13 55 38l26 63l-89 510l2 18h104l54 -377l145 377h102zM449 844l-11 -83h-89l11 83h89zM299 844l-11 -83h-89l11 83h89z" />
    <glyph glyph-name="uni04F2" unicode="&#x4f2;" horiz-adv-x="425" 
d="M515 698l-238 -582c-33 -83 -90 -123 -167 -123c-16 0 -33 4 -45 8l13 94c15 -5 28 -8 40 -8c28 0 44 13 55 38l26 63l-89 510l2 18h104l54 -377l145 377h102zM362 844l-76 -83h-64l58 100h85zM480 844l-75 -83h-64l58 100h84z" />
    <glyph glyph-name="uni04F3" unicode="&#x4f3;" horiz-adv-x="425" 
d="M515 698l-238 -582c-33 -83 -90 -123 -167 -123c-16 0 -33 4 -45 8l13 94c15 -5 28 -8 40 -8c28 0 44 13 55 38l26 63l-89 510l2 18h104l54 -377l145 377h102zM362 844l-76 -83h-64l58 100h85zM480 844l-75 -83h-64l58 100h84z" />
    <glyph glyph-name="uni04F4" unicode="&#x4f4;" horiz-adv-x="477" 
d="M411 0h-106l34 243c-24 -8 -50 -12 -79 -12c-114 0 -178 60 -162 176l43 309h106l-43 -309c-6 -40 13 -84 68 -84c28 0 56 4 80 12l54 381h106zM477 844l-12 -83h-89l12 83h89zM327 844l-12 -83h-89l12 83h89z" />
    <glyph glyph-name="uni04F5" unicode="&#x4f5;" horiz-adv-x="477" 
d="M411 0h-106l34 243c-24 -8 -50 -12 -79 -12c-114 0 -178 60 -162 176l43 309h106l-43 -309c-6 -40 13 -84 68 -84c28 0 56 4 80 12l54 381h106zM477 844l-12 -83h-89l12 83h89zM327 844l-12 -83h-89l12 83h89z" />
    <glyph glyph-name="uni04F8" unicode="&#x4f8;" horiz-adv-x="660" 
d="M185 94h77c56 0 85 42 91 83l12 88c5 33 -11 84 -67 84h-77zM473 265l-12 -88c-16 -116 -98 -177 -212 -177h-185l101 716h108l-39 -274h77c114 0 179 -61 162 -177zM596 0h-108l101 716h108zM419 844l-12 -83h-89l12 83h89zM569 844l-12 -83h-89l12 83h89z" />
    <glyph glyph-name="uni04F9" unicode="&#x4f9;" horiz-adv-x="660" 
d="M185 94h77c56 0 85 42 91 83l12 88c5 33 -11 84 -67 84h-77zM473 265l-12 -88c-16 -116 -98 -177 -212 -177h-185l101 716h108l-39 -274h77c114 0 179 -61 162 -177zM596 0h-108l101 716h108zM419 844l-12 -83h-89l12 83h89zM569 844l-12 -83h-89l12 83h89z" />
    <glyph glyph-name="uni0500" unicode="&#x500;" horiz-adv-x="464" 
d="M306 94l36 255h-78c-56 0 -86 -43 -92 -84l-12 -88c-6 -41 12 -83 68 -83h78zM399 0h-184c-114 0 -177 62 -161 177l13 88c17 116 96 177 210 177h78l39 274h106z" />
    <glyph glyph-name="uni0501" unicode="&#x501;" horiz-adv-x="464" 
d="M306 94l36 255h-78c-56 0 -86 -43 -92 -84l-12 -88c-6 -41 12 -83 68 -83h78zM399 0h-184c-114 0 -177 62 -161 177l13 88c17 116 96 177 210 177h78l39 274h106z" />
    <glyph glyph-name="uni0502" unicode="&#x502;" horiz-adv-x="632" 
d="M510 120l42 296h108l-42 -296c-14 -98 -102 -131 -172 -131c-41 0 -87 16 -105 61c-31 -33 -76 -50 -126 -50c-114 0 -178 61 -161 177l13 88c17 116 97 177 211 177h78l38 274h106l-84 -596c-4 -29 21 -39 43 -39c19 0 47 10 51 39zM318 177l24 172h-78
c-56 0 -86 -51 -91 -84l-13 -88c-6 -41 13 -83 69 -83c54 0 83 42 89 83z" />
    <glyph glyph-name="uni0503" unicode="&#x503;" horiz-adv-x="632" 
d="M510 120l42 296h108l-42 -296c-14 -98 -102 -131 -172 -131c-41 0 -87 16 -105 61c-31 -33 -76 -50 -126 -50c-114 0 -178 61 -161 177l13 88c17 116 97 177 211 177h78l38 274h106l-84 -596c-4 -29 21 -39 43 -39c19 0 47 10 51 39zM318 177l24 172h-78
c-56 0 -86 -51 -91 -84l-13 -88c-6 -41 13 -83 69 -83c54 0 83 42 89 83z" />
    <glyph glyph-name="uni0504" unicode="&#x504;" horiz-adv-x="627" 
d="M502 120l42 296h108l-42 -296c-14 -98 -102 -131 -172 -131s-150 33 -136 131l21 147c6 43 -32 56 -65 56h-48l13 93h48c33 0 75 13 81 56l15 107c6 41 -32 56 -65 56c-34 0 -75 -14 -81 -56l-16 -113h-107l16 113c16 110 118 149 201 149c84 0 175 -39 160 -149
l-15 -107c-7 -52 -43 -84 -89 -103c41 -18 67 -50 60 -102l-21 -147c-4 -29 20 -39 41 -39c20 0 47 10 51 39z" />
    <glyph glyph-name="uni0505" unicode="&#x505;" horiz-adv-x="627" 
d="M502 120l42 296h108l-42 -296c-14 -98 -102 -131 -172 -131s-150 33 -136 131l21 147c6 43 -32 56 -65 56h-48l13 93h48c33 0 75 13 81 56l15 107c6 41 -32 56 -65 56c-34 0 -75 -14 -81 -56l-16 -113h-107l16 113c16 110 118 149 201 149c84 0 175 -39 160 -149
l-15 -107c-7 -52 -43 -84 -89 -103c41 -18 67 -50 60 -102l-21 -147c-4 -29 20 -39 41 -39c20 0 47 10 51 39z" />
    <glyph glyph-name="uni0506" unicode="&#x506;" horiz-adv-x="477" 
d="M440 -106h-106l15 106h-64l38 267c6 43 -32 56 -65 56h-48l13 93h48c33 0 75 13 81 56l15 107c6 41 -32 56 -65 56c-34 0 -75 -14 -81 -56l-16 -113h-107l16 113c16 110 118 149 201 149c84 0 175 -39 160 -149l-15 -107c-7 -52 -43 -84 -89 -103c41 -18 67 -50 60 -102
l-24 -173h61z" />
    <glyph glyph-name="uni0507" unicode="&#x507;" horiz-adv-x="477" 
d="M440 -106h-106l15 106h-64l38 267c6 43 -32 56 -65 56h-48l13 93h48c33 0 75 13 81 56l15 107c6 41 -32 56 -65 56c-34 0 -75 -14 -81 -56l-16 -113h-107l16 113c16 110 118 149 201 149c84 0 175 -39 160 -149l-15 -107c-7 -52 -43 -84 -89 -103c41 -18 67 -50 60 -102
l-24 -173h61z" />
    <glyph glyph-name="uni0508" unicode="&#x508;" horiz-adv-x="681" 
d="M558 120l42 296h108l-42 -296c-14 -98 -103 -131 -173 -131s-149 33 -135 131l71 503h-123l-45 -317c-33 -232 -97 -306 -250 -306l13 94c82 3 104 31 132 230l55 392h338l-84 -596c-4 -29 19 -39 41 -39c20 0 48 10 52 39z" />
    <glyph glyph-name="uni0509" unicode="&#x509;" horiz-adv-x="681" 
d="M558 120l42 296h108l-42 -296c-14 -98 -103 -131 -173 -131s-149 33 -135 131l71 503h-123l-45 -317c-33 -232 -97 -306 -250 -306l13 94c82 3 104 31 132 230l55 392h338l-84 -596c-4 -29 19 -39 41 -39c20 0 48 10 52 39z" />
    <glyph glyph-name="uni050A" unicode="&#x50a;" horiz-adv-x="686" 
d="M712 416l-42 -296c-14 -98 -102 -131 -173 -131c-70 0 -149 33 -135 131l28 203h-173l-45 -323h-108l101 716h108l-43 -300h173l43 300h108l-84 -596c-4 -29 20 -39 40 -39c21 0 50 10 54 39l42 296h106z" />
    <glyph glyph-name="uni050B" unicode="&#x50b;" horiz-adv-x="686" 
d="M712 416l-42 -296c-14 -98 -102 -131 -173 -131c-70 0 -149 33 -135 131l28 203h-173l-45 -323h-108l101 716h108l-43 -300h173l43 300h108l-84 -596c-4 -29 20 -39 40 -39c21 0 50 10 54 39l42 296h106z" />
    <glyph glyph-name="uni050C" unicode="&#x50c;" horiz-adv-x="465" 
d="M320 137l23 163h-72l13 94h180l-36 -257c-15 -109 -117 -148 -200 -148c-84 0 -176 39 -161 148l62 442c15 110 118 149 202 149c83 0 175 -39 159 -149l-16 -113h-108l16 113c6 41 -31 56 -64 56s-75 -14 -81 -56l-62 -442c-6 -41 32 -56 65 -56s74 15 80 56z" />
    <glyph glyph-name="uni050D" unicode="&#x50d;" horiz-adv-x="465" 
d="M320 137l23 163h-72l13 94h180l-36 -257c-15 -109 -117 -148 -200 -148c-84 0 -176 39 -161 148l62 442c15 110 118 149 202 149c83 0 175 -39 159 -149l-16 -113h-108l16 113c6 41 -31 56 -64 56s-75 -14 -81 -56l-62 -442c-6 -41 32 -56 65 -56s74 15 80 56z" />
    <glyph glyph-name="uni050E" unicode="&#x50e;" horiz-adv-x="472" 
d="M349 120l42 296h107l-42 -296c-14 -98 -102 -131 -172 -131s-150 33 -136 131l71 503h-122l13 93h352l-13 -93h-122l-71 -503c-4 -29 20 -39 41 -39s48 10 52 39z" />
    <glyph glyph-name="uni050F" unicode="&#x50f;" horiz-adv-x="472" 
d="M349 120l42 296h107l-42 -296c-14 -98 -102 -131 -172 -131s-150 33 -136 131l71 503h-122l13 93h352l-13 -93h-122l-71 -503c-4 -29 20 -39 41 -39s48 10 52 39z" />
    <glyph glyph-name="endash" unicode="&#x2013;" horiz-adv-x="378" 
d="M396 416l-13 -93h-297l13 93h297z" />
    <glyph glyph-name="emdash" unicode="&#x2014;" horiz-adv-x="502" 
d="M519 416l-13 -93h-420l13 93h420z" />
    <glyph glyph-name="quoteleft" unicode="&#x2018;" horiz-adv-x="183" 
d="M216 485h-114l15 107c13 92 72 123 131 123l-7 -53c-34 0 -61 -17 -68 -70h58z" />
    <glyph glyph-name="quoteright" unicode="&#x2019;" horiz-adv-x="183" 
d="M102 486l7 53c34 0 61 19 68 70h-58l15 107h114l-15 -107c-13 -92 -70 -123 -131 -123z" />
    <glyph glyph-name="quotesinglbase" unicode="&#x201a;" horiz-adv-x="183" 
d="M17 -123l7 53c34 0 61 18 68 70h-58l15 108h114l-15 -108c-13 -91 -70 -123 -131 -123z" />
    <glyph glyph-name="quotedblleft" unicode="&#x201c;" horiz-adv-x="332" 
d="M216 486h-114l15 107c13 92 72 123 131 123l-7 -53c-34 0 -61 -17 -68 -70h58zM365 486h-114l15 107c13 92 72 123 131 123l-7 -53c-34 0 -60 -17 -67 -70h57z" />
    <glyph glyph-name="quotedblright" unicode="&#x201d;" horiz-adv-x="332" 
d="M251 486l7 53c35 0 61 19 68 70h-58l15 107h114l-15 -107c-13 -92 -71 -123 -131 -123zM102 486l7 53c34 0 61 19 68 70h-58l15 107h114l-15 -107c-13 -92 -70 -123 -131 -123z" />
    <glyph glyph-name="quotedblbase" unicode="&#x201e;" horiz-adv-x="332" 
d="M166 -123l7 53c35 0 61 18 68 70h-58l15 108h114l-15 -108c-13 -91 -71 -123 -131 -123zM17 -123l7 53c34 0 61 18 68 70h-58l15 108h114l-15 -108c-13 -91 -70 -123 -131 -123z" />
    <glyph glyph-name="dagger" unicode="&#x2020;" horiz-adv-x="243" 
d="M149 -94h-81l104 743h-65l10 67h65l13 94h81l-13 -94h65l-10 -67h-65z" />
    <glyph glyph-name="daggerdbl" unicode="&#x2021;" horiz-adv-x="243" 
d="M149 -94h-81l87 622h-65l10 67h65l7 54h-65l10 67h65l13 94h81l-13 -94h65l-10 -67h-65l-7 -54h65l-10 -67h-65z" />
    <glyph glyph-name="bullet" unicode="&#x2022;" horiz-adv-x="273" 
d="M175 280c-44 0 -76 35 -76 79c0 53 49 98 101 98c45 0 77 -35 77 -78c0 -53 -48 -99 -102 -99z" />
    <glyph glyph-name="ellipsis" unicode="&#x2026;" horiz-adv-x="546" 
d="M163 0h-115l15 108h115zM330 0h-114l15 108h114zM497 0h-114l15 108h114z" />
    <glyph glyph-name="perthousand" unicode="&#x2030;" horiz-adv-x="683" 
d="M143 0h-61l346 716h60zM240 558l14 98c2 17 -13 23 -27 23c-13 0 -31 -7 -33 -23l-14 -98c-3 -19 14 -23 27 -23c14 0 31 5 33 23zM308 656l-14 -98c-7 -52 -56 -71 -94 -71s-81 19 -74 71l14 98c7 51 56 69 94 69s81 -18 74 -69zM379 62l13 97c3 18 -12 24 -26 24
c-13 0 -32 -7 -34 -24l-13 -97c-3 -19 13 -25 26 -25c14 0 31 7 34 25zM446 159l-13 -97c-7 -52 -56 -71 -94 -71c-39 0 -81 19 -74 71l13 97c7 52 55 70 94 70c38 0 81 -18 74 -70zM590 62l13 97c3 18 -12 24 -26 24c-13 0 -32 -7 -34 -24l-13 -97c-3 -19 13 -25 26 -25
c14 0 31 7 34 25zM657 159l-13 -97c-7 -52 -55 -71 -94 -71c-38 0 -80 19 -73 71l13 97c7 52 55 70 93 70c39 0 81 -18 74 -70z" />
    <glyph glyph-name="guilsinglleft" unicode="&#x2039;" horiz-adv-x="340" 
d="M291 0h-100l-102 294l174 281h100l-2 -17l-157 -264l89 -276z" />
    <glyph glyph-name="guilsinglright" unicode="&#x203a;" horiz-adv-x="340" 
d="M147 0h-99l3 18l167 276l-83 264l3 17h99l95 -281z" />
    <glyph glyph-name="lira" unicode="&#x20a4;" horiz-adv-x="429" 
d="M407 0h-378l12 90c40 0 90 22 101 100l1 4c5 38 6 69 6 96h-86l7 48h76l-6 40h-64l6 48h49c-6 39 -9 82 0 149l1 4c15 110 105 149 182 149c74 0 159 -35 144 -141l-16 -114h-107l16 114c5 36 -27 48 -51 48c-26 0 -55 -14 -61 -56l-1 -4c-10 -71 -2 -107 7 -149h157
l-16 -48h-131l3 -40h117l-19 -48h-98c-2 -27 -4 -58 -9 -96l-1 -4c-6 -42 -25 -73 -51 -96h223z" />
    <glyph glyph-name="Euro" unicode="&#x20ac;" horiz-adv-x="503" 
d="M373 137l16 113h108l-16 -113c-15 -109 -117 -148 -200 -148c-84 0 -176 39 -161 148l22 153h-78l7 48h78l5 40h-78l7 48h78l22 153c16 110 118 149 202 149c83 0 175 -39 159 -149l-16 -113h-108l16 113c6 41 -32 56 -65 56s-74 -14 -80 -56l-22 -153h134l-17 -48h-124
l-5 -40h119l-19 -48h-107l-22 -153c-6 -41 33 -56 66 -56s73 15 79 56z" />
    <glyph glyph-name="uni20B4" unicode="&#x20b4;" horiz-adv-x="475" 
d="M315 129l16 112h107l-16 -112c-15 -105 -112 -140 -191 -140s-167 35 -152 140l13 91c4 28 14 51 30 70h-58l7 48h117l64 40h-176l7 48h245c22 14 30 33 35 70l13 91c4 28 -5 48 -49 48c-34 0 -67 -17 -71 -48l-16 -112h-108l16 112c15 105 107 141 193 141
c85 0 156 -36 141 -141l-13 -91c-4 -29 -15 -52 -31 -70h74l-7 -48h-138l-64 -40h197l-7 -48h-258c-24 -16 -31 -34 -36 -70l-13 -91c-5 -34 28 -48 58 -48c29 0 66 13 71 48z" />
    <glyph glyph-name="uni20B8" unicode="&#x20b8;" horiz-adv-x="370" 
d="M239 0h-108l82 581h-122l7 47h352l-7 -47h-122zM455 669h-352l7 47h352z" />
    <glyph glyph-name="uni20B9" unicode="&#x20b9;" horiz-adv-x="472" 
d="M367 0h-112l-72 362l3 19h50c44 0 69 45 74 80l4 30h-222l7 48h222l1 10c4 34 -8 72 -49 74h-162l13 93h159c53 0 94 -15 119 -45h141l-16 -48h-99c4 -22 5 -47 2 -75l-1 -9h80l-19 -48h-68l-4 -31c-9 -68 -44 -117 -107 -151l59 -291z" />
    <glyph glyph-name="uni20BD" unicode="&#x20bd;" horiz-adv-x="503" 
d="M209 0h-108l26 187h-78l7 47h78l5 41h-78l13 92h78l49 349h185c113 0 180 -62 163 -177l-13 -88c-17 -114 -99 -176 -212 -176h-77l-5 -41h119l-19 -47h-107zM428 451l13 88c6 41 -13 84 -68 84h-77l-36 -256h77c55 0 85 44 91 84z" />
    <glyph glyph-name="afii61352" unicode="&#x2116;" horiz-adv-x="715" 
d="M696 558l14 98c2 17 -13 23 -28 23c-13 0 -30 -7 -32 -23l-14 -98c-3 -19 13 -23 26 -23c15 0 32 5 34 23zM763 656l-14 -98c-7 -52 -54 -71 -94 -71c-38 0 -80 19 -73 71l14 98c7 51 55 69 93 69c40 0 81 -18 74 -69zM451 0h-98l-118 451l-63 -451h-108l101 716h99
l117 -451l64 451h107z" />
    <glyph glyph-name="trademark" unicode="&#x2122;" horiz-adv-x="513" 
d="M536 447h-54l23 168l-90 -121l-54 121l-23 -168h-53l37 269h49l57 -131l96 131h49zM187 447h-54l31 223h-61l6 46h176l-6 -46h-61z" />
    <glyph glyph-name="estimated" unicode="&#x212e;" horiz-adv-x="680" 
d="M531 108h43c-53 -62 -138 -104 -233 -104c-163 0 -297 119 -297 267c0 147 134 266 297 266s295 -119 295 -266v-8h-480c-1 0 -3 -1 -3 -2v-145c0 -7 3 -13 8 -17c44 -48 110 -79 180 -79c76 0 145 35 190 88zM528 283v146c0 7 -2 12 -8 17c-46 46 -109 75 -179 75
s-134 -30 -180 -78c-5 -5 -8 -11 -8 -18v-142c0 -4 2 -5 3 -5h369c2 0 3 1 3 5z" />
    <glyph glyph-name="arrowleft" unicode="&#x2190;" horiz-adv-x="631" 
d="M398 100h-105l-249 250v17l249 249h105v-18l-193 -193h382v-94h-382l193 -193v-18z" />
    <glyph glyph-name="arrowup" unicode="&#x2191;" horiz-adv-x="604" 
d="M560 278h-18l-193 193v-383h-94v383l-193 -193h-18v106l249 247h17l250 -247v-106z" />
    <glyph glyph-name="arrowright" unicode="&#x2192;" horiz-adv-x="631" 
d="M587 350l-247 -250h-106v18l193 193h-383v94h383l-193 193v18h106l247 -249v-17z" />
    <glyph glyph-name="arrowdown" unicode="&#x2193;" horiz-adv-x="604" 
d="M560 332l-250 -247h-17l-249 247v106h18l193 -193v383h94v-383l193 193h18v-106z" />
    <glyph glyph-name="uni2196" unicode="&#x2196;" horiz-adv-x="527" 
d="M403 174l-272 272v-274l-12 -13l-75 75v351l13 13h351l75 -74l-12 -12h-274l272 -272z" />
    <glyph glyph-name="uni2197" unicode="&#x2197;" horiz-adv-x="527" 
d="M408 159l-12 13v274l-271 -272l-66 66l271 272h-274l-12 12l75 74h351l13 -13v-351z" />
    <glyph glyph-name="uni2198" unicode="&#x2198;" horiz-adv-x="527" 
d="M470 159h-351l-75 75l12 12h274l-271 271l66 66l271 -271v274l12 12l75 -74v-351z" />
    <glyph glyph-name="uni2199" unicode="&#x2199;" horiz-adv-x="527" 
d="M408 159h-351l-13 14v351l75 74l12 -12v-274l272 271l66 -66l-272 -271h274l12 -12z" />
    <glyph glyph-name="uniF6C3" unicode="&#xf6c3;" horiz-adv-x="186" 
d="M158 -85l-78 -82h-62l58 100h84z" />
    <glyph glyph-name="NULL" horiz-adv-x="0" 
 />
    <glyph glyph-name="NULL" horiz-adv-x="0" 
 />
    <glyph glyph-name="CR" unicode="&#xd;" horiz-adv-x="186" 
 />
    </font>
</defs>
</svg>
